STARTFONT 2.1
COMMENT Font converted from OTF to BDF.
FONT -FreeType-FreeSans-Medium-R-Normal--32-240-96-96-P-177-ISO10646-1
SIZE 24 96 96
FONTBOUNDINGBOX 98 44 -37 -10
STARTPROPERTIES 19
POINT_SIZE 240
PIXEL_SIZE 32
RESOLUTION_X 96
RESOLUTION_Y 96
FONT_ASCENT 28
FONT_DESCENT 6
AVERAGE_WIDTH 177
SPACING "P"
FOUNDRY "FreeType"
FAMILY_NAME "FreeSans"
CHARSET_REGISTRY "ISO10646"
CHARSET_ENCODING "1"
WEIGHT_NAME "Medium"
SLANT "R"
SETWIDTH_NAME "Normal"
COPYRIGHT "Copyright 2002, 2003, 2005, 2008, 2009, 2010, 2012 GNU Freefont contributors."
_TTF_PSNAME "FreeSans"
_OTF_FONTFILE "FreeSans.ttf"
_GBDFED_INFO "Edited with gbdfed 1.6."
ENDPROPERTIES
CHARS 4472
STARTCHAR char32
ENCODING 32
SWIDTH 22 0
DWIDTH 8 0
BBX 0 0 0 0
BITMAP
ENDCHAR
STARTCHAR char33
ENCODING 33
SWIDTH 2 0
DWIDTH 11 0
BBX 3 23 4 0
BITMAP
E0
E0
E0
E0
E0
E0
E0
E0
E0
E0
E0
E0
C0
C0
C0
C0
40
40
00
00
E0
E0
E0
ENDCHAR
STARTCHAR char34
ENCODING 34
SWIDTH 2 0
DWIDTH 11 0
BBX 8 8 1 15
BITMAP
E7
E7
E7
E7
E3
63
63
63
ENDCHAR
STARTCHAR char35
ENCODING 35
SWIDTH 22 0
DWIDTH 18 0
BBX 17 23 0 -1
BITMAP
018600
038600
038600
030E00
030E00
030C00
3FFF80
3FFF80
061C00
061C00
061C00
0E1800
0E1800
0E1800
FFFF00
FFFF00
0C3000
1C3000
1C3000
187000
187000
187000
386000
ENDCHAR
STARTCHAR char36
ENCODING 36
SWIDTH 22 0
DWIDTH 18 0
BBX 16 29 1 -4
BITMAP
0180
0180
07E0
1FF8
3DFC
719C
618E
618E
E180
E180
7180
7980
3F80
1FF0
03FC
01BE
018E
0186
E187
E187
E186
E18E
719E
3FFC
1FF8
07C0
0180
0180
0180
ENDCHAR
STARTCHAR char37
ENCODING 37
SWIDTH 21 0
DWIDTH 28 0
BBX 26 24 1 -1
BITMAP
00003000
1F003000
3F806000
73C06000
E0C0C000
C0E0C000
C0618000
C0E18000
E0E30000
71C70000
3F860000
1F0E0000
000C0000
00183F00
00187F80
0030E1C0
0030C0C0
0060C0C0
0060C0C0
00C0C0C0
00C0E1C0
01807F80
03803F00
03000C00
ENDCHAR
STARTCHAR char38
ENCODING 38
SWIDTH 2 0
DWIDTH 21 0
BBX 18 24 2 -1
BITMAP
018000
0FE000
1FF000
183800
383800
383800
383800
1C7000
1EF000
0FE000
078000
1F8000
3FC300
71E300
E0E700
E07700
C03E00
C03E00
E01E00
E03F00
F07F00
7FF380
3FE3C0
070000
ENDCHAR
STARTCHAR char39
ENCODING 39
SWIDTH 16 0
DWIDTH 6 0
BBX 3 8 2 15
BITMAP
E0
E0
E0
E0
E0
C0
C0
C0
ENDCHAR
STARTCHAR char40
ENCODING 40
SWIDTH 2 0
DWIDTH 11 0
BBX 7 30 2 -7
BITMAP
06
0C
0C
18
18
30
30
30
70
60
60
60
E0
E0
E0
E0
E0
60
60
60
70
70
30
30
38
18
1C
0C
06
06
ENDCHAR
STARTCHAR char41
ENCODING 41
SWIDTH 2 0
DWIDTH 11 0
BBX 7 30 1 -7
BITMAP
60
60
30
30
18
18
1C
0C
0C
0E
0E
0E
0E
06
06
06
06
0E
0E
0E
0C
0C
1C
18
18
38
30
70
60
C0
ENDCHAR
STARTCHAR char42
ENCODING 42
SWIDTH 5 0
DWIDTH 12 0
BBX 10 9 1 14
BITMAP
0C00
0C00
4CC0
FFC0
3F00
1E00
3B00
3380
0100
ENDCHAR
STARTCHAR char43
ENCODING 43
SWIDTH 24 0
DWIDTH 19 0
BBX 15 15 2 0
BITMAP
0300
0300
0300
0300
0300
0300
FFFE
FFFE
FFFE
0300
0300
0300
0300
0300
0300
ENDCHAR
STARTCHAR char44
ENCODING 44
SWIDTH 25 0
DWIDTH 9 0
BBX 3 8 3 -5
BITMAP
E0
E0
E0
60
60
60
C0
80
ENDCHAR
STARTCHAR char45
ENCODING 45
SWIDTH 2 0
DWIDTH 11 0
BBX 8 2 1 8
BITMAP
FF
FF
ENDCHAR
STARTCHAR char46
ENCODING 46
SWIDTH 22 0
DWIDTH 8 0
BBX 3 3 3 0
BITMAP
E0
E0
E0
ENDCHAR
STARTCHAR char47
ENCODING 47
SWIDTH 25 0
DWIDTH 9 0
BBX 9 24 0 -1
BITMAP
0180
0180
0300
0300
0300
0600
0600
0600
0400
0C00
0C00
0800
1800
1800
1000
3000
3000
2000
6000
6000
6000
C000
C000
C000
ENDCHAR
STARTCHAR char48
ENCODING 48
SWIDTH 22 0
DWIDTH 18 0
BBX 15 24 1 -1
BITMAP
03C0
0FF0
1FF8
3C38
381C
701C
700E
700E
600E
E00E
E00E
E00E
E00E
E00E
E00E
600E
700E
700E
701C
381C
3838
1FF8
0FF0
03C0
ENDCHAR
STARTCHAR char49
ENCODING 49
SWIDTH 22 0
DWIDTH 18 0
BBX 8 23 3 0
BITMAP
03
03
07
07
3F
FF
FF
07
07
07
07
07
07
07
07
07
07
07
07
07
07
07
07
ENDCHAR
STARTCHAR char50
ENCODING 50
SWIDTH 22 0
DWIDTH 18 0
BBX 15 23 1 0
BITMAP
0380
0FF0
3FFC
381C
700E
700E
700E
600E
000E
000E
001C
007C
00F8
03E0
0F80
1E00
3C00
7800
7000
6000
FFFE
FFFE
FFFE
ENDCHAR
STARTCHAR char51
ENCODING 51
SWIDTH 22 0
DWIDTH 18 0
BBX 15 24 1 -1
BITMAP
03C0
1FF0
3FF8
783C
701C
701C
600E
E00C
001C
003C
03F8
03F0
03FC
001C
000E
000E
E00E
E00E
E00E
700E
783C
3FF8
1FF0
0380
ENDCHAR
STARTCHAR char52
ENCODING 52
SWIDTH 22 0
DWIDTH 18 0
BBX 16 23 1 0
BITMAP
0030
0070
0070
00F0
01F0
03F0
0370
0770
0E70
0C70
1C70
3870
7070
6070
E070
FFFF
FFFF
FFFF
0070
0070
0070
0070
0070
ENDCHAR
STARTCHAR char53
ENCODING 53
SWIDTH 22 0
DWIDTH 18 0
BBX 15 24 1 -1
BITMAP
3FFC
3FFC
3FFC
3800
3800
3000
3000
3000
73E0
7FF8
7FFC
781C
700E
000E
000E
0006
000E
E00E
E00E
701E
783C
3FF8
1FF0
03C0
ENDCHAR
STARTCHAR char54
ENCODING 54
SWIDTH 22 0
DWIDTH 18 0
BBX 15 24 1 -1
BITMAP
01C0
0FF0
1FF8
3C3C
381C
700E
7000
7000
6000
63E0
EFF8
FF7C
F81E
F00E
F00E
600E
600E
700E
700E
780E
3C3C
1FF8
0FF0
03C0
ENDCHAR
STARTCHAR char55
ENCODING 55
SWIDTH 22 0
DWIDTH 18 0
BBX 16 23 1 0
BITMAP
FFFF
FFFF
FFFF
000E
000C
001C
0038
0030
0070
0060
00E0
01C0
01C0
0180
0380
0300
0700
0700
0600
0E00
0E00
0E00
0E00
ENDCHAR
STARTCHAR char56
ENCODING 56
SWIDTH 22 0
DWIDTH 18 0
BBX 15 24 1 -1
BITMAP
0180
0FF0
3FF8
383C
701C
700E
700E
700E
781C
3C3C
1FF0
1FF0
3E7C
701C
700E
E00E
E006
E00E
E00E
700E
781C
3FFC
1FF0
03C0
ENDCHAR
STARTCHAR char57
ENCODING 57
SWIDTH 22 0
DWIDTH 18 0
BBX 15 24 1 -1
BITMAP
0380
1FF0
3FF8
783C
701C
700E
E00E
E00E
E00E
E00E
701E
701E
3EFE
1FFE
0FCE
000E
000E
000E
701C
701C
3838
3FF0
1FE0
0380
ENDCHAR
STARTCHAR char58
ENCODING 58
SWIDTH 22 0
DWIDTH 8 0
BBX 3 17 3 0
BITMAP
E0
E0
E0
E0
00
00
00
00
00
00
00
00
00
00
E0
E0
E0
ENDCHAR
STARTCHAR char59
ENCODING 59
SWIDTH 22 0
DWIDTH 8 0
BBX 3 21 3 -5
BITMAP
E0
E0
E0
00
00
00
00
00
00
00
00
00
00
E0
E0
E0
60
60
60
C0
80
ENDCHAR
STARTCHAR char60
ENCODING 60
SWIDTH 24 0
DWIDTH 19 0
BBX 16 15 1 0
BITMAP
0003
000F
003F
01F8
07E0
1F00
FC00
F000
FC00
3F00
07E0
01F8
007F
000F
0003
ENDCHAR
STARTCHAR char61
ENCODING 61
SWIDTH 24 0
DWIDTH 19 0
BBX 15 7 2 4
BITMAP
FFFE
FFFE
0000
0000
0000
FFFE
FFFE
ENDCHAR
STARTCHAR char62
ENCODING 62
SWIDTH 24 0
DWIDTH 19 0
BBX 15 15 2 0
BITMAP
8000
F000
FC00
3F00
07E0
01F8
003E
000E
003E
00F8
07E0
1F80
FC00
F000
8000
ENDCHAR
STARTCHAR char63
ENCODING 63
SWIDTH 22 0
DWIDTH 18 0
BBX 14 24 2 0
BITMAP
03C0
1FF0
3FF8
783C
701C
601C
E01C
E01C
001C
0038
0078
00F0
01E0
03C0
0380
0380
0380
0380
0000
0000
0000
0380
0380
0380
ENDCHAR
STARTCHAR char64
ENCODING 64
SWIDTH 4 0
DWIDTH 32 0
BBX 29 29 1 -5
BITMAP
0007C000
003FFC00
00FFFF00
03E00F80
078003C0
0F0001E0
1E0000F0
1C038070
380FEE38
703CEC38
70783C38
60703C18
E0E03818
E0E03818
E0C03838
E1C03838
E1C07038
E0E07070
E0E0F0F0
70F1F1E0
707F7FC0
383E3F00
3C000000
1E000000
0F000000
07E01800
01FFFC00
007FF800
00020000
ENDCHAR
STARTCHAR char65
ENCODING 65
SWIDTH 2 0
DWIDTH 21 0
BBX 20 23 1 0
BITMAP
01F000
01F000
01F800
03B800
03B800
039C00
071C00
071C00
070E00
0E0E00
0E0E00
0E0700
1C0700
1FFF80
3FFF80
3FFF80
3803C0
7801C0
7001C0
7001E0
F000E0
E000E0
E000F0
ENDCHAR
STARTCHAR char66
ENCODING 66
SWIDTH 2 0
DWIDTH 21 0
BBX 17 23 3 0
BITMAP
FFF800
FFFC00
E03E00
E00F00
E00700
E00700
E00700
E00700
E00E00
E03C00
FFF800
FFFC00
E01F00
E00700
E00380
E00380
E00380
E00380
E00780
E00700
FFFF00
FFFE00
FFF800
ENDCHAR
STARTCHAR char67
ENCODING 67
SWIDTH 7 0
DWIDTH 23 0
BBX 20 25 1 -1
BITMAP
007800
03FF00
0FFF80
1F03C0
3C01E0
3800E0
7800F0
700070
700000
700000
E00000
E00000
E00000
E00000
E00000
700070
700070
700070
780070
3800E0
3C01E0
1F03C0
0FFF80
03FF00
00F800
ENDCHAR
STARTCHAR char68
ENCODING 68
SWIDTH 4 0
DWIDTH 22 0
BBX 18 23 3 0
BITMAP
FFF800
FFFC00
E03E00
E00F00
E00780
E00380
E00380
E001C0
E001C0
E001C0
E001C0
E001C0
E001C0
E001C0
E001C0
E001C0
E00380
E00380
E00700
E00F00
FFFE00
FFFC00
FFF000
ENDCHAR
STARTCHAR char69
ENCODING 69
SWIDTH 27 0
DWIDTH 20 0
BBX 16 23 3 0
BITMAP
FFFF
FFFF
E000
E000
E000
E000
E000
E000
E000
E000
FFFE
FFFE
E000
E000
E000
E000
E000
E000
E000
E000
FFFF
FFFF
FFFF
ENDCHAR
STARTCHAR char70
ENCODING 70
SWIDTH 24 0
DWIDTH 19 0
BBX 15 23 3 0
BITMAP
FFFE
FFFE
E000
E000
E000
E000
E000
E000
E000
E000
FFFC
FFFC
E000
E000
E000
E000
E000
E000
E000
E000
E000
E000
E000
ENDCHAR
STARTCHAR char71
ENCODING 71
SWIDTH 10 0
DWIDTH 24 0
BBX 22 25 1 -1
BITMAP
007800
03FF80
0FFFC0
1F01E0
1E00F0
3C0078
380038
700038
700000
700000
E00000
E00000
E00FFC
E00FFC
E0001C
70001C
70001C
70001C
78003C
3C007C
1E00FC
1F01FC
0FFF9C
03FF0C
00F800
ENDCHAR
STARTCHAR char72
ENCODING 72
SWIDTH 7 0
DWIDTH 23 0
BBX 18 23 3 0
BITMAP
E001C0
E001C0
E001C0
E001C0
E001C0
E001C0
E001C0
E001C0
E001C0
E001C0
FFFFC0
FFFFC0
E001C0
E001C0
E001C0
E001C0
E001C0
E001C0
E001C0
E001C0
E001C0
E001C0
E001C0
ENDCHAR
STARTCHAR char73
ENCODING 73
SWIDTH 25 0
DWIDTH 9 0
BBX 3 23 3 0
BITMAP
E0
E0
E0
E0
E0
E0
E0
E0
E0
E0
E0
E0
E0
E0
E0
E0
E0
E0
E0
E0
E0
E0
E0
ENDCHAR
STARTCHAR char74
ENCODING 74
SWIDTH 19 0
DWIDTH 17 0
BBX 13 24 1 -1
BITMAP
0038
0038
0038
0038
0038
0038
0038
0038
0038
0038
0038
0038
0038
0038
0038
0038
E038
E038
E038
F038
7070
7FF0
3FE0
0700
ENDCHAR
STARTCHAR char75
ENCODING 75
SWIDTH 4 0
DWIDTH 22 0
BBX 18 23 3 0
BITMAP
E00780
E00F00
E01E00
E03C00
E07800
E0F000
E1E000
E3C000
E78000
EF8000
FF8000
FDC000
F9E000
F0F000
E07000
E07800
E03C00
E01C00
E01E00
E00F00
E00700
E00380
E003C0
ENDCHAR
STARTCHAR char76
ENCODING 76
SWIDTH 22 0
DWIDTH 18 0
BBX 14 23 3 0
BITMAP
E000
E000
E000
E000
E000
E000
E000
E000
E000
E000
E000
E000
E000
E000
E000
E000
E000
E000
E000
E000
FFFC
FFFC
FFFC
ENDCHAR
STARTCHAR char77
ENCODING 77
SWIDTH 18 0
DWIDTH 27 0
BBX 22 23 3 0
BITMAP
F0007C
F0007C
F800FC
F800FC
D800DC
DC01DC
DC01DC
CC019C
CE039C
CE039C
C6031C
C7071C
C7071C
C3061C
C38E1C
C38E1C
C18C1C
C1DC1C
C1DC1C
C0D81C
C0F81C
C0F81C
C0701C
ENDCHAR
STARTCHAR char78
ENCODING 78
SWIDTH 7 0
DWIDTH 23 0
BBX 18 23 3 0
BITMAP
E001C0
F001C0
F801C0
F801C0
DC01C0
DE01C0
CE01C0
C701C0
C701C0
C381C0
C3C1C0
C1C1C0
C0E1C0
C0F1C0
C071C0
C039C0
C03DC0
C01DC0
C00FC0
C00FC0
C007C0
C007C0
C003C0
ENDCHAR
STARTCHAR char79
ENCODING 79
SWIDTH 13 0
DWIDTH 25 0
BBX 23 25 1 -1
BITMAP
007C00
03FF80
07FFC0
0F01F0
1E00F0
3C0078
78003C
70001C
70001C
70001E
E0000E
E0000E
E0000E
E0000E
E0000E
70001E
70001C
70001C
78003C
3C0038
1E00F0
1F01F0
07FFC0
03FF80
007C00
ENDCHAR
STARTCHAR char80
ENCODING 80
SWIDTH 2 0
DWIDTH 21 0
BBX 16 23 3 0
BITMAP
FFF8
FFFE
E03E
E00F
E007
E007
E007
E007
E007
E00F
FFFE
FFFC
FFF8
E000
E000
E000
E000
E000
E000
E000
E000
E000
E000
ENDCHAR
STARTCHAR char81
ENCODING 81
SWIDTH 13 0
DWIDTH 25 0
BBX 23 25 1 -2
BITMAP
007C00
03FF80
07FFC0
0F01F0
1E00F0
3C0078
78003C
70001C
70001C
70001E
E0000E
E0000E
E0000E
E0000E
E0000E
70001E
70001C
70021C
78033C
3C07B8
1E03F0
1F01F0
07FFF8
03FFBC
00781C
ENDCHAR
STARTCHAR char82
ENCODING 82
SWIDTH 7 0
DWIDTH 23 0
BBX 18 23 3 0
BITMAP
FFFC00
FFFF00
E00F80
E00780
E00380
E00380
E00380
E00380
E00380
E00700
FFFE00
FFFC00
FFFE00
E00700
E00380
E00380
E00380
E00380
E00380
E00380
E00380
E003C0
E003C0
ENDCHAR
STARTCHAR char83
ENCODING 83
SWIDTH 2 0
DWIDTH 21 0
BBX 18 25 2 -1
BITMAP
01C000
1FFC00
3FFE00
780F00
700700
E00380
E00380
E00380
F00000
780000
7F0000
3FF000
0FFE00
00FF00
000F80
0003C0
0001C0
C001C0
E001C0
E001C0
F00380
780F80
3FFF00
1FFC00
03F000
ENDCHAR
STARTCHAR char84
ENCODING 84
SWIDTH 27 0
DWIDTH 20 0
BBX 18 23 1 0
BITMAP
FFFFC0
FFFFC0
00E000
00E000
00E000
00E000
00E000
00E000
00E000
00E000
00E000
00E000
00E000
00E000
00E000
00E000
00E000
00E000
00E000
00E000
00E000
00E000
00E000
ENDCHAR
STARTCHAR char85
ENCODING 85
SWIDTH 7 0
DWIDTH 23 0
BBX 17 24 3 -1
BITMAP
E00380
E00380
E00380
E00380
E00380
E00380
E00380
E00380
E00380
E00380
E00380
E00380
E00380
E00380
E00380
E00380
E00380
E00380
E00380
F00780
780F00
3FFE00
1FFC00
03E000
ENDCHAR
STARTCHAR char86
ENCODING 86
SWIDTH 2 0
DWIDTH 21 0
BBX 19 23 1 0
BITMAP
E000E0
E001E0
7001C0
7001C0
7003C0
380380
380380
380700
1C0700
1C0700
1C0E00
0E0E00
0E0E00
0E1C00
071C00
071C00
03B800
03B800
03B800
01F000
01F000
01F000
00E000
ENDCHAR
STARTCHAR char87
ENCODING 87
SWIDTH 27 0
DWIDTH 30 0
BBX 28 23 1 0
BITMAP
E00F0070
E00F0070
E00F0070
F01F80F0
701F80E0
701B80E0
703980E0
7839C1E0
3839C1C0
3830C1C0
3870E1C0
1C70E3C0
1C70E380
1C606380
1CE07380
0CE07380
0EE07700
0FC03F00
0FC03F00
07C03E00
07801E00
07801E00
07801E00
ENDCHAR
STARTCHAR char88
ENCODING 88
SWIDTH 2 0
DWIDTH 21 0
BBX 19 23 1 0
BITMAP
F001E0
7803C0
380380
1C0780
1E0F00
0E0E00
071C00
07BC00
03B800
01F000
01F000
01F000
01F000
03B800
07BC00
071C00
0E0E00
1E0F00
1C0700
380380
7803C0
7001E0
E000E0
ENDCHAR
STARTCHAR char89
ENCODING 89
SWIDTH 4 0
DWIDTH 22 0
BBX 20 23 1 0
BITMAP
F000F0
7000E0
7801C0
3803C0
1C0380
1E0780
0E0700
0F0E00
079E00
039C00
03FC00
01F800
00F000
00F000
00E000
00E000
00E000
00E000
00E000
00E000
00E000
00E000
00E000
ENDCHAR
STARTCHAR char90
ENCODING 90
SWIDTH 27 0
DWIDTH 20 0
BBX 18 23 1 0
BITMAP
7FFFC0
7FFFC0
0003C0
000780
000F00
001E00
001C00
003C00
007800
00F000
00E000
01E000
03C000
078000
0F0000
0E0000
1E0000
3C0000
780000
700000
FFFFC0
FFFFC0
FFFFC0
ENDCHAR
STARTCHAR char91
ENCODING 91
SWIDTH 25 0
DWIDTH 9 0
BBX 6 30 2 -7
BITMAP
FC
FC
E0
E0
E0
E0
E0
E0
E0
E0
E0
E0
E0
E0
E0
E0
E0
E0
E0
E0
E0
E0
E0
E0
E0
E0
E0
FC
FC
FC
ENDCHAR
STARTCHAR char92
ENCODING 92
SWIDTH 25 0
DWIDTH 9 0
BBX 9 24 0 -1
BITMAP
C000
C000
4000
6000
6000
2000
3000
3000
1000
1800
1800
1800
0C00
0C00
0C00
0600
0600
0600
0200
0300
0300
0100
0180
0180
ENDCHAR
STARTCHAR char93
ENCODING 93
SWIDTH 25 0
DWIDTH 9 0
BBX 6 30 1 -7
BITMAP
FC
FC
1C
1C
1C
1C
1C
1C
1C
1C
1C
1C
1C
1C
1C
1C
1C
1C
1C
1C
1C
1C
1C
1C
1C
1C
1C
FC
FC
FC
ENDCHAR
STARTCHAR char94
ENCODING 94
SWIDTH 13 0
DWIDTH 15 0
BBX 11 12 2 11
BITMAP
0E00
0E00
1F00
1B00
1B00
3180
3180
71C0
60C0
60C0
C060
C060
ENDCHAR
STARTCHAR char95
ENCODING 95
SWIDTH 22 0
DWIDTH 18 0
BBX 20 2 -1 -6
BITMAP
FFFFF0
FFFFF0
ENDCHAR
STARTCHAR char96
ENCODING 96
SWIDTH 22 0
DWIDTH 8 0
BBX 6 5 1 19
BITMAP
E0
70
38
18
0C
ENDCHAR
STARTCHAR char97
ENCODING 97
SWIDTH 19 0
DWIDTH 17 0
BBX 16 18 1 -1
BITMAP
1FE0
3FF8
7878
701C
701C
001C
001C
01FC
3FFC
7F1C
F01C
E01C
E01C
E03C
E07C
7FFF
3FDF
0E06
ENDCHAR
STARTCHAR char98
ENCODING 98
SWIDTH 22 0
DWIDTH 18 0
BBX 15 24 2 -1
BITMAP
E000
E000
E000
E000
E000
E000
E7E0
FFF0
FCF8
F03C
F01C
E00E
E00E
E00E
E00E
E00E
E00E
E00E
E01C
F01C
F838
DFF8
CFF0
0380
ENDCHAR
STARTCHAR char99
ENCODING 99
SWIDTH 16 0
DWIDTH 16 0
BBX 14 18 1 -1
BITMAP
0FE0
1FF0
3C78
703C
701C
E01C
E000
E000
E000
E000
E000
E01C
E01C
701C
7838
3FF8
1FF0
07C0
ENDCHAR
STARTCHAR char100
ENCODING 100
SWIDTH 22 0
DWIDTH 18 0
BBX 15 24 1 -1
BITMAP
000E
000E
000E
000E
000E
000E
0FCE
1FFE
3C7E
781E
701E
E00E
E00E
E00E
E00E
E00E
E00E
E00E
F00E
701E
783E
3FF6
1FE6
0780
ENDCHAR
STARTCHAR char101
ENCODING 101
SWIDTH 19 0
DWIDTH 17 0
BBX 15 18 1 -1
BITMAP
0FE0
1FF8
3C78
701C
700C
E00E
E00E
FFFE
FFFE
FFFE
E000
E000
E00E
701C
783C
3FF8
1FF0
0380
ENDCHAR
STARTCHAR char102
ENCODING 102
SWIDTH 25 0
DWIDTH 9 0
BBX 7 23 1 0
BITMAP
1E
3E
38
38
38
38
FE
FE
38
38
38
38
38
38
38
38
38
38
38
38
38
38
38
ENDCHAR
STARTCHAR char103
ENCODING 103
SWIDTH 22 0
DWIDTH 18 0
BBX 15 24 1 -7
BITMAP
0FCE
1FEE
3C7E
703E
701E
E01E
E00E
E00E
E00E
E00E
E00E
E00E
E01E
701E
783E
3FEE
1FCE
070E
000C
601C
701C
7C78
3FF0
0FC0
ENDCHAR
STARTCHAR char104
ENCODING 104
SWIDTH 19 0
DWIDTH 17 0
BBX 13 23 2 0
BITMAP
E000
E000
E000
E000
E000
E000
E7E0
FFF0
F878
F038
E038
E018
E018
E018
E018
E018
E018
E018
E018
E018
E018
E018
E018
ENDCHAR
STARTCHAR char105
ENCODING 105
SWIDTH 19 0
DWIDTH 7 0
BBX 3 23 2 0
BITMAP
E0
E0
E0
00
00
00
E0
E0
E0
E0
E0
E0
E0
E0
E0
E0
E0
E0
E0
E0
E0
E0
E0
ENDCHAR
STARTCHAR char106
ENCODING 106
SWIDTH 22 0
DWIDTH 8 0
BBX 5 30 0 -7
BITMAP
18
18
18
00
00
00
18
18
18
18
18
18
18
18
18
18
18
18
18
18
18
18
18
18
18
18
18
78
F8
F0
ENDCHAR
STARTCHAR char107
ENCODING 107
SWIDTH 16 0
DWIDTH 16 0
BBX 14 23 2 0
BITMAP
E000
E000
E000
E000
E000
E000
E078
E0F0
E1E0
E3C0
E780
EF00
FF00
FF00
FB80
F380
E1C0
E1E0
E0E0
E070
E078
E038
E01C
ENDCHAR
STARTCHAR char108
ENCODING 108
SWIDTH 19 0
DWIDTH 7 0
BBX 3 23 2 0
BITMAP
E0
E0
E0
E0
E0
E0
E0
E0
E0
E0
E0
E0
E0
E0
E0
E0
E0
E0
E0
E0
E0
E0
E0
ENDCHAR
STARTCHAR char109
ENCODING 109
SWIDTH 16 0
DWIDTH 26 0
BBX 22 17 2 0
BITMAP
C7C3F0
DFE7F8
F8FE3C
F0781C
E0381C
E0301C
E0301C
E0301C
E0301C
E0301C
E0301C
E0301C
E0301C
E0301C
E0301C
E0301C
E0301C
ENDCHAR
STARTCHAR char110
ENCODING 110
SWIDTH 19 0
DWIDTH 17 0
BBX 13 17 2 0
BITMAP
C7E0
CFF0
D878
F038
E018
E018
E018
E018
E018
E018
E018
E018
E018
E018
E018
E018
E018
ENDCHAR
STARTCHAR char111
ENCODING 111
SWIDTH 19 0
DWIDTH 17 0
BBX 15 18 1 -1
BITMAP
0FE0
1FF8
3C78
701C
701C
E00E
E00E
E00E
E00E
E00E
E00E
E00E
E00E
701C
783C
3FF8
1FF0
0380
ENDCHAR
STARTCHAR char112
ENCODING 112
SWIDTH 22 0
DWIDTH 18 0
BBX 15 24 2 -7
BITMAP
C7E0
DFF0
DCF8
F03C
F01C
E00E
E00E
E00E
E00E
E00E
E00E
E00E
E01C
F01C
F83C
FFF8
EFF0
E3C0
E000
E000
E000
E000
E000
E000
ENDCHAR
STARTCHAR char113
ENCODING 113
SWIDTH 22 0
DWIDTH 18 0
BBX 15 24 1 -7
BITMAP
0FC6
1FF6
3E7E
781E
701E
E00E
E00E
E00E
E00E
E00E
E00E
E00E
F00E
701E
783E
3FFE
1FEE
078E
000E
000E
000E
000E
000E
000E
ENDCHAR
STARTCHAR char114
ENCODING 114
SWIDTH 2 0
DWIDTH 11 0
BBX 8 17 2 0
BITMAP
C7
CF
DF
F0
E0
E0
E0
E0
E0
E0
E0
E0
E0
E0
E0
E0
E0
ENDCHAR
STARTCHAR char115
ENCODING 115
SWIDTH 16 0
DWIDTH 16 0
BBX 14 18 1 -1
BITMAP
1FE0
3FF0
7870
7038
E038
6000
7800
7F00
3FE0
07F8
0078
001C
E01C
E01C
7038
7FF8
3FF0
0780
ENDCHAR
STARTCHAR char116
ENCODING 116
SWIDTH 25 0
DWIDTH 9 0
BBX 7 22 1 -1
BITMAP
38
38
38
38
FE
FE
38
38
38
38
38
38
38
38
38
38
38
38
38
3E
3E
1E
ENDCHAR
STARTCHAR char117
ENCODING 117
SWIDTH 19 0
DWIDTH 17 0
BBX 13 18 2 -1
BITMAP
E018
E018
E018
E018
E018
E018
E018
E018
E018
E018
E018
E038
E038
E038
E078
7FD8
7F98
0E00
ENDCHAR
STARTCHAR char118
ENCODING 118
SWIDTH 16 0
DWIDTH 16 0
BBX 15 17 0 0
BITMAP
E00E
700E
700E
701C
381C
381C
1838
1C38
1C30
0C70
0E70
0E60
06E0
07C0
07C0
03C0
0380
ENDCHAR
STARTCHAR char119
ENCODING 119
SWIDTH 7 0
DWIDTH 23 0
BBX 23 17 0 0
BITMAP
E0380E
70381C
707C1C
707C1C
306C1C
386C38
38EE38
38EE38
18C630
1CC770
1DC770
0DC760
0D8360
0F83E0
0F83E0
0783C0
0701C0
ENDCHAR
STARTCHAR char120
ENCODING 120
SWIDTH 13 0
DWIDTH 15 0
BBX 14 17 1 0
BITMAP
E01C
F038
7070
3860
1CE0
1DC0
0F80
0780
0700
0F80
0FC0
1DC0
38E0
3870
7070
E038
E03C
ENDCHAR
STARTCHAR char121
ENCODING 121
SWIDTH 13 0
DWIDTH 15 0
BBX 15 24 0 -7
BITMAP
E00E
700E
701C
701C
3818
3838
3838
1C70
1C70
1C70
0EE0
0EE0
0EC0
07C0
07C0
0780
0380
0380
0700
0700
0700
7E00
7C00
7800
ENDCHAR
STARTCHAR char122
ENCODING 122
SWIDTH 16 0
DWIDTH 16 0
BBX 14 17 1 0
BITMAP
7FF8
7FF8
7FF8
0070
00F0
00E0
01C0
0380
0700
0E00
1E00
1C00
3800
7000
E000
FFFC
FFFC
ENDCHAR
STARTCHAR char123
ENCODING 123
SWIDTH 2 0
DWIDTH 11 0
BBX 8 30 1 -7
BITMAP
0F
1F
1C
18
18
18
18
18
18
18
18
18
38
70
E0
F0
38
38
18
18
18
18
18
18
18
18
18
1E
0F
07
ENDCHAR
STARTCHAR char124
ENCODING 124
SWIDTH 22 0
DWIDTH 8 0
BBX 2 30 3 -7
BITMAP
C0
C0
C0
C0
C0
C0
C0
C0
C0
C0
C0
C0
C0
C0
C0
C0
C0
C0
C0
C0
C0
C0
C0
C0
C0
C0
C0
C0
C0
C0
ENDCHAR
STARTCHAR char125
ENCODING 125
SWIDTH 2 0
DWIDTH 11 0
BBX 7 30 2 -7
BITMAP
F0
F0
38
38
38
38
38
38
38
38
38
18
18
1E
06
0E
1C
18
38
38
38
38
38
38
38
38
38
78
F0
E0
ENDCHAR
STARTCHAR char126
ENCODING 126
SWIDTH 16 0
DWIDTH 16 0
BBX 14 5 1 9
BITMAP
3800
7E0C
E78C
C3FC
C0F8
ENDCHAR
STARTCHAR char160
ENCODING 160
SWIDTH 25 0
DWIDTH 9 0
BBX 0 0 0 0
BITMAP
ENDCHAR
STARTCHAR char161
ENCODING 161
SWIDTH 2 0
DWIDTH 11 0
BBX 3 23 4 -6
BITMAP
E0
E0
E0
00
00
40
C0
C0
C0
C0
C0
C0
E0
E0
E0
E0
E0
E0
E0
E0
E0
E0
E0
ENDCHAR
STARTCHAR char162
ENCODING 162
SWIDTH 22 0
DWIDTH 18 0
BBX 14 24 2 -4
BITMAP
0100
0100
0100
0FE0
1FF0
3D78
713C
E11C
E11C
E100
E100
C100
C100
E100
E10C
E11C
711C
7938
3FF8
1FF0
07C0
0100
0100
0100
ENDCHAR
STARTCHAR char163
ENCODING 163
SWIDTH 22 0
DWIDTH 18 0
BBX 16 24 1 -1
BITMAP
07F0
1FF8
3C3C
781E
700E
700E
7006
7000
7000
3800
3800
FFE0
FFE0
0E00
0E00
0E00
0E00
0C00
1800
3000
7FC2
FFFF
71FF
0038
ENDCHAR
STARTCHAR char164
ENCODING 164
SWIDTH 22 0
DWIDTH 18 0
BBX 13 12 3 5
BITMAP
CE30
FFF8
7FF0
F0E0
E070
C070
C070
E070
E0E0
7FE0
FFF0
DF30
ENDCHAR
STARTCHAR char165
ENCODING 165
SWIDTH 22 0
DWIDTH 18 0
BBX 17 23 0 0
BITMAP
E00180
700380
300700
380700
180E00
1C0E00
0E1C00
0E1800
073800
033000
03F000
01E000
3FFF00
00C000
00C000
00C000
3FFF00
00C000
00C000
00C000
00C000
00C000
00C000
ENDCHAR
STARTCHAR char166
ENCODING 166
SWIDTH 22 0
DWIDTH 8 0
BBX 2 30 3 -7
BITMAP
C0
C0
C0
C0
C0
C0
C0
C0
C0
C0
C0
C0
C0
00
00
00
00
C0
C0
C0
C0
C0
C0
C0
C0
C0
C0
C0
C0
C0
ENDCHAR
STARTCHAR char167
ENCODING 167
SWIDTH 22 0
DWIDTH 18 0
BBX 15 30 1 -7
BITMAP
07E0
0FF8
1E38
1C1C
381C
381C
1C00
1E00
1F80
3FC0
71F0
60F8
E03C
E01E
700E
7806
3C06
1F0E
0F8C
07FC
01F0
00F0
0038
7038
3018
3838
3838
3FF0
1FE0
0780
ENDCHAR
STARTCHAR char168
ENCODING 168
SWIDTH 2 0
DWIDTH 11 0
BBX 9 3 1 20
BITMAP
E380
E380
E380
ENDCHAR
STARTCHAR char169
ENCODING 169
SWIDTH 16 0
DWIDTH 26 0
BBX 23 23 1 0
BITMAP
003C00
01FF80
0781E0
0E0070
1C0038
387E18
70FF0C
61C38E
638186
C30186
C30006
C30006
C30006
C30006
6301C6
630186
61838C
31FF0C
38FF18
1C3838
0F00F0
07EFC0
01FF80
ENDCHAR
STARTCHAR char170
ENCODING 170
SWIDTH 5 0
DWIDTH 12 0
BBX 10 14 1 10
BITMAP
1E00
7F00
6380
6180
0380
3F80
7180
C180
C380
FF80
7DC0
0000
0000
FF80
ENDCHAR
STARTCHAR char171
ENCODING 171
SWIDTH 16 0
DWIDTH 16 0
BBX 12 10 2 3
BITMAP
0810
1830
3870
71E0
E180
C180
E1C0
78E0
3870
0830
ENDCHAR
STARTCHAR char172
ENCODING 172
SWIDTH 24 0
DWIDTH 19 0
BBX 16 9 1 3
BITMAP
FFFF
FFFF
0003
0003
0003
0003
0003
0003
0003
ENDCHAR
STARTCHAR char173
ENCODING 173
SWIDTH 2 0
DWIDTH 11 0
BBX 8 2 1 8
BITMAP
FF
FF
ENDCHAR
STARTCHAR char174
ENCODING 174
SWIDTH 16 0
DWIDTH 26 0
BBX 23 23 1 0
BITMAP
003C00
01FF80
0781E0
0E0070
1C0038
3BFE18
73FF0C
63838E
638186
C38186
C38186
C3FF06
C3FF06
C38386
638186
638186
63818C
33818C
3B81D8
1C0038
0F00F0
07EFC0
01FF80
ENDCHAR
STARTCHAR char175
ENCODING 175
SWIDTH 2 0
DWIDTH 11 0
BBX 9 2 1 20
BITMAP
FF80
FF80
ENDCHAR
STARTCHAR char176
ENCODING 176
SWIDTH 24 0
DWIDTH 19 0
BBX 10 10 5 12
BITMAP
1E00
7F00
E380
C180
C0C0
C080
C180
6380
7F00
1C00
ENDCHAR
STARTCHAR char177
ENCODING 177
SWIDTH 24 0
DWIDTH 19 0
BBX 15 21 2 -1
BITMAP
0300
0300
0300
0300
0300
0300
FFFE
FFFE
FFFE
0300
0300
0300
0300
0300
0300
0000
0000
0000
FFFE
FFFE
FFFE
ENDCHAR
STARTCHAR char178
ENCODING 178
SWIDTH 2 0
DWIDTH 11 0
BBX 9 14 1 12
BITMAP
3E00
7F80
E180
C180
C180
0180
0380
0E00
3C00
7000
E000
C000
FF80
FF80
ENDCHAR
STARTCHAR char179
ENCODING 179
SWIDTH 2 0
DWIDTH 11 0
BBX 9 14 1 12
BITMAP
3E00
7F00
C380
C180
0180
0700
1E00
0380
0180
C180
C180
C180
7F00
3E00
ENDCHAR
STARTCHAR char180
ENCODING 180
SWIDTH 2 0
DWIDTH 11 0
BBX 6 5 3 19
BITMAP
1C
38
30
60
C0
ENDCHAR
STARTCHAR char181
ENCODING 181
SWIDTH 22 0
DWIDTH 18 0
BBX 15 24 2 -7
BITMAP
E018
E018
E018
E018
E018
E018
E018
E018
E018
E018
E018
E018
E038
E038
F078
FFFE
FFDE
EF0E
E000
E000
E000
E000
E000
E000
ENDCHAR
STARTCHAR char182
ENCODING 182
SWIDTH 19 0
DWIDTH 17 0
BBX 15 29 2 -6
BITMAP
1FFE
3FFE
7F18
FF18
FF18
FF18
FF18
FF18
FF18
FF18
FF18
7F18
7F18
3F18
0718
0318
0318
0318
0318
0318
0318
0318
0318
0318
0318
0318
0318
0318
0318
ENDCHAR
STARTCHAR char183
ENCODING 183
SWIDTH 22 0
DWIDTH 8 0
BBX 3 4 3 7
BITMAP
E0
E0
E0
E0
ENDCHAR
STARTCHAR char184
ENCODING 184
SWIDTH 2 0
DWIDTH 11 0
BBX 8 7 1 -7
BITMAP
08
08
1F
03
03
FF
3C
ENDCHAR
STARTCHAR char185
ENCODING 185
SWIDTH 2 0
DWIDTH 11 0
BBX 5 14 2 12
BITMAP
08
18
78
F8
18
18
18
18
18
18
18
18
18
18
ENDCHAR
STARTCHAR char186
ENCODING 186
SWIDTH 5 0
DWIDTH 12 0
BBX 9 14 1 10
BITMAP
0C00
3F00
6380
6180
C180
C080
C180
C180
6180
7F00
3E00
0000
0000
7F80
ENDCHAR
STARTCHAR char187
ENCODING 187
SWIDTH 16 0
DWIDTH 16 0
BBX 12 10 2 4
BITMAP
C100
E1C0
71E0
3870
1830
1870
78E0
E1C0
C180
8100
ENDCHAR
STARTCHAR char188
ENCODING 188
SWIDTH 21 0
DWIDTH 28 0
BBX 25 24 2 -1
BITMAP
18003000
18003000
F8006000
F8004000
1800C000
18018000
18018000
18030000
18060000
18060600
180C0600
180C0E00
18181E00
00303600
00303600
00606600
0040C600
00C18600
0181FF80
0181FF80
03000600
06000600
06000600
0C000000
ENDCHAR
STARTCHAR char189
ENCODING 189
SWIDTH 21 0
DWIDTH 28 0
BBX 25 24 2 -1
BITMAP
18003000
18006000
F800C000
F800C000
18018000
18010000
18030000
18060000
18060000
180C0800
18187F00
1818E380
1830C180
0030C180
00600180
00C00300
00C00F00
01803C00
01007000
0300E000
0600C000
0601FF80
0C01FF80
18000000
ENDCHAR
STARTCHAR char190
ENCODING 190
SWIDTH 21 0
DWIDTH 28 0
BBX 26 24 1 -1
BITMAP
7F001800
63801800
C1803000
C1806000
01806000
0F00C000
0F00C000
01818000
01C30000
C0C30300
C1860700
E3840700
7F0C0F00
18181B00
00183300
00306300
00606300
0060C300
00C0FFC0
0080FFC0
01800300
03000300
03000300
06000000
ENDCHAR
STARTCHAR char191
ENCODING 191
SWIDTH 22 0
DWIDTH 18 0
BBX 14 24 3 -7
BITMAP
0380
0380
0380
0000
0000
0000
0380
0380
0380
0700
0700
0E00
1C00
3800
7000
F000
E01C
E01C
E01C
E038
7038
7FF0
3FE0
0700
ENDCHAR
STARTCHAR char192
ENCODING 192
SWIDTH 2 0
DWIDTH 21 0
BBX 20 29 1 0
BITMAP
038000
01C000
00E000
007000
000000
000000
01F000
01F000
01F800
03B800
03B800
039C00
071C00
071C00
070E00
0E0E00
0E0E00
0E0700
1C0700
1FFF80
3FFF80
3FFF80
3803C0
7801C0
7001C0
7001E0
F000E0
E000E0
E000F0
ENDCHAR
STARTCHAR char193
ENCODING 193
SWIDTH 2 0
DWIDTH 21 0
BBX 20 29 1 0
BITMAP
001E00
003800
007000
00E000
000000
000000
01F000
01F000
01F800
03B800
03B800
039C00
071C00
071C00
070E00
0E0E00
0E0E00
0E0700
1C0700
1FFF80
3FFF80
3FFF80
3803C0
7801C0
7001C0
7001E0
F000E0
E000E0
E000F0
ENDCHAR
STARTCHAR char194
ENCODING 194
SWIDTH 2 0
DWIDTH 21 0
BBX 20 29 1 0
BITMAP
00E000
01F000
03B800
031C00
000000
000000
01F000
01F000
01F800
03B800
03B800
039C00
071C00
071C00
070E00
0E0E00
0E0E00
0E0700
1C0700
1FFF80
3FFF80
3FFF80
3803C0
7801C0
7001C0
7001E0
F000E0
E000E0
E000F0
ENDCHAR
STARTCHAR char195
ENCODING 195
SWIDTH 2 0
DWIDTH 21 0
BBX 20 28 1 0
BITMAP
03EE00
07FC00
063800
000000
000000
01F000
01F000
01F800
03B800
03B800
039C00
071C00
071C00
070E00
0E0E00
0E0E00
0E0700
1C0700
1FFF80
3FFF80
3FFF80
3803C0
7801C0
7001C0
7001E0
F000E0
E000E0
E000F0
ENDCHAR
STARTCHAR char196
ENCODING 196
SWIDTH 2 0
DWIDTH 21 0
BBX 20 28 1 0
BITMAP
079C00
079C00
079C00
000000
000000
01F000
01F000
01F800
03B800
03B800
039C00
071C00
071C00
070E00
0E0E00
0E0E00
0E0700
1C0700
1FFF80
3FFF80
3FFF80
3803C0
7801C0
7001C0
7001E0
F000E0
E000E0
E000F0
ENDCHAR
STARTCHAR char197
ENCODING 197
SWIDTH 2 0
DWIDTH 21 0
BBX 20 31 1 0
BITMAP
00E000
01F000
039800
031800
039800
01F000
00E000
000000
01F000
01F000
01F800
03B800
03B800
039C00
071C00
071C00
070E00
0E0E00
0E0E00
0E0700
1C0700
1FFF80
3FFF80
3FFF80
3803C0
7801C0
7001C0
7001E0
F000E0
E000E0
E000F0
ENDCHAR
STARTCHAR char198
ENCODING 198
SWIDTH 1 0
DWIDTH 31 0
BBX 30 23 1 0
BITMAP
007FFFF8
00FFFFF8
00E38000
01C38000
01C38000
01C38000
03838000
03838000
07038000
07038000
0703FFF0
0E03FFF0
0E038000
1E038000
1FFF8000
1FFF8000
38038000
38038000
78038000
70038000
F003FFFC
E003FFFC
E003FFFC
ENDCHAR
STARTCHAR char199
ENCODING 199
SWIDTH 7 0
DWIDTH 23 0
BBX 20 31 1 -7
BITMAP
007800
03FF00
0FFF80
1F03C0
3C01E0
3800E0
7800F0
700070
700000
700000
E00000
E00000
E00000
E00000
E00000
700070
700070
700070
7800F0
3800E0
3C01E0
1F03C0
0FFF80
07FF00
00F800
006000
007800
001C00
001C00
03B800
00F000
ENDCHAR
STARTCHAR char200
ENCODING 200
SWIDTH 27 0
DWIDTH 20 0
BBX 16 29 3 0
BITMAP
0F00
0780
0380
00C0
0000
0000
FFFF
FFFF
E000
E000
E000
E000
E000
E000
E000
E000
FFFE
FFFE
E000
E000
E000
E000
E000
E000
E000
E000
FFFF
FFFF
FFFF
ENDCHAR
STARTCHAR char201
ENCODING 201
SWIDTH 27 0
DWIDTH 20 0
BBX 16 29 3 0
BITMAP
00F0
01C0
0380
0700
0000
0000
FFFF
FFFF
E000
E000
E000
E000
E000
E000
E000
E000
FFFE
FFFE
E000
E000
E000
E000
E000
E000
E000
E000
FFFF
FFFF
FFFF
ENDCHAR
STARTCHAR char202
ENCODING 202
SWIDTH 27 0
DWIDTH 20 0
BBX 16 29 3 0
BITMAP
0380
07C0
0EE0
0C70
0000
0000
FFFF
FFFF
E000
E000
E000
E000
E000
E000
E000
E000
FFFE
FFFE
E000
E000
E000
E000
E000
E000
E000
E000
FFFF
FFFF
FFFF
ENDCHAR
STARTCHAR char203
ENCODING 203
SWIDTH 27 0
DWIDTH 20 0
BBX 16 28 3 0
BITMAP
1E70
1E70
1E70
0000
0000
FFFF
FFFF
E000
E000
E000
E000
E000
E000
E000
E000
FFFE
FFFE
E000
E000
E000
E000
E000
E000
E000
E000
FFFF
FFFF
FFFF
ENDCHAR
STARTCHAR char204
ENCODING 204
SWIDTH 25 0
DWIDTH 9 0
BBX 7 29 0 0
BITMAP
F0
38
1C
0E
00
00
1C
1C
1C
1C
1C
1C
1C
1C
1C
1C
1C
1C
1C
1C
1C
1C
1C
1C
1C
1C
1C
1C
1C
ENDCHAR
STARTCHAR char205
ENCODING 205
SWIDTH 25 0
DWIDTH 9 0
BBX 7 29 2 0
BITMAP
1E
38
70
E0
00
00
70
70
70
70
70
70
70
70
70
70
70
70
70
70
70
70
70
70
70
70
70
70
70
ENDCHAR
STARTCHAR char206
ENCODING 206
SWIDTH 28 0
DWIDTH 10 0
BBX 8 29 1 0
BITMAP
3C
7C
7E
C3
00
00
38
38
38
38
38
38
38
38
38
38
38
38
38
38
38
38
38
38
38
38
38
38
38
ENDCHAR
STARTCHAR char207
ENCODING 207
SWIDTH 28 0
DWIDTH 10 0
BBX 9 28 0 0
BITMAP
F380
F380
F380
0000
0000
1C00
1C00
1C00
1C00
1C00
1C00
1C00
1C00
1C00
1C00
1C00
1C00
1C00
1C00
1C00
1C00
1C00
1C00
1C00
1C00
1C00
1C00
1C00
ENDCHAR
STARTCHAR char208
ENCODING 208
SWIDTH 7 0
DWIDTH 23 0
BBX 20 23 1 0
BITMAP
3FFE00
3FFF80
380FC0
3803C0
3801E0
3800E0
380070
380070
380070
380070
FFC070
FFC070
380070
380070
380070
380070
3800F0
3800E0
3801E0
3803C0
3FFF80
3FFF00
3FFC00
ENDCHAR
STARTCHAR char209
ENCODING 209
SWIDTH 7 0
DWIDTH 23 0
BBX 18 28 3 0
BITMAP
070C00
0FF800
0DF800
000000
000000
E001C0
F001C0
F801C0
F801C0
DC01C0
DE01C0
CE01C0
C701C0
C701C0
C381C0
C3C1C0
C1C1C0
C0E1C0
C0F1C0
C071C0
C039C0
C03DC0
C01DC0
C00FC0
C00FC0
C007C0
C007C0
C003C0
ENDCHAR
STARTCHAR char210
ENCODING 210
SWIDTH 13 0
DWIDTH 25 0
BBX 23 30 1 -1
BITMAP
01E000
00F000
003800
001800
000400
007C00
03FF80
07FFC0
0F01F0
1E00F0
3C0078
78003C
70001C
70001C
70001E
E0000E
E0000E
E0000E
E0000E
E0000E
70001E
70001C
70001C
78003C
3C0038
1E00F0
1F01F0
07FFC0
03FF80
007C00
ENDCHAR
STARTCHAR char211
ENCODING 211
SWIDTH 13 0
DWIDTH 25 0
BBX 23 30 1 -1
BITMAP
000F00
001E00
001C00
003000
000000
007C00
03FF80
07FFC0
0F01F0
1E00F0
3C0078
78003C
70001C
70001C
70001E
E0000E
E0000E
E0000E
E0000E
E0000E
70001E
70001C
70001C
78003C
3C0038
1E00F0
1F01F0
07FFC0
03FF80
007C00
ENDCHAR
STARTCHAR char212
ENCODING 212
SWIDTH 13 0
DWIDTH 25 0
BBX 23 30 1 -1
BITMAP
003800
007C00
00EE00
00C700
010000
007C00
03FF80
07FFC0
0F01F0
1E00F0
3C0078
78003C
70001C
70001C
70001E
E0000E
E0000E
E0000E
E0000E
E0000E
70001E
70001C
70001C
78003C
3C0038
1E00F0
1F01F0
07FFC0
03FF80
007C00
ENDCHAR
STARTCHAR char213
ENCODING 213
SWIDTH 13 0
DWIDTH 25 0
BBX 23 29 1 -1
BITMAP
00F300
01FF00
019E00
000000
007C00
03FF80
07FFC0
0F01F0
1E00F0
3C0078
78003C
70001C
70001C
70001E
E0000E
E0000E
E0000E
E0000E
E0000E
70001E
70001C
70001C
78003C
3C0038
1E00F0
1F01F0
07FFC0
03FF80
007C00
ENDCHAR
STARTCHAR char214
ENCODING 214
SWIDTH 13 0
DWIDTH 25 0
BBX 23 29 1 -1
BITMAP
01C700
01C700
01C700
000000
007C00
03FF80
07FFC0
0F01F0
1E00F0
3C0078
78003C
70001C
70001C
70001E
E0000E
E0000E
E0000E
E0000E
E0000E
70001E
70001C
70001C
78003C
3C0038
1E00F0
1F01F0
07FFC0
03FF80
007C00
ENDCHAR
STARTCHAR char215
ENCODING 215
SWIDTH 24 0
DWIDTH 19 0
BBX 12 12 3 2
BITMAP
6030
7070
38E0
1DC0
0F80
0700
0F80
1DC0
38E0
7070
E030
4000
ENDCHAR
STARTCHAR char216
ENCODING 216
SWIDTH 13 0
DWIDTH 25 0
BBX 23 25 1 -1
BITMAP
007C04
03FF8E
07FFDC
0F01F8
1E00F0
3C00F8
7800FC
70019C
70031C
70061E
E00C0E
E0180E
E0300E
E0700E
E0E00E
71C01E
73801C
73001C
7E003C
3C0078
1E00F0
3F01F0
67FFC0
C3FF80
007C00
ENDCHAR
STARTCHAR char217
ENCODING 217
SWIDTH 7 0
DWIDTH 23 0
BBX 17 30 3 -1
BITMAP
0F0000
038000
01C000
00E000
000000
000000
E00380
E00380
E00380
E00380
E00380
E00380
E00380
E00380
E00380
E00380
E00380
E00380
E00380
E00380
E00380
E00380
E00380
E00380
E00380
F00780
780F00
3FFE00
1FFC00
03E000
ENDCHAR
STARTCHAR char218
ENCODING 218
SWIDTH 7 0
DWIDTH 23 0
BBX 17 30 3 -1
BITMAP
007800
00F000
01C000
018000
020000
000000
E00380
E00380
E00380
E00380
E00380
E00380
E00380
E00380
E00380
E00380
E00380
E00380
E00380
E00380
E00380
E00380
E00380
E00380
E00380
F00780
780F00
3FFE00
1FFC00
03E000
ENDCHAR
STARTCHAR char219
ENCODING 219
SWIDTH 7 0
DWIDTH 23 0
BBX 17 30 3 -1
BITMAP
01C000
03E000
077000
063800
000000
000000
E00380
E00380
E00380
E00380
E00380
E00380
E00380
E00380
E00380
E00380
E00380
E00380
E00380
E00380
E00380
E00380
E00380
E00380
E00380
F00780
780F00
3FFE00
1FFC00
03E000
ENDCHAR
STARTCHAR char220
ENCODING 220
SWIDTH 7 0
DWIDTH 23 0
BBX 17 29 3 -1
BITMAP
0F3800
0F3800
0F3800
000000
000000
E00380
E00380
E00380
E00380
E00380
E00380
E00380
E00380
E00380
E00380
E00380
E00380
E00380
E00380
E00380
E00380
E00380
E00380
E00380
F00780
780F00
3FFE00
1FFC00
03E000
ENDCHAR
STARTCHAR char221
ENCODING 221
SWIDTH 4 0
DWIDTH 22 0
BBX 20 29 1 0
BITMAP
003C00
003800
007000
00C000
000000
000000
F000F0
7000E0
7801C0
3803C0
1C0380
1E0780
0E0700
0F0E00
079E00
039C00
03FC00
01F800
00F000
00F000
00E000
00E000
00E000
00E000
00E000
00E000
00E000
00E000
00E000
ENDCHAR
STARTCHAR char222
ENCODING 222
SWIDTH 2 0
DWIDTH 21 0
BBX 16 23 3 0
BITMAP
E000
E000
E000
E000
FFF8
FFFE
E01E
E00F
E007
E007
E007
E007
E007
E00F
FFFE
FFFC
FFF0
E000
E000
E000
E000
E000
E000
ENDCHAR
STARTCHAR char223
ENCODING 223
SWIDTH 24 0
DWIDTH 19 0
BBX 15 24 3 -1
BITMAP
1FE0
7FF0
F878
E038
E01C
C01C
C01C
C038
C078
C3F0
C3F0
C3F8
C03C
C01C
C00E
C00E
C00E
C00E
C01C
C01C
C03C
C7F8
C7F0
03C0
ENDCHAR
STARTCHAR char224
ENCODING 224
SWIDTH 19 0
DWIDTH 17 0
BBX 16 25 1 -1
BITMAP
1E00
0F00
0700
0380
0180
0000
0000
1FE0
3FF8
7878
701C
701C
001C
001C
01FC
3FFC
7F1C
F01C
E01C
E01C
E03C
E07C
7FFF
3FDF
0E06
ENDCHAR
STARTCHAR char225
ENCODING 225
SWIDTH 19 0
DWIDTH 17 0
BBX 16 25 1 -1
BITMAP
00E0
01C0
0180
0300
0600
0000
0000
1FE0
3FF8
7878
701C
701C
001C
001C
01FC
3FFC
7F1C
F01C
E01C
E01C
E03C
E07C
7FFF
3FDF
0E06
ENDCHAR
STARTCHAR char226
ENCODING 226
SWIDTH 19 0
DWIDTH 17 0
BBX 16 24 1 -1
BITMAP
03C0
07C0
0660
0C30
1830
0000
1FE0
3FF8
7878
701C
701C
001C
001C
01FC
3FFC
7F1C
F01C
E01C
E01C
E03C
E07C
7FFF
3FDF
0E06
ENDCHAR
STARTCHAR char227
ENCODING 227
SWIDTH 19 0
DWIDTH 17 0
BBX 16 24 1 -1
BITMAP
0618
0FF8
1FF0
1860
0000
0000
1FE0
3FF8
7878
701C
701C
001C
001C
01FC
3FFC
7F1C
F01C
E01C
E01C
E03C
E07C
7FFF
3FDF
0E06
ENDCHAR
STARTCHAR char228
ENCODING 228
SWIDTH 19 0
DWIDTH 17 0
BBX 16 24 1 -1
BITMAP
1E70
1E70
1E70
0000
0000
0000
1FE0
3FF8
7878
701C
701C
001C
001C
01FC
3FFC
7F1C
F01C
E01C
E01C
E03C
E07C
7FFF
3FDF
0E06
ENDCHAR
STARTCHAR char229
ENCODING 229
SWIDTH 19 0
DWIDTH 17 0
BBX 16 26 1 -1
BITMAP
0180
07C0
06E0
0C60
0660
07E0
03C0
0000
1FE0
3FF8
7878
701C
701C
001C
001C
01FC
3FFC
7F1C
F01C
E01C
E01C
E03C
E07C
7FFF
3FDF
0E06
ENDCHAR
STARTCHAR char230
ENCODING 230
SWIDTH 21 0
DWIDTH 28 0
BBX 26 18 1 -1
BITMAP
1FE1FC00
3FF3FE00
787F8F00
701E0380
701C0380
001C01C0
001C01C0
03FFFFC0
1FFFFFC0
7F1FFFC0
F01C0000
E01C0000
E01C0180
E03E0380
E07F0780
7FE7FF00
3FC3FE00
0E00F000
ENDCHAR
STARTCHAR char231
ENCODING 231
SWIDTH 16 0
DWIDTH 16 0
BBX 14 24 1 -7
BITMAP
0FE0
1FF0
3C78
703C
701C
E01C
E000
E000
E000
E000
E000
E01C
E01C
701C
7838
3FF8
1FF0
03C0
0200
07C0
00C0
00C0
1FC0
0F80
ENDCHAR
STARTCHAR char232
ENCODING 232
SWIDTH 19 0
DWIDTH 17 0
BBX 15 25 1 -1
BITMAP
1E00
0F00
0700
0380
01C0
0000
0000
0FE0
1FF8
3C78
701C
700C
E00E
E00E
FFFE
FFFE
FFFE
E000
E000
E00E
701C
783C
3FF8
1FF0
0380
ENDCHAR
STARTCHAR char233
ENCODING 233
SWIDTH 19 0
DWIDTH 17 0
BBX 15 25 1 -1
BITMAP
00F0
00E0
01C0
0380
0300
0000
0000
0FE0
1FF8
3C78
701C
700C
E00E
E00E
FFFE
FFFE
FFFE
E000
E000
E00E
701C
783C
3FF8
1FF0
0380
ENDCHAR
STARTCHAR char234
ENCODING 234
SWIDTH 19 0
DWIDTH 17 0
BBX 15 24 1 -1
BITMAP
03C0
07C0
0660
0C30
1830
0000
0FE0
1FF8
3C78
701C
700C
E00E
E00E
FFFE
FFFE
FFFE
E000
E000
E00E
701C
783C
3FF8
1FF0
0380
ENDCHAR
STARTCHAR char235
ENCODING 235
SWIDTH 19 0
DWIDTH 17 0
BBX 15 24 1 -1
BITMAP
1E70
1E70
1E70
0000
0000
0000
0FE0
1FF8
3C78
701C
700C
E00E
E00E
FFFE
FFFE
FFFE
E000
E000
E00E
701C
783C
3FF8
1FF0
0380
ENDCHAR
STARTCHAR char236
ENCODING 236
SWIDTH 19 0
DWIDTH 7 0
BBX 6 24 0 0
BITMAP
F0
70
38
1C
0C
00
00
38
38
38
38
38
38
38
38
38
38
38
38
38
38
38
38
38
ENDCHAR
STARTCHAR char237
ENCODING 237
SWIDTH 19 0
DWIDTH 7 0
BBX 6 24 1 0
BITMAP
3C
38
70
E0
C0
00
00
70
70
70
70
70
70
70
70
70
70
70
70
70
70
70
70
70
ENDCHAR
STARTCHAR char238
ENCODING 238
SWIDTH 22 0
DWIDTH 8 0
BBX 9 23 0 0
BITMAP
3C00
3E00
6600
E300
C180
0000
1C00
1C00
1C00
1C00
1C00
1C00
1C00
1C00
1C00
1C00
1C00
1C00
1C00
1C00
1C00
1C00
1C00
ENDCHAR
STARTCHAR char239
ENCODING 239
SWIDTH 22 0
DWIDTH 8 0
BBX 9 23 0 0
BITMAP
E780
E780
E780
0000
0000
0000
1C00
1C00
1C00
1C00
1C00
1C00
1C00
1C00
1C00
1C00
1C00
1C00
1C00
1C00
1C00
1C00
1C00
ENDCHAR
STARTCHAR char240
ENCODING 240
SWIDTH 19 0
DWIDTH 17 0
BBX 15 25 1 -1
BITMAP
1000
38C0
1FE0
0F00
3FC0
21E0
00F0
0FF0
1FF8
3C7C
701C
701C
E00E
E00E
E00E
E00E
E00E
E00E
E00E
E00E
701C
783C
3FF8
1FF0
07C0
ENDCHAR
STARTCHAR char241
ENCODING 241
SWIDTH 19 0
DWIDTH 17 0
BBX 13 23 2 0
BITMAP
0830
1F70
3FE0
30C0
0000
0000
C7E0
CFF0
D878
F038
E018
E018
E018
E018
E018
E018
E018
E018
E018
E018
E018
E018
E018
ENDCHAR
STARTCHAR char242
ENCODING 242
SWIDTH 19 0
DWIDTH 17 0
BBX 15 25 1 -1
BITMAP
1E00
0F00
0700
0380
01C0
0000
0000
0FE0
1FF8
3C78
701C
701C
E00E
E00E
E00E
E00E
E00E
E00E
E00E
E00E
701C
783C
3FF8
1FF0
0380
ENDCHAR
STARTCHAR char243
ENCODING 243
SWIDTH 19 0
DWIDTH 17 0
BBX 15 25 1 -1
BITMAP
00F0
01E0
01C0
0380
0700
0000
0000
0FE0
1FF8
3C78
701C
701C
E00E
E00E
E00E
E00E
E00E
E00E
E00E
E00E
701C
783C
3FF8
1FF0
0380
ENDCHAR
STARTCHAR char244
ENCODING 244
SWIDTH 19 0
DWIDTH 17 0
BBX 15 24 1 -1
BITMAP
07C0
06C0
0EE0
1C60
0010
0000
0FE0
1FF8
3C78
701C
701C
E00E
E00E
E00E
E00E
E00E
E00E
E00E
E00E
701C
783C
3FF8
1FF0
0380
ENDCHAR
STARTCHAR char245
ENCODING 245
SWIDTH 19 0
DWIDTH 17 0
BBX 15 24 1 -1
BITMAP
0418
1FF0
1FF0
1860
0000
0000
0FE0
1FF8
3C78
701C
701C
E00E
E00E
E00E
E00E
E00E
E00E
E00E
E00E
701C
783C
3FF8
1FF0
0380
ENDCHAR
STARTCHAR char246
ENCODING 246
SWIDTH 19 0
DWIDTH 17 0
BBX 15 24 1 -1
BITMAP
1C70
1C70
1C70
0000
0000
0000
0FE0
1FF8
3C78
701C
701C
E00E
E00E
E00E
E00E
E00E
E00E
E00E
E00E
701C
783C
3FF8
1FF0
0380
ENDCHAR
STARTCHAR char247
ENCODING 247
SWIDTH 24 0
DWIDTH 19 0
BBX 15 15 2 0
BITMAP
0380
0380
0380
0000
0000
0000
FFFE
FFFE
FFFE
0000
0000
0000
0380
0380
0380
ENDCHAR
STARTCHAR char248
ENCODING 248
SWIDTH 19 0
DWIDTH 17 0
BBX 16 18 1 -1
BITMAP
0FE3
1FF6
3C7C
701C
703C
E02E
E06E
E0CE
E18E
E30E
E60E
EC0E
F80E
701C
783C
7FF8
DFF0
8380
ENDCHAR
STARTCHAR char249
ENCODING 249
SWIDTH 19 0
DWIDTH 17 0
BBX 13 25 2 -1
BITMAP
3C00
1C00
0E00
0700
0300
0000
0000
E018
E018
E018
E018
E018
E018
E018
E018
E018
E018
E018
E038
E038
E038
E078
7FD8
7F98
0E00
ENDCHAR
STARTCHAR char250
ENCODING 250
SWIDTH 19 0
DWIDTH 17 0
BBX 13 25 2 -1
BITMAP
00E0
01C0
0380
0300
0600
0000
0000
E018
E018
E018
E018
E018
E018
E018
E018
E018
E018
E018
E038
E038
E038
E078
7FD8
7F98
0E00
ENDCHAR
STARTCHAR char251
ENCODING 251
SWIDTH 19 0
DWIDTH 17 0
BBX 13 24 2 -1
BITMAP
0780
0F80
1CC0
18E0
2000
0000
E018
E018
E018
E018
E018
E018
E018
E018
E018
E018
E018
E038
E038
E038
E078
7FD8
7F98
0E00
ENDCHAR
STARTCHAR char252
ENCODING 252
SWIDTH 19 0
DWIDTH 17 0
BBX 13 24 2 -1
BITMAP
38E0
38E0
38E0
0000
0000
0000
E018
E018
E018
E018
E018
E018
E018
E018
E018
E018
E018
E038
E038
E038
E078
7FD8
7F98
0E00
ENDCHAR
STARTCHAR char253
ENCODING 253
SWIDTH 13 0
DWIDTH 15 0
BBX 15 31 0 -7
BITMAP
0070
00E0
01C0
0180
0300
0000
0000
E00E
700E
701C
701C
3818
3838
3838
1C70
1C70
1C70
0EE0
0EE0
0EC0
07C0
07C0
0780
0380
0380
0700
0700
0700
7E00
7C00
7800
ENDCHAR
STARTCHAR char254
ENCODING 254
SWIDTH 22 0
DWIDTH 18 0
BBX 15 30 2 -7
BITMAP
E000
E000
E000
E000
E000
E000
E7E0
FFF0
FCF8
F03C
F01C
E00C
E00E
E00E
E00E
E00E
E00E
E00E
E01C
F01C
F83C
FFF8
EFF0
E3C0
E000
E000
E000
E000
E000
E000
ENDCHAR
STARTCHAR char255
ENCODING 255
SWIDTH 13 0
DWIDTH 15 0
BBX 15 30 0 -7
BITMAP
0E78
0E78
0E78
0000
0000
0000
E00E
700E
701C
701C
3818
3838
3838
1C70
1C70
1C70
0EE0
0EE0
0EC0
07C0
07C0
0780
0380
0380
0700
0700
0700
7E00
7C00
7800
ENDCHAR
STARTCHAR char256
ENCODING 256
SWIDTH 2 0
DWIDTH 21 0
BBX 20 28 1 0
BITMAP
07FC00
07FC00
000000
000000
000000
01F000
01F000
01F800
03B800
03B800
039C00
071C00
071C00
070E00
0E0E00
0E0E00
0E0700
1C0700
1FFF80
3FFF80
3FFF80
3803C0
7801C0
7001C0
7001E0
F000E0
E000E0
E000F0
ENDCHAR
STARTCHAR char257
ENCODING 257
SWIDTH 19 0
DWIDTH 17 0
BBX 16 23 1 -1
BITMAP
1FF0
1FF0
0000
0000
0000
1FE0
3FF8
7878
701C
701C
001C
001C
01FC
3FFC
7F1C
F01C
E01C
E01C
E03C
E07C
7FFF
3FDF
0E06
ENDCHAR
STARTCHAR char258
ENCODING 258
SWIDTH 2 0
DWIDTH 21 0
BBX 20 29 1 0
BITMAP
060600
060C00
03FC00
03F800
000000
000000
01F000
01F000
01F800
03B800
03B800
039C00
071C00
071C00
070E00
0E0E00
0E0E00
0E0700
1C0700
1FFF80
3FFF80
3FFF80
3803C0
7801C0
7001C0
7001E0
F000E0
E000E0
E000F0
ENDCHAR
STARTCHAR char259
ENCODING 259
SWIDTH 19 0
DWIDTH 17 0
BBX 16 24 1 -1
BITMAP
1818
1C70
0FF0
07C0
0000
0000
1FE0
3FF8
7878
701C
701C
001C
001C
01FC
3FFC
7F1C
F01C
E01C
E01C
E03C
E07C
7FFF
3FDF
0E06
ENDCHAR
STARTCHAR char260
ENCODING 260
SWIDTH 2 0
DWIDTH 21 0
BBX 21 30 1 -7
BITMAP
00F000
01F000
01F800
03F800
03B800
039C00
071C00
071C00
070E00
0E0E00
0E0F00
0E0700
1C0700
1FFF80
1FFF80
3FFF80
3803C0
7801C0
7001C0
7001E0
F000E0
E000E0
E000F0
000060
0001C0
000180
000380
000180
0001F8
000020
ENDCHAR
STARTCHAR char261
ENCODING 261
SWIDTH 19 0
DWIDTH 17 0
BBX 18 24 1 -7
BITMAP
1FE000
3FF800
787800
701C00
701C00
001C00
001C00
01FC00
1FFC00
7F1C00
F01C00
E01C00
E01C00
E03C00
E07C00
7FFF00
3FDF00
0E0F00
000C00
001800
001800
001C00
000FC0
000100
ENDCHAR
STARTCHAR char262
ENCODING 262
SWIDTH 7 0
DWIDTH 23 0
BBX 20 30 1 -1
BITMAP
001E00
001C00
003800
006000
000000
007800
03FF00
0FFF80
1F03C0
3C01E0
3800E0
7800F0
700070
700000
700000
E00000
E00000
E00000
E00000
E00000
700070
700070
700070
780070
3800E0
3C01E0
1F03C0
0FFF80
03FF00
00F800
ENDCHAR
STARTCHAR char263
ENCODING 263
SWIDTH 16 0
DWIDTH 16 0
BBX 14 25 1 -1
BITMAP
00F0
01E0
01C0
0380
0700
0000
0000
0FE0
1FF0
3C78
703C
701C
E01C
E000
E000
E000
E000
E000
E01C
E01C
701C
7838
3FF8
1FF0
07C0
ENDCHAR
STARTCHAR char264
ENCODING 264
SWIDTH 7 0
DWIDTH 23 0
BBX 20 30 1 -1
BITMAP
007800
00F800
00FC00
018600
000000
007800
03FF00
0FFF80
1F03C0
3C01E0
3800E0
7800F0
700070
700000
700000
E00000
E00000
E00000
E00000
E00000
700070
700070
700070
780070
3800E0
3C01E0
1F03C0
0FFF80
03FF00
00F800
ENDCHAR
STARTCHAR char265
ENCODING 265
SWIDTH 16 0
DWIDTH 16 0
BBX 14 24 1 -1
BITMAP
0380
07C0
0EC0
0C60
1870
0000
0FE0
1FF0
3C78
703C
701C
E01C
E000
E000
E000
E000
E000
E01C
E01C
701C
7838
3FF8
1FF0
07C0
ENDCHAR
STARTCHAR char266
ENCODING 266
SWIDTH 7 0
DWIDTH 23 0
BBX 20 30 1 -1
BITMAP
003800
003800
003800
003800
000000
007800
03FF00
0FFF80
1F03C0
3C01E0
3800E0
7800F0
700070
700000
700000
E00000
E00000
E00000
E00000
E00000
700070
700070
700070
780070
3800E0
3C01E0
1F03C0
0FFF80
03FF00
00F800
ENDCHAR
STARTCHAR char267
ENCODING 267
SWIDTH 16 0
DWIDTH 16 0
BBX 14 24 1 -1
BITMAP
0380
0380
0380
0000
0000
0000
0FE0
1FF0
3C78
703C
701C
E01C
E000
E000
E000
E000
E000
E01C
E01C
701C
7838
3FF8
1FF0
07C0
ENDCHAR
STARTCHAR char268
ENCODING 268
SWIDTH 7 0
DWIDTH 23 0
BBX 20 30 1 -1
BITMAP
018600
00FC00
007C00
007800
000000
007800
03FF00
0FFF80
1F03C0
3C01E0
3800E0
7800F0
700070
700000
700000
E00000
E00000
E00000
E00000
E00000
700070
700070
700070
780070
3800E0
3C01E0
1F03C0
0FFF80
03FF00
00F800
ENDCHAR
STARTCHAR char269
ENCODING 269
SWIDTH 16 0
DWIDTH 16 0
BBX 14 24 1 -1
BITMAP
1C70
0EE0
06C0
07C0
0000
0000
0FE0
1FF0
3C78
703C
701C
E01C
E000
E000
E000
E000
E000
E01C
E01C
701C
7838
3FF8
1FF0
07C0
ENDCHAR
STARTCHAR char270
ENCODING 270
SWIDTH 4 0
DWIDTH 22 0
BBX 18 29 3 0
BITMAP
0C7000
07E000
07C000
03C000
000000
000000
FFF800
FFFC00
E03E00
E00F00
E00780
E00380
E00380
E001C0
E001C0
E001C0
E001C0
E001C0
E001C0
E001C0
E001C0
E001C0
E00380
E00380
E00700
E00F00
FFFE00
FFFC00
FFF000
ENDCHAR
STARTCHAR char271
ENCODING 271
SWIDTH 4 0
DWIDTH 22 0
BBX 20 25 1 -1
BITMAP
000070
000E70
000E70
000E30
000E60
000E00
000E00
0FCE00
1FFE00
3C7E00
781E00
701E00
E00E00
E00E00
E00E00
E00E00
E00E00
E00E00
E00E00
F00E00
701E00
783E00
3FF600
1FE600
078000
ENDCHAR
STARTCHAR char272
ENCODING 272
SWIDTH 7 0
DWIDTH 23 0
BBX 20 23 1 0
BITMAP
3FFE00
3FFF80
380FC0
3803C0
3801E0
3800E0
380070
380070
380070
380070
FFC070
FFC070
380070
380070
380070
380070
3800F0
3800E0
3801E0
3803C0
3FFF80
3FFF00
3FFC00
ENDCHAR
STARTCHAR char273
ENCODING 273
SWIDTH 22 0
DWIDTH 18 0
BBX 17 24 1 -1
BITMAP
000E00
000E00
01FF80
01FF80
000E00
000E00
0FCE00
1FFE00
3EFE00
783E00
701E00
E00E00
E00E00
E00E00
E00E00
E00E00
E00E00
E00E00
F00E00
701E00
783E00
3FF600
1FE600
078000
ENDCHAR
STARTCHAR char274
ENCODING 274
SWIDTH 27 0
DWIDTH 20 0
BBX 16 28 3 0
BITMAP
0FF0
0FF0
0000
0000
0000
FFFF
FFFF
E000
E000
E000
E000
E000
E000
E000
E000
FFFE
FFFE
E000
E000
E000
E000
E000
E000
E000
E000
FFFF
FFFF
FFFF
ENDCHAR
STARTCHAR char275
ENCODING 275
SWIDTH 19 0
DWIDTH 17 0
BBX 15 23 1 -1
BITMAP
0FF0
0FF0
0000
0000
0000
0FE0
1FF8
3C78
701C
700C
E00E
E00E
FFFE
FFFE
FFFE
E000
E000
E00E
701C
783C
3FF8
1FF0
0380
ENDCHAR
STARTCHAR char276
ENCODING 276
SWIDTH 27 0
DWIDTH 20 0
BBX 16 29 3 0
BITMAP
1818
1C38
0FF0
07E0
0000
0000
FFFF
FFFF
E000
E000
E000
E000
E000
E000
E000
E000
FFFE
FFFE
E000
E000
E000
E000
E000
E000
E000
E000
FFFF
FFFF
FFFF
ENDCHAR
STARTCHAR char277
ENCODING 277
SWIDTH 19 0
DWIDTH 17 0
BBX 15 24 1 -1
BITMAP
1818
1C70
0FF0
07C0
0000
0000
0FE0
1FF8
3C78
701C
700C
E00E
E00E
FFFE
FFFE
FFFE
E000
E000
E00E
701C
783C
3FF8
1FF0
0380
ENDCHAR
STARTCHAR char278
ENCODING 278
SWIDTH 27 0
DWIDTH 20 0
BBX 16 29 3 0
BITMAP
03C0
03C0
03C0
03C0
0000
0000
FFFF
FFFF
E000
E000
E000
E000
E000
E000
E000
E000
FFFE
FFFE
E000
E000
E000
E000
E000
E000
E000
E000
FFFF
FFFF
FFFF
ENDCHAR
STARTCHAR char279
ENCODING 279
SWIDTH 19 0
DWIDTH 17 0
BBX 15 24 1 -1
BITMAP
03C0
03C0
03C0
0000
0000
0000
0FE0
1FF8
3C78
701C
700C
E00E
E00E
FFFE
FFFE
FFFE
E000
E000
E00E
701C
783C
3FF8
1FF0
0380
ENDCHAR
STARTCHAR char280
ENCODING 280
SWIDTH 2 0
DWIDTH 21 0
BBX 18 30 3 -7
BITMAP
FFFF00
FFFF00
E00000
E00000
E00000
E00000
E00000
E00000
E00000
E00000
FFFE00
FFFE00
E00000
E00000
E00000
E00000
E00000
E00000
E00000
E00000
FFFF00
FFFF00
FFFF00
000600
000C00
001800
001800
001C00
000FC0
000100
ENDCHAR
STARTCHAR char281
ENCODING 281
SWIDTH 19 0
DWIDTH 17 0
BBX 15 23 1 -7
BITMAP
0FE0
1FF8
3C78
701C
700C
E00E
E00E
FFFE
FFFE
FFFE
E000
E000
E00E
701C
783C
3FF8
1FF0
03E0
0060
00C0
00C0
00C0
00FC
ENDCHAR
STARTCHAR char282
ENCODING 282
SWIDTH 27 0
DWIDTH 20 0
BBX 16 29 3 0
BITMAP
0C30
07E0
07E0
03C0
0000
0000
FFFF
FFFF
E000
E000
E000
E000
E000
E000
E000
E000
FFFE
FFFE
E000
E000
E000
E000
E000
E000
E000
E000
FFFF
FFFF
FFFF
ENDCHAR
STARTCHAR char283
ENCODING 283
SWIDTH 19 0
DWIDTH 17 0
BBX 15 24 1 -1
BITMAP
0C30
0670
07E0
03C0
0000
0000
0FE0
1FF8
3C78
701C
700C
E00E
E00E
FFFE
FFFE
FFFE
E000
E000
E00E
701C
783C
3FF8
1FF0
0380
ENDCHAR
STARTCHAR char284
ENCODING 284
SWIDTH 10 0
DWIDTH 24 0
BBX 22 30 1 -1
BITMAP
003800
007C00
00EE00
00C700
010000
007800
03FF80
0FFFC0
1F01E0
1E00F0
3C0078
380038
700038
700000
700000
E00000
E00000
E00FFC
E00FFC
E0001C
70001C
70001C
70001C
78003C
3C007C
1E00FC
1F01FC
0FFF9C
03FF0C
00F800
ENDCHAR
STARTCHAR char285
ENCODING 285
SWIDTH 22 0
DWIDTH 18 0
BBX 15 30 1 -7
BITMAP
03C0
07C0
0660
0E70
0C30
0000
0FCE
1FEE
3C7E
703E
701E
E01E
E00E
E00E
E00E
E00E
E00E
E00E
E01E
701E
783E
3FEE
1FCE
070E
000C
601C
701C
7C78
3FF0
0FC0
ENDCHAR
STARTCHAR char286
ENCODING 286
SWIDTH 10 0
DWIDTH 24 0
BBX 22 30 1 -1
BITMAP
018300
018300
01FF00
00FE00
000000
007800
03FF80
0FFFC0
1F01E0
1E00F0
3C0078
380038
700038
700000
700000
E00000
E00000
E00FFC
E00FFC
E0001C
70001C
70001C
70001C
78003C
3C007C
1E00FC
1F01FC
0FFF9C
03FF0C
00F800
ENDCHAR
STARTCHAR char287
ENCODING 287
SWIDTH 22 0
DWIDTH 18 0
BBX 15 30 1 -7
BITMAP
1830
1C70
0FE0
07C0
0000
0000
0FCE
1FEE
3C7E
703E
701E
E01E
E00E
E00E
E00E
E00E
E00E
E00E
E01E
701E
783E
3FEE
1FCE
070E
000C
601C
701C
7C78
3FF0
0FC0
ENDCHAR
STARTCHAR char288
ENCODING 288
SWIDTH 10 0
DWIDTH 24 0
BBX 22 30 1 -1
BITMAP
003800
003800
003800
003800
000000
007800
03FF80
0FFFC0
1F01E0
1E00F0
3C0078
380038
700038
700000
700000
E00000
E00000
E00FFC
E00FFC
E0001C
70001C
70001C
70001C
78003C
3C007C
1E00FC
1F01FC
0FFF9C
03FF0C
00F800
ENDCHAR
STARTCHAR char289
ENCODING 289
SWIDTH 22 0
DWIDTH 18 0
BBX 15 30 1 -7
BITMAP
0780
0780
0780
0000
0000
0000
0FCE
1FEE
3C7E
703E
701E
E01E
E00E
E00E
E00E
E00E
E00E
E00E
E01E
701E
783E
3FEE
1FCE
070E
000C
601C
701C
7C78
3FF0
0FC0
ENDCHAR
STARTCHAR char290
ENCODING 290
SWIDTH 10 0
DWIDTH 24 0
BBX 22 34 1 -10
BITMAP
007800
03FF80
0FFFC0
1F01E0
1E00F0
3C0078
380038
700038
700000
700000
E00000
E00000
E00FFC
E00FFC
E0001C
70001C
70001C
70001C
78003C
3C007C
1E00FC
1F01FC
0FFF9C
03FF0C
00F800
000000
007800
007800
007800
007800
001800
001000
007000
004000
ENDCHAR
STARTCHAR char291
ENCODING 291
SWIDTH 22 0
DWIDTH 18 0
BBX 15 31 1 -7
BITMAP
0100
0300
0200
0300
0300
0000
0000
0FCE
1FEE
3C7E
703E
701E
E01E
E00E
E00E
E00E
E00E
E00E
E00E
E01E
701E
783E
3FEE
1FCE
070E
000C
601C
701C
7C78
3FF0
0FC0
ENDCHAR
STARTCHAR char292
ENCODING 292
SWIDTH 7 0
DWIDTH 23 0
BBX 18 29 3 0
BITMAP
01C000
03E000
077000
063800
000000
000000
E001C0
E001C0
E001C0
E001C0
E001C0
E001C0
E001C0
E001C0
E001C0
E001C0
FFFFC0
FFFFC0
E001C0
E001C0
E001C0
E001C0
E001C0
E001C0
E001C0
E001C0
E001C0
E001C0
E001C0
ENDCHAR
STARTCHAR char293
ENCODING 293
SWIDTH 19 0
DWIDTH 17 0
BBX 13 29 2 0
BITMAP
0380
07C0
0EC0
0C60
1830
0000
E000
E000
E000
E000
E000
E000
E7E0
FFF0
F878
F038
E038
E018
E018
E018
E018
E018
E018
E018
E018
E018
E018
E018
E018
ENDCHAR
STARTCHAR char294
ENCODING 294
SWIDTH 7 0
DWIDTH 23 0
BBX 21 23 1 0
BITMAP
3800E0
3800E0
3800E0
3800E0
3800E0
FFFFF8
FFFFF8
3800E0
3800E0
3800E0
3FFFE0
3FFFE0
3800E0
3800E0
3800E0
3800E0
3800E0
3800E0
3800E0
3800E0
3800E0
3800E0
3800E0
ENDCHAR
STARTCHAR char295
ENCODING 295
SWIDTH 22 0
DWIDTH 18 0
BBX 16 23 0 0
BITMAP
3800
3800
FFC0
FFC0
3800
3800
39FC
3BFE
3F1E
3E07
3C07
3807
3807
3807
3807
3807
3807
3807
3807
3807
3807
3807
3807
ENDCHAR
STARTCHAR char296
ENCODING 296
SWIDTH 28 0
DWIDTH 10 0
BBX 10 28 0 0
BITMAP
70C0
FF80
CF80
0000
0000
1C00
1C00
1C00
1C00
1C00
1C00
1C00
1C00
1C00
1C00
1C00
1C00
1C00
1C00
1C00
1C00
1C00
1C00
1C00
1C00
1C00
1C00
1C00
ENDCHAR
STARTCHAR char297
ENCODING 297
SWIDTH 22 0
DWIDTH 8 0
BBX 10 22 -1 0
BITMAP
7CC0
7FC0
C780
0000
0000
0E00
0E00
0E00
0E00
0E00
0E00
0E00
0E00
0E00
0E00
0E00
0E00
0E00
0E00
0E00
0E00
0E00
ENDCHAR
STARTCHAR char298
ENCODING 298
SWIDTH 25 0
DWIDTH 9 0
BBX 9 28 0 0
BITMAP
FF80
FF80
0000
0000
0000
1C00
1C00
1C00
1C00
1C00
1C00
1C00
1C00
1C00
1C00
1C00
1C00
1C00
1C00
1C00
1C00
1C00
1C00
1C00
1C00
1C00
1C00
1C00
ENDCHAR
STARTCHAR char299
ENCODING 299
SWIDTH 22 0
DWIDTH 8 0
BBX 9 22 0 0
BITMAP
FF80
FF80
0000
0000
0000
1C00
1C00
1C00
1C00
1C00
1C00
1C00
1C00
1C00
1C00
1C00
1C00
1C00
1C00
1C00
1C00
1C00
ENDCHAR
STARTCHAR char300
ENCODING 300
SWIDTH 28 0
DWIDTH 10 0
BBX 10 29 0 0
BITMAP
C0C0
C180
FF80
7F00
0000
0000
1C00
1C00
1C00
1C00
1C00
1C00
1C00
1C00
1C00
1C00
1C00
1C00
1C00
1C00
1C00
1C00
1C00
1C00
1C00
1C00
1C00
1C00
1C00
ENDCHAR
STARTCHAR char301
ENCODING 301
SWIDTH 22 0
DWIDTH 8 0
BBX 9 23 0 0
BITMAP
C180
E380
7F00
3E00
0000
0000
1C00
1C00
1C00
1C00
1C00
1C00
1C00
1C00
1C00
1C00
1C00
1C00
1C00
1C00
1C00
1C00
1C00
ENDCHAR
STARTCHAR char302
ENCODING 302
SWIDTH 25 0
DWIDTH 9 0
BBX 6 30 1 -7
BITMAP
38
38
38
38
38
38
38
38
38
38
38
38
38
38
38
38
38
38
38
38
38
38
38
30
60
C0
C0
E0
7C
08
ENDCHAR
STARTCHAR char303
ENCODING 303
SWIDTH 22 0
DWIDTH 8 0
BBX 7 30 0 -7
BITMAP
18
18
18
00
00
00
18
18
18
18
18
18
18
18
18
18
18
18
18
18
18
18
18
38
60
E0
C0
E0
7E
08
ENDCHAR
STARTCHAR char304
ENCODING 304
SWIDTH 25 0
DWIDTH 9 0
BBX 3 28 3 0
BITMAP
E0
E0
E0
00
00
E0
E0
E0
E0
E0
E0
E0
E0
E0
E0
E0
E0
E0
E0
E0
E0
E0
E0
E0
E0
E0
E0
E0
ENDCHAR
STARTCHAR char305
ENCODING 305
SWIDTH 19 0
DWIDTH 7 0
BBX 3 17 2 0
BITMAP
E0
E0
E0
E0
E0
E0
E0
E0
E0
E0
E0
E0
E0
E0
E0
E0
E0
ENDCHAR
STARTCHAR char306
ENCODING 306
SWIDTH 10 0
DWIDTH 24 0
BBX 19 24 3 -1
BITMAP
E000E0
E000E0
E000E0
E000E0
E000E0
E000E0
E000E0
E000E0
E000E0
E000E0
E000E0
E000E0
E000E0
E000E0
E000E0
E000E0
E780E0
E781E0
E381C0
E381C0
E3C3C0
E1FF80
E0FF00
003800
ENDCHAR
STARTCHAR char307
ENCODING 307
SWIDTH 5 0
DWIDTH 12 0
BBX 9 30 2 -7
BITMAP
E380
E380
E380
0000
0000
0000
E380
E380
E380
E380
E380
E380
E380
E380
E380
E380
E380
E380
E380
E380
E380
E380
E380
0380
0380
0380
0380
0F80
1F00
1E00
ENDCHAR
STARTCHAR char308
ENCODING 308
SWIDTH 19 0
DWIDTH 17 0
BBX 15 30 1 -1
BITMAP
0038
007C
00EE
01C6
0000
0000
0038
0038
0038
0038
0038
0038
0038
0038
0038
0038
0038
0038
0038
0038
0038
0038
E038
E038
E038
F038
7070
7FF0
3FE0
0700
ENDCHAR
STARTCHAR char309
ENCODING 309
SWIDTH 22 0
DWIDTH 8 0
BBX 9 30 0 -7
BITMAP
3C00
3E00
7600
E300
C380
0000
1C00
1C00
1C00
1C00
1C00
1C00
1C00
1C00
1C00
1C00
1C00
1C00
1C00
1C00
1C00
1C00
1C00
1C00
1C00
1C00
1C00
7800
F800
F000
ENDCHAR
STARTCHAR char310
ENCODING 310
SWIDTH 4 0
DWIDTH 22 0
BBX 18 33 3 -10
BITMAP
E00780
E00F00
E01E00
E03C00
E07800
E0F000
E1E000
E3C000
E78000
EF8000
FF8000
FDC000
F9E000
F0F000
E07000
E07800
E03C00
E01C00
E01E00
E00F00
E00700
E00380
E003C0
000000
000000
03C000
03C000
03C000
03C000
00C000
008000
038000
020000
ENDCHAR
STARTCHAR char311
ENCODING 311
SWIDTH 16 0
DWIDTH 16 0
BBX 14 33 2 -10
BITMAP
E000
E000
E000
E000
E000
E000
E078
E0F0
E1E0
E3C0
E780
EF00
FF00
FF00
FB80
F380
E1C0
E1E0
E0E0
E070
E078
E038
E01C
0000
0000
0700
0700
0700
0700
0100
0100
0700
0400
ENDCHAR
STARTCHAR char312
ENCODING 312
SWIDTH 16 0
DWIDTH 16 0
BBX 14 17 2 0
BITMAP
E078
E0F0
E1E0
E3C0
E780
EF00
FE00
FC00
F000
FC00
FE00
EF00
E780
E1C0
E0E0
E070
E03C
ENDCHAR
STARTCHAR char313
ENCODING 313
SWIDTH 22 0
DWIDTH 18 0
BBX 14 29 3 0
BITMAP
0F00
1C00
3800
7000
0000
0000
E000
E000
E000
E000
E000
E000
E000
E000
E000
E000
E000
E000
E000
E000
E000
E000
E000
E000
E000
E000
FFFC
FFFC
FFFC
ENDCHAR
STARTCHAR char314
ENCODING 314
SWIDTH 22 0
DWIDTH 8 0
BBX 6 29 1 0
BITMAP
1C
38
70
C0
00
00
70
70
70
70
70
70
70
70
70
70
70
70
70
70
70
70
70
70
70
70
70
70
70
ENDCHAR
STARTCHAR char315
ENCODING 315
SWIDTH 22 0
DWIDTH 18 0
BBX 14 33 3 -10
BITMAP
E000
E000
E000
E000
E000
E000
E000
E000
E000
E000
E000
E000
E000
E000
E000
E000
E000
E000
E000
E000
FFFC
FFFC
FFFC
0000
0000
0700
0700
0700
0700
0100
0100
0700
0400
ENDCHAR
STARTCHAR char316
ENCODING 316
SWIDTH 19 0
DWIDTH 7 0
BBX 3 33 2 -10
BITMAP
E0
E0
E0
E0
E0
E0
E0
E0
E0
E0
E0
E0
E0
E0
E0
E0
E0
E0
E0
E0
E0
E0
E0
00
00
E0
E0
E0
E0
20
20
E0
80
ENDCHAR
STARTCHAR char317
ENCODING 317
SWIDTH 22 0
DWIDTH 18 0
BBX 14 24 3 0
BITMAP
0300
E300
E300
E100
E300
E000
E000
E000
E000
E000
E000
E000
E000
E000
E000
E000
E000
E000
E000
E000
E000
FFFC
FFFC
FFFC
ENDCHAR
STARTCHAR char318
ENCODING 318
SWIDTH 2 0
DWIDTH 11 0
BBX 8 24 2 0
BITMAP
07
E7
E7
E3
E6
E0
E0
E0
E0
E0
E0
E0
E0
E0
E0
E0
E0
E0
E0
E0
E0
E0
E0
E0
ENDCHAR
STARTCHAR char319
ENCODING 319
SWIDTH 22 0
DWIDTH 18 0
BBX 14 23 3 0
BITMAP
E000
E000
E000
E000
E000
E000
E000
E000
E000
E000
E000
E000
E01C
E01C
E01C
E01C
E000
E000
E000
E000
FFFC
FFFC
FFFC
ENDCHAR
STARTCHAR char320
ENCODING 320
SWIDTH 5 0
DWIDTH 12 0
BBX 9 23 2 0
BITMAP
E000
E000
E000
E000
E000
E000
E000
E000
E000
E000
E000
E000
E780
E780
E780
E780
E000
E000
E000
E000
E000
E000
E000
ENDCHAR
STARTCHAR char321
ENCODING 321
SWIDTH 27 0
DWIDTH 20 0
BBX 18 23 1 0
BITMAP
1C0000
1C0000
1C0000
1C0000
1C0000
1C0000
1C2000
1C6000
1CE000
1FC000
1F0000
1E0000
7C0000
FC0000
DC0000
1C0000
1C0000
1C0000
1C0000
1C0000
1FFFC0
1FFFC0
1FFFC0
ENDCHAR
STARTCHAR char322
ENCODING 322
SWIDTH 22 0
DWIDTH 8 0
BBX 6 23 1 0
BITMAP
30
30
30
30
30
30
30
30
34
3C
3C
70
F0
B0
30
30
30
30
30
30
30
30
30
ENDCHAR
STARTCHAR char323
ENCODING 323
SWIDTH 7 0
DWIDTH 23 0
BBX 18 29 3 0
BITMAP
007800
007000
00E000
018000
000000
000000
E001C0
F001C0
F801C0
F801C0
DC01C0
DE01C0
CE01C0
C701C0
C701C0
C381C0
C3C1C0
C1C1C0
C0E1C0
C0F1C0
C071C0
C039C0
C03DC0
C01DC0
C00FC0
C00FC0
C007C0
C007C0
C003C0
ENDCHAR
STARTCHAR char324
ENCODING 324
SWIDTH 19 0
DWIDTH 17 0
BBX 13 24 2 0
BITMAP
00E0
01C0
0180
0300
0600
0000
0000
C7E0
CFF0
D878
F038
E018
E018
E018
E018
E018
E018
E018
E018
E018
E018
E018
E018
E018
ENDCHAR
STARTCHAR char325
ENCODING 325
SWIDTH 7 0
DWIDTH 23 0
BBX 18 32 3 -10
BITMAP
E001C0
F001C0
F801C0
F801C0
DC01C0
DE01C0
CE01C0
C701C0
C701C0
C381C0
C3C1C0
C1C1C0
C0E1C0
C0F1C0
C071C0
C039C0
C03DC0
C01DC0
C00FC0
C00FC0
C007C0
C007C0
C003C0
000000
000000
01C000
01C000
01C000
01C000
00C000
00C000
018000
ENDCHAR
STARTCHAR char326
ENCODING 326
SWIDTH 19 0
DWIDTH 17 0
BBX 13 27 2 -10
BITMAP
C7E0
CFF0
D878
F038
E018
E018
E018
E018
E018
E018
E018
E018
E018
E018
E018
E018
E018
0000
0000
0700
0700
0700
0700
0100
0100
0700
0400
ENDCHAR
STARTCHAR char327
ENCODING 327
SWIDTH 7 0
DWIDTH 23 0
BBX 18 29 3 0
BITMAP
0E3800
077000
03E000
01C000
000000
000000
E001C0
F001C0
F801C0
F801C0
DC01C0
DE01C0
CE01C0
C701C0
C701C0
C381C0
C3C1C0
C1C1C0
C0E1C0
C0F1C0
C071C0
C039C0
C03DC0
C01DC0
C00FC0
C00FC0
C007C0
C007C0
C003C0
ENDCHAR
STARTCHAR char328
ENCODING 328
SWIDTH 19 0
DWIDTH 17 0
BBX 13 23 2 0
BITMAP
1860
0CC0
0FC0
0780
0000
0000
C7E0
CFF0
D878
F038
E018
E018
E018
E018
E018
E018
E018
E018
E018
E018
E018
E018
E018
ENDCHAR
STARTCHAR char329
ENCODING 329
SWIDTH 2 0
DWIDTH 21 0
BBX 18 24 1 0
BITMAP
F00000
F00000
F00000
F00000
300000
300000
200000
EE7F00
0EFF80
0FC780
0F81C0
0F01C0
0E01C0
0E01C0
0E01C0
0E01C0
0E01C0
0E01C0
0E01C0
0E01C0
0E01C0
0E01C0
0E01C0
0E01C0
ENDCHAR
STARTCHAR char330
ENCODING 330
SWIDTH 4 0
DWIDTH 22 0
BBX 17 25 3 -1
BITMAP
03E000
EFF800
FFFC00
F81E00
F00F00
E00700
E00380
E00380
E00380
E00380
E00380
E00380
E00380
E00380
E00380
E00380
E00380
E00780
E00700
E00F00
E00E00
E01E00
E3FC00
E3F800
008000
ENDCHAR
STARTCHAR char331
ENCODING 331
SWIDTH 19 0
DWIDTH 17 0
BBX 13 24 2 -7
BITMAP
C7E0
CFF0
D878
F038
E018
E018
E018
E018
E018
E018
E018
E018
E018
E018
E018
E018
E018
0018
0018
0018
0038
0078
00F8
00F0
ENDCHAR
STARTCHAR char332
ENCODING 332
SWIDTH 13 0
DWIDTH 25 0
BBX 23 29 1 -1
BITMAP
01FF00
01FF00
000000
000000
007C00
03FF80
07FFC0
0F01F0
1E00F0
3C0078
78003C
70001C
70001C
70001E
E0000E
E0000E
E0000E
E0000E
E0000E
70001E
70001C
70001C
78003C
3C0038
1E00F0
1F01F0
07FFC0
03FF80
007C00
ENDCHAR
STARTCHAR char333
ENCODING 333
SWIDTH 19 0
DWIDTH 17 0
BBX 15 23 1 -1
BITMAP
1FF0
1FF0
0000
0000
0000
0FE0
1FF8
3C78
701C
701C
E00E
E00E
E00E
E00E
E00E
E00E
E00E
E00E
701C
783C
3FF8
1FF0
0380
ENDCHAR
STARTCHAR char334
ENCODING 334
SWIDTH 13 0
DWIDTH 25 0
BBX 23 30 1 -1
BITMAP
018300
018300
01FF00
00FE00
001000
007C00
03FF80
07FFC0
0F01F0
1E00F0
3C0078
78003C
70001C
70001C
70001E
E0000E
E0000E
E0000E
E0000E
E0000E
70001E
70001C
70001C
78003C
3C0038
1E00F0
1F01F0
07FFC0
03FF80
007C00
ENDCHAR
STARTCHAR char335
ENCODING 335
SWIDTH 19 0
DWIDTH 17 0
BBX 15 24 1 -1
BITMAP
1830
1C70
0FF0
07C0
0000
0000
0FE0
1FF8
3C78
701C
701C
E00E
E00E
E00E
E00E
E00E
E00E
E00E
E00E
701C
783C
3FF8
1FF0
0380
ENDCHAR
STARTCHAR char336
ENCODING 336
SWIDTH 13 0
DWIDTH 25 0
BBX 23 30 1 -1
BITMAP
007BC0
007380
00E700
00C600
000000
007C00
03FF80
07FFC0
0F01F0
1E00F0
3C0078
78003C
70001C
70001C
70001E
E0000E
E0000E
E0000E
E0000E
E0000E
70001E
70001C
70001C
78003C
3C0038
1E00F0
1F01F0
07FFC0
03FF80
007C00
ENDCHAR
STARTCHAR char337
ENCODING 337
SWIDTH 19 0
DWIDTH 17 0
BBX 15 25 1 -1
BITMAP
039C
073C
0738
0670
0C60
0000
0000
0FE0
1FF8
3C78
701C
701C
E00E
E00E
E00E
E00E
E00E
E00E
E00E
E00E
701C
783C
3FF8
1FF0
0380
ENDCHAR
STARTCHAR char338
ENCODING 338
SWIDTH 4 0
DWIDTH 32 0
BBX 30 25 1 -1
BITMAP
00F00000
07FCFFF8
0FFEFFF8
1E07E000
3C03E000
3801E000
7000E000
7000E000
7000E000
E000E000
E000E000
E000FFF8
E000FFF8
E000FFF8
E000E000
E000E000
7000E000
7000E000
7000E000
3801E000
3C03E000
1E0FFFFC
0FFEFFFC
07FCFFFC
00600000
ENDCHAR
STARTCHAR char339
ENCODING 339
SWIDTH 24 0
DWIDTH 29 0
BBX 27 18 1 -1
BITMAP
0FE07E00
3FF9FF80
3C7BC7C0
701F81C0
701F00E0
E00F00E0
E00E00E0
E00FFFE0
E00FFFE0
E00FFFE0
E00E0000
E00E0000
E00F00E0
701F00E0
783F81C0
3FFBFF80
1FF0FF00
03C03C00
ENDCHAR
STARTCHAR char340
ENCODING 340
SWIDTH 7 0
DWIDTH 23 0
BBX 18 29 3 0
BITMAP
007800
00E000
01C000
038000
000000
000000
FFFC00
FFFF00
E00F80
E00780
E00380
E00380
E00380
E00380
E00380
E00700
FFFE00
FFFC00
FFFE00
E00700
E00380
E00380
E00380
E00380
E00380
E00380
E00380
E003C0
E003C0
ENDCHAR
STARTCHAR char341
ENCODING 341
SWIDTH 2 0
DWIDTH 11 0
BBX 8 24 2 0
BITMAP
07
0E
0C
18
30
00
00
C7
CF
DF
F0
E0
E0
E0
E0
E0
E0
E0
E0
E0
E0
E0
E0
E0
ENDCHAR
STARTCHAR char342
ENCODING 342
SWIDTH 7 0
DWIDTH 23 0
BBX 18 33 3 -10
BITMAP
FFFC00
FFFF00
E00F80
E00780
E00380
E00380
E00380
E00380
E00380
E00700
FFFE00
FFFC00
FFFE00
E00700
E00380
E00380
E00380
E00380
E00380
E00380
E00380
E003C0
E003C0
000000
000000
01C000
01C000
01C000
01C000
004000
004000
018000
010000
ENDCHAR
STARTCHAR char343
ENCODING 343
SWIDTH 2 0
DWIDTH 11 0
BBX 8 27 2 -10
BITMAP
C7
CF
DF
F0
E0
E0
E0
E0
E0
E0
E0
E0
E0
E0
E0
E0
E0
00
00
E0
E0
E0
E0
20
20
E0
80
ENDCHAR
STARTCHAR char344
ENCODING 344
SWIDTH 7 0
DWIDTH 23 0
BBX 18 29 3 0
BITMAP
0E3800
077000
03E000
01C000
000000
000000
FFFC00
FFFF00
E00F80
E00780
E00380
E00380
E00380
E00380
E00380
E00700
FFFE00
FFFC00
FFFE00
E00700
E00380
E00380
E00380
E00380
E00380
E00380
E00380
E003C0
E003C0
ENDCHAR
STARTCHAR char345
ENCODING 345
SWIDTH 2 0
DWIDTH 11 0
BBX 8 24 2 0
BITMAP
C3
C3
66
7E
3C
00
00
C7
CF
DF
F0
E0
E0
E0
E0
E0
E0
E0
E0
E0
E0
E0
E0
E0
ENDCHAR
STARTCHAR char346
ENCODING 346
SWIDTH 2 0
DWIDTH 21 0
BBX 18 30 2 -1
BITMAP
007800
007000
00E000
018000
000000
01C000
1FFC00
3FFE00
780F00
700700
E00380
E00380
E00380
F00000
780000
7F0000
3FF000
0FFE00
00FF00
000F80
0003C0
0001C0
C001C0
E001C0
E001C0
F00380
780F80
3FFF00
1FFC00
03F000
ENDCHAR
STARTCHAR char347
ENCODING 347
SWIDTH 16 0
DWIDTH 16 0
BBX 14 25 1 -1
BITMAP
00E0
01C0
0380
0300
0600
0000
0000
1FE0
3FF0
7870
7038
E038
6000
7800
7F00
3FE0
07F8
0078
001C
E01C
E01C
7038
7FF8
3FF0
0780
ENDCHAR
STARTCHAR char348
ENCODING 348
SWIDTH 2 0
DWIDTH 21 0
BBX 18 30 2 -1
BITMAP
01C000
03E000
077000
063800
000000
01C000
1FFC00
3FFE00
780F00
700700
E00380
E00380
E00380
F00000
780000
7F0000
3FF000
0FFE00
00FF00
000F80
0003C0
0001C0
C001C0
E001C0
E001C0
F00380
780F80
3FFF00
1FFC00
03F000
ENDCHAR
STARTCHAR char349
ENCODING 349
SWIDTH 16 0
DWIDTH 16 0
BBX 14 24 1 -1
BITMAP
0780
0F80
0CC0
1860
1860
0000
1FE0
3FF0
7870
7038
E038
6000
7800
7F00
3FE0
07F8
0078
001C
E01C
E01C
7038
7FF8
3FF0
0780
ENDCHAR
STARTCHAR char350
ENCODING 350
SWIDTH 2 0
DWIDTH 21 0
BBX 18 31 2 -7
BITMAP
01C000
1FFC00
3FFE00
780F00
700700
E00380
E00380
E00380
F00000
780000
7F0000
3FF000
0FFE00
00FF00
000F80
0003C0
0001C0
C001C0
E001C0
E001C0
F00380
780F80
3FFF00
1FFC00
03E000
010000
01E000
007000
007000
0EE000
03C000
ENDCHAR
STARTCHAR char351
ENCODING 351
SWIDTH 16 0
DWIDTH 16 0
BBX 14 24 1 -7
BITMAP
1FE0
3FF0
7870
7038
E038
6000
7800
7F00
3FE0
07F8
0078
001C
E01C
E01C
7038
7FF8
3FF0
0F80
0400
0780
01C0
21C0
3B80
0F00
ENDCHAR
STARTCHAR char352
ENCODING 352
SWIDTH 2 0
DWIDTH 21 0
BBX 18 30 2 -1
BITMAP
063800
077000
03E000
01C000
000000
01C000
1FFC00
3FFE00
780F00
700700
E00380
E00380
E00380
F00000
780000
7F0000
3FF000
0FFE00
00FF00
000F80
0003C0
0001C0
C001C0
E001C0
E001C0
F00380
780F80
3FFF00
1FFC00
03F000
ENDCHAR
STARTCHAR char353
ENCODING 353
SWIDTH 16 0
DWIDTH 16 0
BBX 14 24 1 -1
BITMAP
1860
0CC0
0FC0
0780
0000
0000
1FE0
3FF0
7870
7038
E038
6000
7800
7F00
3FE0
07F8
0078
001C
E01C
E01C
7038
7FF8
3FF0
0780
ENDCHAR
STARTCHAR char354
ENCODING 354
SWIDTH 27 0
DWIDTH 20 0
BBX 18 30 1 -7
BITMAP
FFFFC0
FFFFC0
00E000
00E000
00E000
00E000
00E000
00E000
00E000
00E000
00E000
00E000
00E000
00E000
00E000
00E000
00E000
00E000
00E000
00E000
00E000
00E000
00E000
00C000
008000
01F000
003800
003000
07F000
01E000
ENDCHAR
STARTCHAR char355
ENCODING 355
SWIDTH 25 0
DWIDTH 9 0
BBX 9 28 1 -7
BITMAP
3800
3800
3800
3800
FE00
FE00
3800
3800
3800
3800
3800
3800
3800
3800
3800
3800
3800
3800
3800
3E00
3E00
1E00
0800
0F00
0700
0380
6300
7E00
ENDCHAR
STARTCHAR char356
ENCODING 356
SWIDTH 27 0
DWIDTH 20 0
BBX 18 29 1 0
BITMAP
063800
03F000
03E000
01E000
000000
000000
FFFFC0
FFFFC0
00E000
00E000
00E000
00E000
00E000
00E000
00E000
00E000
00E000
00E000
00E000
00E000
00E000
00E000
00E000
00E000
00E000
00E000
00E000
00E000
00E000
ENDCHAR
STARTCHAR char357
ENCODING 357
SWIDTH 8 0
DWIDTH 13 0
BBX 11 25 1 -1
BITMAP
00E0
00E0
00E0
3860
38C0
3800
3800
FE00
FE00
3800
3800
3800
3800
3800
3800
3800
3800
3800
3800
3800
3800
3800
3E00
3E00
1E00
ENDCHAR
STARTCHAR char358
ENCODING 358
SWIDTH 27 0
DWIDTH 20 0
BBX 18 23 1 0
BITMAP
FFFFC0
FFFFC0
00E000
00E000
00E000
00E000
00E000
00E000
00E000
1FFE00
1FFE00
1FFE00
00E000
00E000
00E000
00E000
00E000
00E000
00E000
00E000
00E000
00E000
00E000
ENDCHAR
STARTCHAR char359
ENCODING 359
SWIDTH 25 0
DWIDTH 9 0
BBX 7 22 1 -1
BITMAP
38
38
38
38
FE
FE
38
38
38
38
38
FE
FE
38
38
38
38
38
38
3E
3E
0E
ENDCHAR
STARTCHAR char360
ENCODING 360
SWIDTH 7 0
DWIDTH 23 0
BBX 17 29 3 -1
BITMAP
070C00
0FF800
0CF800
000000
000000
E00380
E00380
E00380
E00380
E00380
E00380
E00380
E00380
E00380
E00380
E00380
E00380
E00380
E00380
E00380
E00380
E00380
E00380
E00380
F00780
780F00
3FFE00
1FFC00
03E000
ENDCHAR
STARTCHAR char361
ENCODING 361
SWIDTH 19 0
DWIDTH 17 0
BBX 13 23 2 -1
BITMAP
1F70
3FE0
31C0
0000
0000
E018
E018
E018
E018
E018
E018
E018
E018
E018
E018
E018
E038
E038
E038
E078
7FD8
7F98
0E00
ENDCHAR
STARTCHAR char362
ENCODING 362
SWIDTH 7 0
DWIDTH 23 0
BBX 17 29 3 -1
BITMAP
0FF800
0FF800
000000
000000
000000
E00380
E00380
E00380
E00380
E00380
E00380
E00380
E00380
E00380
E00380
E00380
E00380
E00380
E00380
E00380
E00380
E00380
E00380
E00380
F00780
780F00
3FFE00
1FFC00
03E000
ENDCHAR
STARTCHAR char363
ENCODING 363
SWIDTH 19 0
DWIDTH 17 0
BBX 13 23 2 -1
BITMAP
3FE0
3FE0
0000
0000
0000
E018
E018
E018
E018
E018
E018
E018
E018
E018
E018
E018
E038
E038
E038
E078
7FD8
7F98
0E00
ENDCHAR
STARTCHAR char364
ENCODING 364
SWIDTH 7 0
DWIDTH 23 0
BBX 17 30 3 -1
BITMAP
0C0800
0C1800
0FF800
07F000
000000
000000
E00380
E00380
E00380
E00380
E00380
E00380
E00380
E00380
E00380
E00380
E00380
E00380
E00380
E00380
E00380
E00380
E00380
E00380
E00380
F00780
780F00
3FFE00
1FFC00
03E000
ENDCHAR
STARTCHAR char365
ENCODING 365
SWIDTH 19 0
DWIDTH 17 0
BBX 13 24 2 -1
BITMAP
3060
38E0
1FE0
0F80
0000
0000
E018
E018
E018
E018
E018
E018
E018
E018
E018
E018
E018
E038
E038
E038
E078
7FD8
7F98
0E00
ENDCHAR
STARTCHAR char366
ENCODING 366
SWIDTH 7 0
DWIDTH 23 0
BBX 17 32 3 -1
BITMAP
01C000
03E000
073000
063000
073000
03E000
01C000
000000
E00380
E00380
E00380
E00380
E00380
E00380
E00380
E00380
E00380
E00380
E00380
E00380
E00380
E00380
E00380
E00380
E00380
E00380
E00380
F00780
780F00
3FFE00
1FFC00
03E000
ENDCHAR
STARTCHAR char367
ENCODING 367
SWIDTH 19 0
DWIDTH 17 0
BBX 13 26 2 -1
BITMAP
0300
0F80
0DC0
18C0
1CC0
0FC0
0780
0000
E018
E018
E018
E018
E018
E018
E018
E018
E018
E018
E018
E038
E038
E038
E078
7FD8
7F98
0E00
ENDCHAR
STARTCHAR char368
ENCODING 368
SWIDTH 7 0
DWIDTH 23 0
BBX 17 30 3 -1
BITMAP
03DE00
07BC00
073800
067000
000000
000000
E00380
E00380
E00380
E00380
E00380
E00380
E00380
E00380
E00380
E00380
E00380
E00380
E00380
E00380
E00380
E00380
E00380
E00380
E00380
F00780
780F00
3FFE00
1FFC00
03E000
ENDCHAR
STARTCHAR char369
ENCODING 369
SWIDTH 19 0
DWIDTH 17 0
BBX 13 24 2 -1
BITMAP
0E70
1CE0
18C0
19C0
0000
0000
E018
E018
E018
E018
E018
E018
E018
E018
E018
E018
E018
E038
E038
E038
E078
7FD8
7F98
0E00
ENDCHAR
STARTCHAR char370
ENCODING 370
SWIDTH 7 0
DWIDTH 23 0
BBX 17 30 3 -7
BITMAP
E00380
E00380
E00380
E00380
E00380
E00380
E00380
E00380
E00380
E00380
E00380
E00380
E00380
E00380
E00380
E00380
E00380
E00380
E00380
F00780
780F00
3FFE00
1FFC00
03D800
003800
003000
007000
003000
003F00
000400
ENDCHAR
STARTCHAR char371
ENCODING 371
SWIDTH 19 0
DWIDTH 17 0
BBX 15 23 2 -7
BITMAP
E018
E018
E018
E018
E018
E018
E018
E018
E018
E018
E018
E038
E038
E038
E078
7FD8
7F98
0E18
0070
0060
00E0
0060
007E
ENDCHAR
STARTCHAR char372
ENCODING 372
SWIDTH 27 0
DWIDTH 30 0
BBX 28 29 1 0
BITMAP
000F0000
000F8000
001F8000
0038C000
00000000
00000000
E00F0070
E00F0070
E00F0070
F01F80F0
701F80E0
701B80E0
703980E0
7839C1E0
3839C1C0
3830C1C0
3870E1C0
1C70E3C0
1C70E380
1C606380
1CE07380
0CE07380
0EE07700
0FC03F00
0FC03F00
07C03E00
07801E00
07801E00
07801E00
ENDCHAR
STARTCHAR char373
ENCODING 373
SWIDTH 7 0
DWIDTH 23 0
BBX 23 23 0 0
BITMAP
003800
007C00
00EE00
00C600
018300
000000
E0380E
70381C
707C1C
707C1C
306C1C
386C38
38EE38
38EE38
18C630
1CC770
1DC770
0DC760
0D8360
0F83E0
0F83E0
0783C0
0701C0
ENDCHAR
STARTCHAR char374
ENCODING 374
SWIDTH 4 0
DWIDTH 22 0
BBX 20 29 1 0
BITMAP
00E000
01F000
03B800
031C00
000000
000000
F000F0
7000E0
7801C0
3803C0
1C0380
1E0780
0E0700
0F0E00
079E00
039C00
03FC00
01F800
00F000
00F000
00E000
00E000
00E000
00E000
00E000
00E000
00E000
00E000
00E000
ENDCHAR
STARTCHAR char375
ENCODING 375
SWIDTH 13 0
DWIDTH 15 0
BBX 15 30 0 -7
BITMAP
03C0
07C0
0660
0E70
0C30
0000
E00E
700E
701C
701C
3818
3838
3838
1C70
1C70
1C70
0EE0
0EE0
0EC0
07C0
07C0
0780
0380
0380
0700
0700
0700
7E00
7C00
7800
ENDCHAR
STARTCHAR char376
ENCODING 376
SWIDTH 4 0
DWIDTH 22 0
BBX 20 28 1 0
BITMAP
079C00
079C00
079C00
000000
000000
F000F0
7000E0
7801C0
3803C0
1C0380
1E0780
0E0700
0F0E00
079E00
039C00
03FC00
01F800
00F000
00F000
00E000
00E000
00E000
00E000
00E000
00E000
00E000
00E000
00E000
ENDCHAR
STARTCHAR char377
ENCODING 377
SWIDTH 27 0
DWIDTH 20 0
BBX 18 29 1 0
BITMAP
003C00
007800
00E000
00C000
010000
000000
7FFFC0
7FFFC0
0003C0
000780
000F00
001E00
001C00
003C00
007800
00F000
00E000
01E000
03C000
078000
0F0000
0E0000
1E0000
3C0000
780000
700000
FFFFC0
FFFFC0
FFFFC0
ENDCHAR
STARTCHAR char378
ENCODING 378
SWIDTH 16 0
DWIDTH 16 0
BBX 14 24 1 0
BITMAP
00E0
01C0
0180
0300
0600
0000
0000
7FF8
7FF8
7FF8
0070
00F0
00E0
01C0
0380
0700
0E00
1E00
1C00
3800
7000
E000
FFFC
FFFC
ENDCHAR
STARTCHAR char379
ENCODING 379
SWIDTH 27 0
DWIDTH 20 0
BBX 18 28 1 0
BITMAP
00E000
00E000
00E000
000000
000000
7FFFC0
7FFFC0
0003C0
000780
000F00
001E00
001C00
003C00
007800
00F000
00E000
01E000
03C000
078000
0F0000
0E0000
1E0000
3C0000
780000
700000
FFFFC0
FFFFC0
FFFFC0
ENDCHAR
STARTCHAR char380
ENCODING 380
SWIDTH 16 0
DWIDTH 16 0
BBX 14 23 1 0
BITMAP
0780
0780
0780
0000
0000
0000
7FF8
7FF8
7FF8
0070
00F0
00E0
01C0
0380
0700
0E00
1E00
1C00
3800
7000
E000
FFFC
FFFC
ENDCHAR
STARTCHAR char381
ENCODING 381
SWIDTH 27 0
DWIDTH 20 0
BBX 18 29 1 0
BITMAP
071800
03B800
01F000
01E000
000000
000000
7FFFC0
7FFFC0
0003C0
000780
000F00
001E00
001C00
003C00
007800
00F000
00E000
01E000
03C000
078000
0F0000
0E0000
1E0000
3C0000
780000
700000
FFFFC0
FFFFC0
FFFFC0
ENDCHAR
STARTCHAR char382
ENCODING 382
SWIDTH 16 0
DWIDTH 16 0
BBX 14 23 1 0
BITMAP
1860
0CC0
0FC0
0780
0000
0000
7FF8
7FF8
7FF8
0070
00F0
00E0
01C0
0380
0700
0E00
1E00
1C00
3800
7000
E000
FFFC
FFFC
ENDCHAR
STARTCHAR char383
ENCODING 383
SWIDTH 25 0
DWIDTH 9 0
BBX 7 23 1 0
BITMAP
1E
3E
38
38
38
38
F8
F8
38
38
38
38
38
38
38
38
38
38
38
38
38
38
38
ENDCHAR
STARTCHAR char384
ENCODING 384
SWIDTH 24 0
DWIDTH 19 0
BBX 17 24 1 -1
BITMAP
300000
300000
FF8000
FF8000
300000
300000
33F800
37FC00
3F3E00
3C0F00
380700
380700
380300
300380
300380
300380
300380
380700
380700
3C0F00
3E1E00
3FFC00
37F800
00E000
ENDCHAR
STARTCHAR char385
ENCODING 385
SWIDTH 18 0
DWIDTH 27 0
BBX 25 23 1 0
BITMAP
3FFFF800
7FFFFC00
F9C03E00
E1C00E00
E1C00F00
E1C00700
7DC00700
7DC00E00
1DC00E00
01C03C00
01FFF800
01FFFC00
01C03E00
01C00700
01C00700
01C00380
01C00380
01C00380
01C00700
01C00F00
01FFFE00
01FFFC00
01FFF800
ENDCHAR
STARTCHAR char386
ENCODING 386
SWIDTH 2 0
DWIDTH 21 0
BBX 17 23 3 0
BITMAP
FFFE00
FFFE00
E00000
E00000
E00000
E00000
E00000
E00000
E00000
FFF000
FFFC00
FFFF00
E00700
E00780
E00380
E00380
E00380
E00380
E00780
E00700
FFFF00
FFFE00
FFF800
ENDCHAR
STARTCHAR char387
ENCODING 387
SWIDTH 22 0
DWIDTH 18 0
BBX 15 24 2 -1
BITMAP
FFF0
FFF0
E000
E000
E000
E000
E7E0
FFF0
FCF8
F03C
F01C
E00E
E00E
E00E
E00E
E00E
E00E
E00E
E01C
F01C
F838
DFF8
CFF0
0380
ENDCHAR
STARTCHAR char388
ENCODING 388
SWIDTH 7 0
DWIDTH 23 0
BBX 22 23 0 0
BITMAP
1E0000
3E0000
3E0000
7E0000
FE0000
7E0000
3E0000
1E0000
0E0000
0FFFC0
0FFFE0
0E00F0
0E0078
0E0038
0E0038
0E001C
0E003C
0E0038
0E0038
0E0078
0FFFF0
0FFFE0
0FFF80
ENDCHAR
STARTCHAR char389
ENCODING 389
SWIDTH 24 0
DWIDTH 19 0
BBX 18 24 0 -1
BITMAP
3C0000
3C0000
7C0000
FC0000
FC0000
7C0000
3CFC00
3FFF00
1F9F00
1E0780
1E0380
1C01C0
1C01C0
1C01C0
1C01C0
1C01C0
1C01C0
1C01C0
1C0380
1E0380
1F0780
1BFF00
19FE00
007800
ENDCHAR
STARTCHAR char390
ENCODING 390
SWIDTH 7 0
DWIDTH 23 0
BBX 20 25 1 -1
BITMAP
00F000
07FE00
1FFF80
3E0780
3803C0
7801E0
7000E0
700070
F00070
E00070
000070
000070
000070
000070
000070
000070
000070
700070
7000E0
7801E0
3801C0
3E0780
1FFF80
07FE00
00F000
ENDCHAR
STARTCHAR char391
ENCODING 391
SWIDTH 13 0
DWIDTH 25 0
BBX 23 25 1 -1
BITMAP
007800
03FF1E
0FFFBE
1F03FE
3C01F0
3800F0
7800F0
700070
700000
700000
E00000
E00000
E00000
E00000
E00000
700070
700070
700070
780070
3800E0
3C01E0
1F03C0
0FFF80
03FF00
00F800
ENDCHAR
STARTCHAR char392
ENCODING 392
SWIDTH 22 0
DWIDTH 18 0
BBX 17 19 1 -1
BITMAP
000380
0FEF80
1FFF80
3C7C00
703C00
701C00
E01C00
E00000
E00000
E00000
E00000
E00000
E01C00
E01C00
701C00
783800
3FF800
1FF000
07C000
ENDCHAR
STARTCHAR char393
ENCODING 393
SWIDTH 7 0
DWIDTH 23 0
BBX 20 23 1 0
BITMAP
3FFE00
3FFF80
380FC0
3803C0
3801E0
3800E0
380070
380070
380070
380070
FFC070
FFC070
380070
380070
380070
380070
3800F0
3800E0
3801E0
3803C0
3FFF80
3FFF00
3FFC00
ENDCHAR
STARTCHAR char394
ENCODING 394
SWIDTH 21 0
DWIDTH 28 0
BBX 26 23 1 0
BITMAP
3FFFF000
7FFFFC00
F9C03E00
E1C00F00
E1C00700
E1C00380
7DC00380
7DC00380
1DC001C0
01C001C0
01C001C0
01C001C0
01C001C0
01C001C0
01C00380
01C00380
01C00380
01C00780
01C00700
01C01F00
01FFFE00
01FFFC00
01FFF000
ENDCHAR
STARTCHAR char395
ENCODING 395
SWIDTH 2 0
DWIDTH 21 0
BBX 18 23 1 0
BITMAP
3FFFC0
3FFFC0
0001C0
0001C0
0001C0
0001C0
0001C0
0001C0
0001C0
07FFC0
1FFFC0
3FFFC0
7801C0
7001C0
E001C0
E001C0
E001C0
E001C0
7001C0
7801C0
3FFFC0
3FFFC0
0FFFC0
ENDCHAR
STARTCHAR char396
ENCODING 396
SWIDTH 22 0
DWIDTH 18 0
BBX 15 24 1 -1
BITMAP
3FFE
3FFE
000E
000E
000E
000E
0FCE
3FFE
3E7E
781E
701E
E00E
E00E
E00E
E00E
E00E
E00E
E00E
F00E
701E
783E
3FF6
1FE6
0780
ENDCHAR
STARTCHAR char397
ENCODING 397
SWIDTH 22 0
DWIDTH 18 0
BBX 16 23 1 -5
BITMAP
0FF0
3FF8
7C3C
701E
F00E
E007
E007
E007
E007
E007
E00E
700E
701E
3C7C
3FF8
1FE0
0780
03C0
01E0
0078
003C
3FFE
3FFE
ENDCHAR
STARTCHAR char398
ENCODING 398
SWIDTH 27 0
DWIDTH 20 0
BBX 17 23 1 0
BITMAP
7FFF80
7FFF80
000380
000380
000380
000380
000380
000380
000380
000380
7FFF80
7FFF80
000380
000380
000380
000380
000380
000380
000380
000380
FFFF80
FFFF80
FFFF80
ENDCHAR
STARTCHAR char399
ENCODING 399
SWIDTH 7 0
DWIDTH 23 0
BBX 20 25 1 -1
BITMAP
01F000
07FE00
1FFF00
3E0780
3801C0
7801E0
7000E0
700070
000070
000070
000070
000070
000070
FFFFF0
FFFFF0
FFFFF0
F00070
700070
7000E0
7801E0
3803C0
3E07C0
1FFF80
07FE00
01F000
ENDCHAR
STARTCHAR char400
ENCODING 400
SWIDTH 2 0
DWIDTH 21 0
BBX 19 25 1 -1
BITMAP
00E000
0FFE00
1FFF00
3C0780
380380
7001C0
7001C0
7001C0
780000
380000
3E0000
1FF000
1FF000
3FF000
7C0000
700000
F00000
E000E0
E000C0
7001C0
7003C0
7C0780
3FFF00
0FFE00
03E000
ENDCHAR
STARTCHAR char401
ENCODING 401
SWIDTH 24 0
DWIDTH 19 0
BBX 19 30 0 -7
BITMAP
1FFFE0
1FFFE0
1C0000
1C0000
1C0000
1C0000
1C0000
1C0000
1C0000
1C0000
1FFF80
1FFF80
1C0000
1C0000
1C0000
1C0000
1C0000
1C0000
1C0000
1C0000
1C0000
1C0000
1C0000
1C0000
1C0000
1C0000
1C0000
FC0000
F80000
F00000
ENDCHAR
STARTCHAR char402
ENCODING 402
SWIDTH 25 0
DWIDTH 9 0
BBX 8 30 0 -7
BITMAP
0F
1F
1C
18
18
18
7F
7F
18
18
18
18
18
18
18
18
18
18
18
18
18
18
18
18
18
18
18
78
F8
F0
ENDCHAR
STARTCHAR char403
ENCODING 403
SWIDTH 16 0
DWIDTH 26 0
BBX 24 25 1 -1
BITMAP
007C00
03FF8F
0FFFDF
1F01FE
1E00F8
3C0078
380038
700038
700000
700000
E00000
E00000
E00FFC
E00FFC
E0001C
70001C
70001C
70001C
78003C
3C007C
1E00FC
1F01FC
0FFF9C
03FF0C
00F800
ENDCHAR
STARTCHAR char404
ENCODING 404
SWIDTH 4 0
DWIDTH 22 0
BBX 20 24 1 -1
BITMAP
F000F0
7000E0
7801C0
3803C0
1C0380
1E0780
0E0700
0F0E00
079E00
039C00
03FC00
01F800
00F000
00F000
00F000
00F800
01F800
03FC00
039C00
039C00
039C00
03FC00
01F800
00F000
ENDCHAR
STARTCHAR char405
ENCODING 405
SWIDTH 18 0
DWIDTH 27 0
BBX 24 24 2 -1
BITMAP
E00000
E00000
E00000
E00000
E00000
E00000
E7E000
FFF000
F87838
F0381C
E0380E
E01807
E01807
E01807
E01807
E01807
E01807
E01807
E0180E
E0180E
E0181C
E01FF8
E01FF0
000FC0
ENDCHAR
STARTCHAR char406
ENCODING 406
SWIDTH 22 0
DWIDTH 8 0
BBX 6 24 2 -1
BITMAP
E0
E0
E0
E0
E0
E0
E0
E0
E0
E0
E0
E0
E0
E0
E0
E0
E0
E0
E0
E0
E0
FC
FC
3C
ENDCHAR
STARTCHAR char407
ENCODING 407
SWIDTH 5 0
DWIDTH 12 0
BBX 11 23 0 0
BITMAP
0E00
0E00
0E00
0E00
0E00
0E00
0E00
0E00
0E00
0E00
FFE0
FFE0
0E00
0E00
0E00
0E00
0E00
0E00
0E00
0E00
0E00
0E00
0E00
ENDCHAR
STARTCHAR char408
ENCODING 408
SWIDTH 4 0
DWIDTH 22 0
BBX 18 23 3 0
BITMAP
E003C0
E00FC0
E01F80
E03C00
E07800
E0F000
E1E000
E3C000
E78000
EF8000
FF8000
FDC000
F9E000
F0F000
E07000
E07800
E03C00
E01C00
E01E00
E00F00
E00700
E00380
E003C0
ENDCHAR
STARTCHAR char409
ENCODING 409
SWIDTH 16 0
DWIDTH 16 0
BBX 14 23 2 0
BITMAP
7800
F800
E000
E000
E000
E000
E078
E0F0
E1E0
E3C0
E780
EF00
FF00
FF00
FB80
F380
E1C0
E1E0
E0E0
E070
E078
E038
E01C
ENDCHAR
STARTCHAR char410
ENCODING 410
SWIDTH 2 0
DWIDTH 11 0
BBX 11 23 0 0
BITMAP
0E00
0E00
0E00
0E00
0E00
0E00
0E00
0E00
0E00
0E00
FFE0
FFE0
0E00
0E00
0E00
0E00
0E00
0E00
0E00
0E00
0E00
0E00
0E00
ENDCHAR
STARTCHAR char411
ENCODING 411
SWIDTH 19 0
DWIDTH 17 0
BBX 17 23 0 1
BITMAP
3C3000
3E7000
4FE000
07C000
078000
1F8000
398000
73C000
43C000
07E000
07E000
066000
0E7000
0E7000
0C3000
1C3800
1C3800
381C00
381C00
380C00
700E80
700F80
F00780
ENDCHAR
STARTCHAR char412
ENCODING 412
SWIDTH 21 0
DWIDTH 28 0
BBX 22 23 3 0
BITMAP
E0701C
E0701C
E0701C
E0701C
E0701C
E0701C
E0701C
E0701C
E0701C
E0701C
E0701C
E0701C
E0701C
E0701C
E0701C
E0701C
E0701C
E0701C
E0701C
E0F83C
F1FC7C
FFBFFC
7F1FDC
ENDCHAR
STARTCHAR char413
ENCODING 413
SWIDTH 7 0
DWIDTH 23 0
BBX 21 30 0 -7
BITMAP
1C0038
1E0038
1F0038
1F0038
1B8038
1BC038
19C038
18E038
18E038
187038
187838
183838
181C38
181E38
180E38
180738
1807B8
1803B8
1801F8
1801F8
1800F8
1800F8
180078
180000
180000
180000
380000
F80000
F80000
E00000
ENDCHAR
STARTCHAR char414
ENCODING 414
SWIDTH 19 0
DWIDTH 17 0
BBX 13 23 2 -6
BITMAP
C7E0
CFF0
D878
F038
E018
E018
E018
E018
E018
E018
E018
E018
E018
E018
E018
E018
E018
0018
0018
0018
0018
0018
0018
ENDCHAR
STARTCHAR char415
ENCODING 415
SWIDTH 13 0
DWIDTH 25 0
BBX 23 25 1 -1
BITMAP
007C00
03FF80
07FFC0
0F01F0
1E00F0
3C0078
78003C
70001C
70001C
70001E
E0000E
E0000E
FFFFFE
FFFFFE
E0000E
70001E
70001C
70001C
78003C
3C0038
1E00F0
1F01F0
07FFC0
03FF80
007C00
ENDCHAR
STARTCHAR char416
ENCODING 416
SWIDTH 13 0
DWIDTH 25 0
BBX 24 26 1 -1
BITMAP
000003
007C07
03FF83
07FFE7
0F01FF
1E00FE
3C0078
78003C
70001C
70001C
70001E
E0000E
E0000E
E0000E
E0000E
E0000E
70001E
70001C
70001C
78003C
3C0038
1E00F0
1F01F0
07FFC0
03FF80
007C00
ENDCHAR
STARTCHAR char417
ENCODING 417
SWIDTH 22 0
DWIDTH 18 0
BBX 17 21 1 -1
BITMAP
000100
000380
000380
0FE380
1FFF80
3C7F00
701C00
701C00
E00E00
E00E00
E00E00
E00E00
E00E00
E00E00
E00E00
E00E00
701C00
783C00
3FF800
1FF000
038000
ENDCHAR
STARTCHAR char418
ENCODING 418
SWIDTH 7 0
DWIDTH 33 0
BBX 29 25 1 -1
BITMAP
00780380
03FF9FE0
07FFFFF0
0F01F878
1E00F038
3C007838
78003C38
70001C38
70001C38
70001E38
E0000E38
E0000E38
E0000E38
E0000E38
E0000E38
70001E38
70001C38
70001C38
78003C38
3C003838
1E00F038
1F01F038
07FFC038
03FF8038
007C0000
ENDCHAR
STARTCHAR char419
ENCODING 419
SWIDTH 7 0
DWIDTH 23 0
BBX 20 23 1 -6
BITMAP
0FE7E0
1FFFF0
3C7C70
701C30
701C30
E00E30
E00E30
E00E30
E00E30
E00E30
E00E30
E00E30
E00E30
701C30
783C30
3FF830
1FF030
038030
000030
000030
000030
000030
000030
ENDCHAR
STARTCHAR char420
ENCODING 420
SWIDTH 16 0
DWIDTH 26 0
BBX 24 23 1 0
BITMAP
3FFFF8
7FFFFC
F9C03E
E1C00F
E1C007
E1C007
7DC007
7DC007
1DC00F
01C00F
01FFFE
01FFFC
01FFF8
01C000
01C000
01C000
01C000
01C000
01C000
01C000
01C000
01C000
01C000
ENDCHAR
STARTCHAR char421
ENCODING 421
SWIDTH 22 0
DWIDTH 18 0
BBX 15 30 2 -7
BITMAP
7800
F800
E000
C000
C000
C000
C7E0
DFF0
DCF8
F03C
F01C
E00E
E00E
E00E
E00E
E00E
E00E
E00E
E01C
F01C
F83C
FFF8
EFF0
E3C0
E000
E000
E000
E000
E000
E000
ENDCHAR
STARTCHAR char422
ENCODING 422
SWIDTH 2 0
DWIDTH 21 0
BBX 17 27 3 -4
BITMAP
E00000
E00000
E00000
E00000
FFF800
FFFE00
E01E00
E00F00
E00700
E00700
E00700
E00700
E00700
E00F00
FFFE00
FFFC00
FFFC00
E01E00
E00E00
E00700
E00700
E00700
E00700
000700
000700
000780
000780
ENDCHAR
STARTCHAR char423
ENCODING 423
SWIDTH 2 0
DWIDTH 21 0
BBX 18 25 2 -1
BITMAP
03E000
0FFC00
3FFE00
7C0F00
700780
700380
E00380
E00380
000380
000F80
007F00
07FE00
1FF800
7F8000
FC0000
F00000
E00000
E001C0
E001C0
E00380
E00380
780F00
3FFF00
1FFC00
01E000
ENDCHAR
STARTCHAR char424
ENCODING 424
SWIDTH 16 0
DWIDTH 16 0
BBX 14 18 1 -1
BITMAP
1FE0
3FF0
7878
7038
7038
0038
0078
03F0
1FE0
7F80
F800
E000
E01C
E03C
F038
7FF8
3FF0
0780
ENDCHAR
STARTCHAR char425
ENCODING 425
SWIDTH 27 0
DWIDTH 20 0
BBX 18 23 1 0
BITMAP
FFFF80
FFFF80
F00000
780000
380000
3C0000
1E0000
0F0000
078000
038000
03C000
01E000
03C000
078000
0F0000
0E0000
1E0000
3C0000
780000
700000
FFFFC0
FFFFC0
FFFFC0
ENDCHAR
STARTCHAR char426
ENCODING 426
SWIDTH 2 0
DWIDTH 11 0
BBX 11 30 0 -7
BITMAP
7E00
7E00
C300
C300
C300
7F00
7F00
0700
0700
0700
0700
0700
0700
0700
0700
0700
0700
0700
0700
0700
0700
0700
0700
0700
0700
0700
0700
07C0
03E0
01E0
ENDCHAR
STARTCHAR char427
ENCODING 427
SWIDTH 25 0
DWIDTH 9 0
BBX 7 28 1 -7
BITMAP
38
38
38
38
FE
FE
38
38
38
38
38
38
38
38
38
38
38
38
38
3E
3E
0E
06
06
0E
1E
3E
3C
ENDCHAR
STARTCHAR char428
ENCODING 428
SWIDTH 27 0
DWIDTH 20 0
BBX 19 23 0 0
BITMAP
3FFFE0
7FFFE0
707000
E07000
E07000
707000
7C7000
3C7000
0C7000
007000
007000
007000
007000
007000
007000
007000
007000
007000
007000
007000
007000
007000
007000
ENDCHAR
STARTCHAR char429
ENCODING 429
SWIDTH 25 0
DWIDTH 9 0
BBX 7 24 1 -1
BITMAP
1E
3E
38
38
38
38
FE
FE
38
38
38
38
38
38
38
38
38
38
38
38
38
3E
3E
1E
ENDCHAR
STARTCHAR char430
ENCODING 430
SWIDTH 27 0
DWIDTH 20 0
BBX 18 30 1 -7
BITMAP
FFFFC0
FFFFC0
00E000
00E000
00E000
00E000
00E000
00E000
00E000
00E000
00E000
00E000
00E000
00E000
00E000
00E000
00E000
00E000
00E000
00E000
00E000
00E000
00E000
00E000
00E000
00E000
00E000
00F800
00F800
003800
ENDCHAR
STARTCHAR char431
ENCODING 431
SWIDTH 13 0
DWIDTH 25 0
BBX 22 28 3 -1
BITMAP
000018
00001C
00001C
00003C
E003F8
E003F0
E00380
E00380
E00380
E00380
E00380
E00380
E00380
E00380
E00380
E00380
E00380
E00380
E00380
E00380
E00380
E00380
E00380
F00780
780F00
3FFE00
1FFC00
03E000
ENDCHAR
STARTCHAR char432
ENCODING 432
SWIDTH 27 0
DWIDTH 20 0
BBX 18 22 2 -1
BITMAP
000080
000180
0001C0
0001C0
E01FC0
E01F80
E01F00
E01800
E01800
E01800
E01800
E01800
E01800
E01800
E01800
E03800
E03800
E03800
E07800
7FD800
7F9800
0E0000
ENDCHAR
STARTCHAR char433
ENCODING 433
SWIDTH 10 0
DWIDTH 24 0
BBX 22 23 1 0
BITMAP
7F87FC
7F87FC
078380
0E01E0
1C00E0
380070
380038
700038
700018
70001C
E0001C
E0001C
E0001C
E0001C
E0001C
700018
700038
780038
3C0070
1E00E0
0F87C0
07FF80
01FE00
ENDCHAR
STARTCHAR char434
ENCODING 434
SWIDTH 4 0
DWIDTH 22 0
BBX 18 24 3 -1
BITMAP
E03C00
E01E00
E00E00
E00F00
E00700
E00780
E00380
E00380
E001C0
E001C0
E001C0
E001C0
E001C0
E001C0
E001C0
E001C0
E00380
E00380
E00780
E00F00
F03E00
7FFC00
3FF800
0FC000
ENDCHAR
STARTCHAR char435
ENCODING 435
SWIDTH 7 0
DWIDTH 23 0
BBX 21 23 1 0
BITMAP
F00078
7000F8
7801F8
3803C0
1C0380
1E0780
0E0700
0F0E00
078E00
039C00
03FC00
01F800
00F000
00F000
00E000
00E000
00E000
00E000
00E000
00E000
00E000
00E000
00E000
ENDCHAR
STARTCHAR char436
ENCODING 436
SWIDTH 27 0
DWIDTH 20 0
BBX 19 30 0 -7
BITMAP
0001E0
0003E0
000380
000700
000700
000E00
E00E00
700E00
701C00
701C00
381800
383800
383800
1C7000
1C7000
1C7000
0EE000
0EE000
0EC000
07C000
07C000
078000
038000
038000
070000
070000
070000
7E0000
7C0000
780000
ENDCHAR
STARTCHAR char437
ENCODING 437
SWIDTH 27 0
DWIDTH 20 0
BBX 18 23 1 0
BITMAP
7FFFC0
7FFFC0
0003C0
000780
000F00
001E00
001C00
003C00
007800
00F000
0FFC00
0FFC00
03C000
078000
0F0000
0F0000
1E0000
3C0000
780000
700000
FFFFC0
FFFFC0
FFFFC0
ENDCHAR
STARTCHAR char438
ENCODING 438
SWIDTH 16 0
DWIDTH 16 0
BBX 14 17 1 0
BITMAP
7FF8
7FF8
7FF8
0070
00F0
00E0
01C0
7FF0
7FF0
7FF0
1E00
1C00
3800
7000
E000
FFFC
FFFC
ENDCHAR
STARTCHAR char439
ENCODING 439
SWIDTH 27 0
DWIDTH 20 0
BBX 18 24 1 -1
BITMAP
7FFFC0
7FFFC0
0003C0
000780
000F00
000E00
001E00
003C00
007800
01F000
01FC00
01FF00
000F80
000380
000380
0001C0
E001C0
E001C0
700380
700380
780F00
3FFF00
1FFC00
01C000
ENDCHAR
STARTCHAR char440
ENCODING 440
SWIDTH 24 0
DWIDTH 19 0
BBX 18 24 1 -1
BITMAP
FFFF80
FFFF80
F00000
780000
380000
3C0000
1E0000
0F0000
078000
07E000
0FE000
3FE000
7C0000
700000
E00000
E00000
E001C0
E00180
E00380
700380
780F00
3FFF00
0FFC00
01E000
ENDCHAR
STARTCHAR char441
ENCODING 441
SWIDTH 19 0
DWIDTH 17 0
BBX 15 22 1 -5
BITMAP
7FFC
7FFC
7FFC
3800
1C00
0E00
0700
0780
0F80
3F80
7E00
7000
E000
E000
E00E
E00E
E00E
701C
783C
3FF8
1FF0
0100
ENDCHAR
STARTCHAR char442
ENCODING 442
SWIDTH 16 0
DWIDTH 16 0
BBX 14 23 1 -6
BITMAP
7FF8
7FF8
7FF8
0070
00E0
01E0
01C0
0380
07C0
07F0
01F8
001C
001C
000C
000C
001C
3078
FFF8
FFE0
E000
E030
7FF8
3FF0
ENDCHAR
STARTCHAR char443
ENCODING 443
SWIDTH 22 0
DWIDTH 18 0
BBX 15 23 1 0
BITMAP
0380
0FF0
3FFC
381C
700E
700E
700E
600E
000E
000E
101C
1C7C
1FF8
07E0
0FFC
1E3C
3C04
7800
7000
6000
FFFE
FFFE
FFFE
ENDCHAR
STARTCHAR char446
ENCODING 446
SWIDTH 16 0
DWIDTH 16 0
BBX 14 22 1 -1
BITMAP
0700
0700
0700
0700
1FE0
1FE0
0700
0700
0700
0380
03E0
00F0
0078
0038
C01C
E01C
E01C
E01C
7038
3FF0
1FE0
0300
ENDCHAR
STARTCHAR char447
ENCODING 447
SWIDTH 22 0
DWIDTH 18 0
BBX 15 24 2 -7
BITMAP
C7F8
CFFC
DE3C
F80E
F00E
E00E
E00E
E00E
E01C
E01C
E038
E070
E0F0
E1E0
E380
EF00
FE00
F800
F000
E000
E000
E000
E000
E000
ENDCHAR
STARTCHAR char448
ENCODING 448
SWIDTH 22 0
DWIDTH 8 0
BBX 2 30 3 -7
BITMAP
C0
C0
C0
C0
C0
C0
C0
C0
C0
C0
C0
C0
C0
C0
C0
C0
C0
C0
C0
C0
C0
C0
C0
C0
C0
C0
C0
C0
C0
C0
ENDCHAR
STARTCHAR char449
ENCODING 449
SWIDTH 5 0
DWIDTH 12 0
BBX 5 30 3 -7
BITMAP
C8
C8
C8
C8
C8
C8
C8
C8
C8
C8
C8
C8
C8
C8
C8
C8
C8
C8
C8
C8
C8
C8
C8
C8
C8
C8
C8
C8
C8
C8
ENDCHAR
STARTCHAR char450
ENCODING 450
SWIDTH 24 0
DWIDTH 19 0
BBX 15 30 2 -7
BITMAP
0300
0300
0300
0300
0300
0300
0300
0300
0300
0300
0300
0300
FFFE
FFFE
0300
0300
0300
FFFE
FFFE
0300
0300
0300
0300
0300
0300
0300
0300
0300
0300
0300
ENDCHAR
STARTCHAR char451
ENCODING 451
SWIDTH 25 0
DWIDTH 9 0
BBX 3 23 4 0
BITMAP
E0
E0
E0
E0
E0
E0
E0
E0
E0
E0
E0
E0
C0
C0
C0
C0
40
40
00
00
E0
E0
E0
ENDCHAR
STARTCHAR char452
ENCODING 452
SWIDTH 1 0
DWIDTH 41 0
BBX 37 29 3 0
BITMAP
000000E300
0000007700
0000003E00
0000001C00
0000000000
0000000000
FFF80FFFF8
FFFC0FFFF8
E03E000078
E00F0000F0
E0078001E0
E0038001C0
E0038003C0
E001C00780
E001C00F00
E001C01E00
E001C01C00
E001C03C00
E001C07800
E001C0F000
E001C0E000
E001C1E000
E00383C000
E003878000
E007070000
E00F0F0000
FFFE1FFFF8
FFFC1FFFF8
FFF01FFFF8
ENDCHAR
STARTCHAR char453
ENCODING 453
SWIDTH 21 0
DWIDTH 38 0
BBX 34 23 3 0
BITMAP
FFF8018600
FFFC00CC00
E03E00FC00
E00F007800
E007800000
E003800000
E00387FF80
E001C7FF80
E001C7FF80
E001C00700
E001C00F00
E001C00E00
E001C01C00
E001C03800
E001C07000
E001C0E000
E00381E000
E00381C000
E007038000
E00F070000
FFFE0E0000
FFFC0FFFC0
FFF00FFFC0
ENDCHAR
STARTCHAR char454
ENCODING 454
SWIDTH 7 0
DWIDTH 33 0
BBX 31 24 1 -1
BITMAP
000E0E38
000E0770
000E0360
000E03E0
000E0000
000E0000
0FCE3FFE
1FFE3FFE
3C7E3FFE
781E001C
701E0038
E00E0070
E00E00E0
E00E01E0
E00E03C0
E00E0380
E00E0700
E00E0E00
F00E1C00
701E3C00
783E7800
3FF67FFE
1FE67FFE
07800000
ENDCHAR
STARTCHAR char455
ENCODING 455
SWIDTH 10 0
DWIDTH 34 0
BBX 28 24 3 -1
BITMAP
E0000070
E0000070
E0000070
E0000070
E0000070
E0000070
E0000070
E0000070
E0000070
E0000070
E0000070
E0000070
E0000070
E0000070
E0000070
E0000070
E001C070
E001C070
E001C070
E001C0F0
FFFCE0E0
FFFCFFE0
FFFC7FC0
00000F00
ENDCHAR
STARTCHAR char456
ENCODING 456
SWIDTH 13 0
DWIDTH 25 0
BBX 20 30 3 -7
BITMAP
E00030
E00030
E00030
E00000
E00000
E00000
E00030
E00030
E00030
E00030
E00030
E00030
E00030
E00030
E00030
E00030
E00030
E00030
E00030
E00030
FFFC30
FFFC30
FFFC30
000030
000030
000030
000070
0000F0
0001F0
0001E0
ENDCHAR
STARTCHAR char457
ENCODING 457
SWIDTH 10 0
DWIDTH 14 0
BBX 10 30 2 -7
BITMAP
E1C0
E1C0
E1C0
E000
E000
E000
E1C0
E1C0
E1C0
E1C0
E1C0
E1C0
E1C0
E1C0
E1C0
E1C0
E1C0
E1C0
E1C0
E1C0
E1C0
E1C0
E1C0
01C0
01C0
01C0
01C0
03C0
0F80
0F00
ENDCHAR
STARTCHAR char458
ENCODING 458
SWIDTH 24 0
DWIDTH 39 0
BBX 33 24 3 -1
BITMAP
E001C00380
F001C00380
F801C00380
F801C00380
DC01C00380
DE01C00380
CE01C00380
C701C00380
C701C00380
C381C00380
C3C1C00380
C1C1C00380
C0E1C00380
C0F1C00380
C071C00380
C039C00380
C03DCE0380
C01DCE0380
C00FCE0380
C00FCF0380
C007C70780
C007C7FF00
C003C3FE00
000000F000
ENDCHAR
STARTCHAR char459
ENCODING 459
SWIDTH 27 0
DWIDTH 30 0
BBX 25 30 3 -7
BITMAP
E001C380
F001C380
F801C380
F801C000
DC01C000
DE01C000
CE01C380
C701C380
C701C380
C381C380
C3C1C380
C1C1C380
C0E1C380
C0F1C380
C071C380
C039C380
C03DC380
C01DC380
C00FC380
C00FC380
C007C380
C007C380
C003C380
00000380
00000380
00000380
00000380
00000780
00001F00
00001E00
ENDCHAR
STARTCHAR char460
ENCODING 460
SWIDTH 10 0
DWIDTH 24 0
BBX 21 30 2 -7
BITMAP
000038
000038
000038
000000
000000
000000
C7E038
CFF038
D87838
F03838
E01838
E01838
E01838
E01838
E01838
E01838
E01838
E01838
E01838
E01838
E01838
E01838
E01838
000038
000038
000038
000038
0000F8
0001F0
0001E0
ENDCHAR
STARTCHAR char461
ENCODING 461
SWIDTH 2 0
DWIDTH 21 0
BBX 20 29 1 0
BITMAP
031C00
03B800
01F000
00E000
000000
000000
01F000
01F000
01F800
03B800
03B800
039C00
071C00
071C00
070E00
0E0E00
0E0E00
0E0700
1C0700
1FFF80
3FFF80
3FFF80
3803C0
7801C0
7001C0
7001E0
F000E0
E000E0
E000F0
ENDCHAR
STARTCHAR char462
ENCODING 462
SWIDTH 19 0
DWIDTH 17 0
BBX 16 24 1 -1
BITMAP
0C30
0E60
07E0
03C0
0000
0000
1FE0
3FF8
7878
701C
701C
001C
001C
01FC
3FFC
7F1C
F01C
E01C
E01C
E03C
E07C
7FFF
3FDF
0E06
ENDCHAR
STARTCHAR char463
ENCODING 463
SWIDTH 28 0
DWIDTH 10 0
BBX 8 29 1 0
BITMAP
C7
7E
7C
3C
00
00
38
38
38
38
38
38
38
38
38
38
38
38
38
38
38
38
38
38
38
38
38
38
38
ENDCHAR
STARTCHAR char464
ENCODING 464
SWIDTH 22 0
DWIDTH 8 0
BBX 8 23 0 0
BITMAP
C3
67
7E
3C
00
00
1C
1C
1C
1C
1C
1C
1C
1C
1C
1C
1C
1C
1C
1C
1C
1C
1C
ENDCHAR
STARTCHAR char465
ENCODING 465
SWIDTH 13 0
DWIDTH 25 0
BBX 23 30 1 -1
BITMAP
01C700
00EE00
007C00
003800
000000
007C00
03FF80
07FFC0
0F01F0
1E00F0
3C0078
78003C
70001C
70001C
70001E
E0000E
E0000E
E0000E
E0000E
E0000E
70001E
70001C
70001C
78003C
3C0038
1E00F0
1F01F0
07FFC0
03FF80
007C00
ENDCHAR
STARTCHAR char466
ENCODING 466
SWIDTH 19 0
DWIDTH 17 0
BBX 15 24 1 -1
BITMAP
0C30
0E60
07E0
03C0
0000
0000
0FE0
1FF8
3C78
701C
701C
E00E
E00E
E00E
E00E
E00E
E00E
E00E
E00E
701C
783C
3FF8
1FF0
0380
ENDCHAR
STARTCHAR char467
ENCODING 467
SWIDTH 7 0
DWIDTH 23 0
BBX 17 30 3 -1
BITMAP
063800
077000
03E000
01C000
000000
000000
E00380
E00380
E00380
E00380
E00380
E00380
E00380
E00380
E00380
E00380
E00380
E00380
E00380
E00380
E00380
E00380
E00380
E00380
E00380
F00780
780F00
3FFE00
1FFC00
03E000
ENDCHAR
STARTCHAR char468
ENCODING 468
SWIDTH 19 0
DWIDTH 17 0
BBX 13 24 2 -1
BITMAP
1860
1CC0
0FC0
0780
0000
0000
E018
E018
E018
E018
E018
E018
E018
E018
E018
E018
E018
E038
E038
E038
E078
7FD8
7F98
0E00
ENDCHAR
STARTCHAR char469
ENCODING 469
SWIDTH 7 0
DWIDTH 23 0
BBX 17 32 3 -1
BITMAP
0FF800
0FF800
000000
0E3800
0E3800
0E3800
0E3800
000000
E00380
E00380
E00380
E00380
E00380
E00380
E00380
E00380
E00380
E00380
E00380
E00380
E00380
E00380
E00380
E00380
E00380
E00380
E00380
F00780
780F00
3FFE00
1FFC00
03E000
ENDCHAR
STARTCHAR char470
ENCODING 470
SWIDTH 19 0
DWIDTH 17 0
BBX 13 27 2 -1
BITMAP
3FE0
3FE0
0000
0000
3CE0
3CE0
3CE0
0000
0000
E018
E018
E018
E018
E018
E018
E018
E018
E018
E018
E018
E038
E038
E038
E078
7FD8
7F98
0E00
ENDCHAR
STARTCHAR char471
ENCODING 471
SWIDTH 7 0
DWIDTH 23 0
BBX 17 33 3 -1
BITMAP
003C00
007000
00E000
01C000
000000
0F3800
0F3800
0F3800
000000
E00380
E00380
E00380
E00380
E00380
E00380
E00380
E00380
E00380
E00380
E00380
E00380
E00380
E00380
E00380
E00380
E00380
E00380
E00380
F00780
780F00
3FFE00
1FFC00
03E000
ENDCHAR
STARTCHAR char472
ENCODING 472
SWIDTH 19 0
DWIDTH 17 0
BBX 13 30 2 -1
BITMAP
0070
00E0
01C0
0180
0300
0000
0000
3CE0
3CE0
3CE0
0000
0000
E018
E018
E018
E018
E018
E018
E018
E018
E018
E018
E018
E038
E038
E038
E078
7FD8
7F98
0E00
ENDCHAR
STARTCHAR char473
ENCODING 473
SWIDTH 7 0
DWIDTH 23 0
BBX 17 33 3 -1
BITMAP
063800
077000
03E000
01C000
000000
000000
0F3800
0F3800
0F3800
E00380
E00380
E00380
E00380
E00380
E00380
E00380
E00380
E00380
E00380
E00380
E00380
E00380
E00380
E00380
E00380
E00380
E00380
E00380
F00780
780F00
3FFE00
1FFC00
03E000
ENDCHAR
STARTCHAR char474
ENCODING 474
SWIDTH 19 0
DWIDTH 17 0
BBX 13 30 2 -1
BITMAP
3060
18E0
0DC0
0F80
0780
0000
0000
3CE0
3CE0
3CE0
0000
0000
E018
E018
E018
E018
E018
E018
E018
E018
E018
E018
E018
E038
E038
E038
E078
7FD8
7F98
0E00
ENDCHAR
STARTCHAR char475
ENCODING 475
SWIDTH 7 0
DWIDTH 23 0
BBX 17 33 3 -1
BITMAP
0F0000
070000
038000
00C000
000000
0F3800
0F3800
0F3800
000000
E00380
E00380
E00380
E00380
E00380
E00380
E00380
E00380
E00380
E00380
E00380
E00380
E00380
E00380
E00380
E00380
E00380
E00380
E00380
F00780
780F00
3FFE00
1FFC00
03E000
ENDCHAR
STARTCHAR char476
ENCODING 476
SWIDTH 19 0
DWIDTH 17 0
BBX 13 30 2 -1
BITMAP
7800
3C00
1C00
0E00
0600
0000
0000
3CE0
3CE0
3CE0
0000
0000
E018
E018
E018
E018
E018
E018
E018
E018
E018
E018
E018
E038
E038
E038
E078
7FD8
7F98
0E00
ENDCHAR
STARTCHAR char477
ENCODING 477
SWIDTH 19 0
DWIDTH 17 0
BBX 15 18 1 -1
BITMAP
0FE0
3FF0
3C78
701C
601C
E00E
000E
000E
FFFE
FFFE
E00E
E00E
E00E
701C
783C
3FF8
1FF0
07C0
ENDCHAR
STARTCHAR char478
ENCODING 478
SWIDTH 2 0
DWIDTH 21 0
BBX 20 31 1 0
BITMAP
07FC00
07FC00
000000
079C00
079C00
079C00
079C00
000000
01F000
01F000
01F800
03B800
03B800
039C00
071C00
071C00
070E00
0E0E00
0E0E00
0E0700
1C0700
1FFF80
3FFF80
3FFF80
3803C0
7801C0
7001C0
7001E0
F000E0
E000E0
E000F0
ENDCHAR
STARTCHAR char479
ENCODING 479
SWIDTH 19 0
DWIDTH 17 0
BBX 16 27 1 -1
BITMAP
1FF0
1FF0
1FF0
0000
1E70
1E70
1E70
0000
0000
1FE0
3FF8
7878
701C
701C
001C
001C
01FC
3FFC
7F1C
F01C
E01C
E01C
E03C
E07C
7FFF
3FDF
0E06
ENDCHAR
STARTCHAR char480
ENCODING 480
SWIDTH 2 0
DWIDTH 21 0
BBX 20 30 1 0
BITMAP
07FC00
07FC00
000000
00E000
00E000
00E000
000000
01F000
01F000
01F800
03B800
03B800
039C00
071C00
071C00
070E00
0E0E00
0E0E00
0E0700
1C0700
1FFF80
3FFF80
3FFF80
3803C0
7801C0
7001C0
7001E0
F000E0
E000E0
E000F0
ENDCHAR
STARTCHAR char481
ENCODING 481
SWIDTH 19 0
DWIDTH 17 0
BBX 16 27 1 -1
BITMAP
1FF0
1FF0
1FF0
0000
0380
0380
0380
0000
0000
1FE0
3FF8
7878
701C
701C
001C
001C
01FC
3FFC
7F1C
F01C
E01C
E01C
E03C
E07C
7FFF
3FDF
0E06
ENDCHAR
STARTCHAR char482
ENCODING 482
SWIDTH 1 0
DWIDTH 31 0
BBX 30 28 1 0
BITMAP
0003FE00
0003FE00
00000000
00000000
00000000
007FFFF8
00FFFFF8
00E38000
01C38000
01C38000
01C38000
03838000
03838000
07038000
07038000
0703FFF0
0E03FFF0
0E038000
1E038000
1FFF8000
1FFF8000
38038000
38038000
78038000
70038000
F003FFFC
E003FFFC
E003FFFC
ENDCHAR
STARTCHAR char483
ENCODING 483
SWIDTH 21 0
DWIDTH 28 0
BBX 26 23 1 -1
BITMAP
007F8000
007F8000
00000000
00000000
00000000
1FE1FC00
3FF3FE00
787F8F00
701E0380
701C0380
001C01C0
001C01C0
03FFFFC0
1FFFFFC0
7F1FFFC0
F01C0000
E01C0000
E01C0180
E03E0380
E07F0780
7FE7FF00
3FC3FE00
0E00F000
ENDCHAR
STARTCHAR char484
ENCODING 484
SWIDTH 13 0
DWIDTH 25 0
BBX 23 25 1 -1
BITMAP
007800
03FF80
0FFFC0
1F01E0
1E00F0
3C0078
380038
700038
700000
700000
E00000
E00000
E00FFC
E00FFC
E0001C
70001C
700FFE
700FFE
78003C
3C007C
1E00FC
1F01FC
0FFF9C
03FF0C
00F800
ENDCHAR
STARTCHAR char485
ENCODING 485
SWIDTH 22 0
DWIDTH 18 0
BBX 15 24 1 -7
BITMAP
0FCE
1FEE
3C7E
703E
701E
E01E
E00E
E00E
E00E
E00E
E00E
E00E
E01E
701E
783E
3FEE
1FCE
070E
000C
60FE
701C
7C78
3FF0
0FC0
ENDCHAR
STARTCHAR char486
ENCODING 486
SWIDTH 10 0
DWIDTH 24 0
BBX 22 30 1 -1
BITMAP
01C600
00EE00
007C00
003800
000000
007800
03FF80
0FFFC0
1F01E0
1E00F0
3C0078
380038
700038
700000
700000
E00000
E00000
E00FFC
E00FFC
E0001C
70001C
70001C
70001C
78003C
3C007C
1E00FC
1F01FC
0FFF9C
03FF0C
00F800
ENDCHAR
STARTCHAR char487
ENCODING 487
SWIDTH 22 0
DWIDTH 18 0
BBX 15 30 1 -7
BITMAP
1860
0CE0
0FC0
0780
0000
0000
0FCE
1FEE
3C7E
703E
701E
E01E
E00E
E00E
E00E
E00E
E00E
E00E
E01E
701E
783E
3FEE
1FCE
070E
000C
601C
701C
7C78
3FF0
0FC0
ENDCHAR
STARTCHAR char488
ENCODING 488
SWIDTH 4 0
DWIDTH 22 0
BBX 18 29 3 0
BITMAP
063800
077000
03E000
01C000
000000
000000
E00780
E00F00
E01E00
E03C00
E07800
E0F000
E1E000
E3C000
E78000
EF8000
FF8000
FDC000
F9E000
F0F000
E07000
E07800
E03C00
E01C00
E01E00
E00F00
E00700
E00380
E003C0
ENDCHAR
STARTCHAR char489
ENCODING 489
SWIDTH 16 0
DWIDTH 16 0
BBX 14 29 2 0
BITMAP
3060
18C0
1DC0
0F80
0700
0000
E000
E000
E000
E000
E000
E000
E078
E0F0
E1E0
E3C0
E780
EF00
FF00
FF00
FB80
F380
E1C0
E1E0
E0E0
E070
E078
E038
E01C
ENDCHAR
STARTCHAR char490
ENCODING 490
SWIDTH 13 0
DWIDTH 25 0
BBX 23 31 1 -7
BITMAP
007C00
03FF80
07FFC0
0F01F0
1E00F0
3C0078
78003C
70001C
70001C
70001E
E0000E
E0000E
E0000E
E0000E
E0000E
70001E
70001C
70001C
78003C
3C0038
1E00F0
1F01F0
07FFC0
03FF80
007C00
006000
00C000
01C000
01C000
00E400
007C00
ENDCHAR
STARTCHAR char491
ENCODING 491
SWIDTH 19 0
DWIDTH 17 0
BBX 15 24 1 -7
BITMAP
0FE0
1FF8
3C78
701C
701C
E00E
E00E
E00E
E00E
E00E
E00E
E00E
E00E
701C
783C
3FF8
1FF0
0380
0600
0C00
1C00
1C00
0E40
07C0
ENDCHAR
STARTCHAR char492
ENCODING 492
SWIDTH 13 0
DWIDTH 25 0
BBX 23 35 1 -7
BITMAP
01FF00
01FF00
000000
000000
007C00
03FF80
07FFC0
0F01F0
1E00F0
3C0078
78003C
70001C
70001C
70001E
E0000E
E0000E
E0000E
E0000E
E0000E
70001E
70001C
70001C
78003C
3C0038
1E00F0
1F01F0
07FFC0
03FF80
007C00
006000
00C000
01C000
01C000
00E400
007C00
ENDCHAR
STARTCHAR char493
ENCODING 493
SWIDTH 19 0
DWIDTH 17 0
BBX 15 28 1 -7
BITMAP
1FF0
1FF0
0000
0000
0FE0
1FF8
3C78
701C
701C
E00E
E00E
E00E
E00E
E00E
E00E
E00E
E00E
701C
783C
3FF8
1FF0
0380
0600
0C00
1C00
1C00
0E40
07C0
ENDCHAR
STARTCHAR char494
ENCODING 494
SWIDTH 27 0
DWIDTH 20 0
BBX 18 30 1 -1
BITMAP
071800
03B000
01F000
01E000
000000
000000
7FFFC0
7FFFC0
0003C0
000780
000F00
000E00
001E00
003C00
007800
01F000
01FC00
01FF00
000F80
000380
000380
0001C0
E001C0
E001C0
700380
700380
780F00
3FFF00
1FFC00
01C000
ENDCHAR
STARTCHAR char495
ENCODING 495
SWIDTH 19 0
DWIDTH 17 0
BBX 15 28 1 -5
BITMAP
1860
0CE0
0FC0
0780
0000
0000
7FF8
7FF8
7FF8
0078
0070
00E0
01C0
0380
03C0
03F8
00FC
001C
000E
000E
C00E
E00E
E00E
E01C
783C
3FF8
1FF0
0100
ENDCHAR
STARTCHAR char496
ENCODING 496
SWIDTH 19 0
DWIDTH 7 0
BBX 9 30 -1 -7
BITMAP
C180
6300
7700
3E00
1C00
0000
1C00
1C00
1C00
1C00
1C00
1C00
1C00
1C00
1C00
1C00
1C00
1C00
1C00
1C00
1C00
1C00
1C00
1C00
1C00
1C00
1C00
3C00
F800
F000
ENDCHAR
STARTCHAR char497
ENCODING 497
SWIDTH 4 0
DWIDTH 42 0
BBX 38 23 3 0
BITMAP
FFF807FFF8
FFFC07FFF8
E03E000038
E00F000078
E0078000F0
E0038001E0
E0038001C0
E001C003C0
E001C00780
E001C00F00
E001C01E00
E001C01C00
E001C03C00
E001C07800
E001C0F000
E001C0E000
E00381E000
E00383C000
E007078000
E00F0F0000
FFFE0FFFFC
FFFC0FFFFC
FFF00FFFFC
ENDCHAR
STARTCHAR char498
ENCODING 498
SWIDTH 21 0
DWIDTH 38 0
BBX 34 23 3 0
BITMAP
FFF8000000
FFFC000000
E03E000000
E00F000000
E007800000
E003800000
E00387FF80
E001C7FF80
E001C7FF80
E001C00780
E001C00F00
E001C00E00
E001C01C00
E001C03800
E001C07000
E001C0F000
E00381E000
E00381C000
E007038000
E00F070000
FFFE0E0000
FFFC0FFFC0
FFF00FFFC0
ENDCHAR
STARTCHAR char499
ENCODING 499
SWIDTH 7 0
DWIDTH 33 0
BBX 31 24 1 -1
BITMAP
000E0000
000E0000
000E0000
000E0000
000E0000
000E0000
0FCE3FFE
1FFE3FFE
3C7E3FFE
781E001C
701E0038
E00E0078
E00E00F0
E00E00E0
E00E01C0
E00E0380
E00E0700
E00E0F00
F00E1E00
701E1C00
783E3800
3FF63FFE
1FE63FFE
07800000
ENDCHAR
STARTCHAR char500
ENCODING 500
SWIDTH 10 0
DWIDTH 24 0
BBX 22 30 1 -1
BITMAP
000700
000E00
001C00
003800
000000
007800
03FF80
0FFFC0
1F01E0
1E00F0
3C0078
380038
700038
700000
700000
E00000
E00000
E00FFC
E00FFC
E0001C
70001C
70001C
70001C
78003C
3C007C
1E00FC
1F01FC
0FFF9C
03FF0C
00F800
ENDCHAR
STARTCHAR char501
ENCODING 501
SWIDTH 22 0
DWIDTH 18 0
BBX 15 30 1 -7
BITMAP
0070
00E0
01C0
0180
0000
0000
0FCE
1FEE
3C7E
703E
701E
E01E
E00E
E00E
E00E
E00E
E00E
E00E
E01E
701E
783E
3FEE
1FCE
070E
000C
601C
701C
7C78
3FF0
0FC0
ENDCHAR
STARTCHAR char503
ENCODING 503
SWIDTH 24 0
DWIDTH 19 0
BBX 15 24 3 0
BITMAP
01F0
E7F8
FFFC
FE1E
F80E
E00E
E00E
E00E
E01E
E01C
E03C
E078
E0F0
E1E0
E3C0
EF80
FF00
FC00
F800
E000
E000
E000
E000
E000
ENDCHAR
STARTCHAR char504
ENCODING 504
SWIDTH 7 0
DWIDTH 23 0
BBX 18 29 3 0
BITMAP
078000
03C000
00E000
006000
001000
000000
E001C0
F001C0
F801C0
F801C0
DC01C0
DE01C0
CE01C0
C701C0
C701C0
C381C0
C3C1C0
C1C1C0
C0E1C0
C0F1C0
C071C0
C039C0
C03DC0
C01DC0
C00FC0
C00FC0
C007C0
C007C0
C003C0
ENDCHAR
STARTCHAR char505
ENCODING 505
SWIDTH 19 0
DWIDTH 17 0
BBX 13 24 2 0
BITMAP
3C00
1E00
0E00
0700
0380
0000
0000
C7E0
CFF0
D878
F038
E018
E018
E018
E018
E018
E018
E018
E018
E018
E018
E018
E018
E018
ENDCHAR
STARTCHAR char506
ENCODING 506
SWIDTH 2 0
DWIDTH 21 0
BBX 20 29 1 0
BITMAP
007800
00E000
01C000
038000
00F000
01F800
039800
031800
01B800
01F000
004000
00F000
01F000
01F800
03B800
03BC00
071C00
071C00
0E0E00
0E0E00
0E0700
1C0700
1FFF80
3FFF80
3803C0
7001C0
7001E0
E000E0
E000F0
ENDCHAR
STARTCHAR char507
ENCODING 507
SWIDTH 19 0
DWIDTH 17 0
BBX 16 30 1 -1
BITMAP
00F0
01C0
0380
0700
0180
07C0
06E0
0C60
0660
07E0
03C0
0000
1FE0
3FF8
7878
701C
701C
001C
001C
01FC
3FFC
7F1C
F01C
E01C
E01C
E03C
E07C
7FFF
3FDF
0E06
ENDCHAR
STARTCHAR char508
ENCODING 508
SWIDTH 1 0
DWIDTH 31 0
BBX 30 29 1 0
BITMAP
00000F00
00001C00
00003800
00007000
00000000
00000000
007FFFF8
00FFFFF8
00E38000
01C38000
01C38000
01C38000
03838000
03838000
07038000
07038000
0703FFF0
0E03FFF0
0E038000
1E038000
1FFF8000
1FFF8000
38038000
38038000
78038000
70038000
F003FFFC
E003FFFC
E003FFFC
ENDCHAR
STARTCHAR char509
ENCODING 509
SWIDTH 21 0
DWIDTH 28 0
BBX 26 24 1 -1
BITMAP
0001C000
00038000
00070000
00060000
00000000
00000000
1FE1FC00
3FF3FE00
787F8F00
701E0380
701C0380
001C01C0
001C01C0
03FFFFC0
1FFFFFC0
7F1FFFC0
F01C0000
E01C0000
E01C0180
E03E0380
E07F0780
7FE7FF00
3FC3FE00
0E00F000
ENDCHAR
STARTCHAR char510
ENCODING 510
SWIDTH 13 0
DWIDTH 25 0
BBX 23 30 1 -1
BITMAP
000700
000E00
001C00
003800
000000
007C04
03FF8E
07FFDC
0F01F8
1E00F0
3C00F8
7800FC
70019C
70031C
70061E
E00C0E
E0180E
E0300E
E0700E
E0E00E
71C01E
73801C
73001C
7E003C
3C0078
1E00F0
3F01F0
67FFC0
C3FF80
007C00
ENDCHAR
STARTCHAR char511
ENCODING 511
SWIDTH 27 0
DWIDTH 20 0
BBX 16 24 1 -1
BITMAP
0078
0070
00E0
01C0
0000
0000
0FE3
1FF6
3C7C
701C
703C
E02E
E06E
E0CE
E18E
E30E
E60E
EC0E
F80E
701C
783C
7FF8
DFF0
8380
ENDCHAR
STARTCHAR char512
ENCODING 512
SWIDTH 2 0
DWIDTH 21 0
BBX 20 29 1 0
BITMAP
1EF000
0E7000
073800
031800
000000
000000
01F000
01F000
01F800
03B800
03B800
039C00
071C00
071C00
070E00
0E0E00
0E0E00
0E0700
1C0700
1FFF80
3FFF80
3FFF80
3803C0
7801C0
7001C0
7001E0
F000E0
E000E0
E000F0
ENDCHAR
STARTCHAR char513
ENCODING 513
SWIDTH 19 0
DWIDTH 17 0
BBX 16 24 1 -1
BITMAP
79C0
39C0
1CE0
0C60
0000
0000
1FE0
3FF8
7878
701C
701C
001C
001C
01FC
3FFC
7F1C
F01C
E01C
E01C
E03C
E07C
7FFF
3FDF
0E06
ENDCHAR
STARTCHAR char514
ENCODING 514
SWIDTH 2 0
DWIDTH 21 0
BBX 20 29 1 0
BITMAP
00F000
03F800
07BC00
060C00
060600
000000
01F000
01F000
01F800
03B800
03B800
039C00
071C00
071C00
070E00
0E0E00
0E0E00
0E0700
1C0700
1FFF80
3FFF80
3FFF80
3803C0
7801C0
7001C0
7001E0
F000E0
E000E0
E000F0
ENDCHAR
STARTCHAR char515
ENCODING 515
SWIDTH 19 0
DWIDTH 17 0
BBX 16 24 1 -1
BITMAP
07C0
0FE0
1C70
1830
0000
0000
1FE0
3FF8
7878
701C
701C
001C
001C
01FC
3FFC
7F1C
F01C
E01C
E01C
E03C
E07C
7FFF
3FDF
0E06
ENDCHAR
STARTCHAR char516
ENCODING 516
SWIDTH 27 0
DWIDTH 20 0
BBX 16 29 3 0
BITMAP
3DE0
1CE0
0E70
0670
0000
0000
FFFF
FFFF
E000
E000
E000
E000
E000
E000
E000
E000
FFFE
FFFE
E000
E000
E000
E000
E000
E000
E000
E000
FFFF
FFFF
FFFF
ENDCHAR
STARTCHAR char517
ENCODING 517
SWIDTH 19 0
DWIDTH 17 0
BBX 15 24 1 -1
BITMAP
39C0
1CE0
1CE0
0E60
0000
0000
0FE0
1FF8
3C78
701C
700C
E00E
E00E
FFFE
FFFE
FFFE
E000
E000
E00E
701C
783C
3FF8
1FF0
0380
ENDCHAR
STARTCHAR char518
ENCODING 518
SWIDTH 27 0
DWIDTH 20 0
BBX 16 29 3 0
BITMAP
03C0
0FF0
0E70
1838
1818
0000
FFFF
FFFF
E000
E000
E000
E000
E000
E000
E000
E000
FFFE
FFFE
E000
E000
E000
E000
E000
E000
E000
E000
FFFF
FFFF
FFFF
ENDCHAR
STARTCHAR char519
ENCODING 519
SWIDTH 19 0
DWIDTH 17 0
BBX 15 24 1 -1
BITMAP
03C0
0FF0
0E70
1818
0000
0000
0FE0
1FF8
3C78
701C
700C
E00E
E00E
FFFE
FFFE
FFFE
E000
E000
E00E
701C
783C
3FF8
1FF0
0380
ENDCHAR
STARTCHAR char520
ENCODING 520
SWIDTH 28 0
DWIDTH 10 0
BBX 10 29 -1 0
BITMAP
F780
7BC0
39C0
1CC0
0000
0000
0E00
0E00
0E00
0E00
0E00
0E00
0E00
0E00
0E00
0E00
0E00
0E00
0E00
0E00
0E00
0E00
0E00
0E00
0E00
0E00
0E00
0E00
0E00
ENDCHAR
STARTCHAR char521
ENCODING 521
SWIDTH 22 0
DWIDTH 8 0
BBX 10 23 -2 0
BITMAP
F380
7380
39C0
18C0
0000
0000
0700
0700
0700
0700
0700
0700
0700
0700
0700
0700
0700
0700
0700
0700
0700
0700
0700
ENDCHAR
STARTCHAR char522
ENCODING 522
SWIDTH 28 0
DWIDTH 10 0
BBX 10 29 0 0
BITMAP
1E00
7F00
F380
C180
C0C0
0000
1C00
1C00
1C00
1C00
1C00
1C00
1C00
1C00
1C00
1C00
1C00
1C00
1C00
1C00
1C00
1C00
1C00
1C00
1C00
1C00
1C00
1C00
1C00
ENDCHAR
STARTCHAR char523
ENCODING 523
SWIDTH 22 0
DWIDTH 8 0
BBX 9 23 0 0
BITMAP
3C00
FF00
E780
C180
0000
0000
1C00
1C00
1C00
1C00
1C00
1C00
1C00
1C00
1C00
1C00
1C00
1C00
1C00
1C00
1C00
1C00
1C00
ENDCHAR
STARTCHAR char524
ENCODING 524
SWIDTH 13 0
DWIDTH 25 0
BBX 23 30 1 -1
BITMAP
07BC00
039C00
01CE00
00E600
000000
007C00
03FF80
07FFC0
0F01F0
1E00F0
3C0078
78003C
70001C
70001C
70001E
E0000E
E0000E
E0000E
E0000E
E0000E
70001E
70001C
70001C
78003C
3C0038
1E00F0
1F01F0
07FFC0
03FF80
007C00
ENDCHAR
STARTCHAR char525
ENCODING 525
SWIDTH 19 0
DWIDTH 17 0
BBX 15 24 1 -1
BITMAP
73C0
39C0
18C0
0CE0
0000
0000
0FE0
1FF8
3C78
701C
701C
E00E
E00E
E00E
E00E
E00E
E00E
E00E
E00E
701C
783C
3FF8
1FF0
0380
ENDCHAR
STARTCHAR char526
ENCODING 526
SWIDTH 13 0
DWIDTH 25 0
BBX 23 30 1 -1
BITMAP
007C00
00FE00
01EF00
018300
018300
007C00
03FF80
07FFC0
0F01F0
1E00F0
3C0078
78003C
70001C
70001C
70001E
E0000E
E0000E
E0000E
E0000E
E0000E
70001E
70001C
70001C
78003C
3C0038
1E00F0
1F01F0
07FFC0
03FF80
007C00
ENDCHAR
STARTCHAR char527
ENCODING 527
SWIDTH 19 0
DWIDTH 17 0
BBX 15 24 1 -1
BITMAP
03C0
0FE0
1E70
1830
0000
0000
0FE0
1FF8
3C78
701C
701C
E00E
E00E
E00E
E00E
E00E
E00E
E00E
E00E
701C
783C
3FF8
1FF0
0380
ENDCHAR
STARTCHAR char528
ENCODING 528
SWIDTH 7 0
DWIDTH 23 0
BBX 18 29 3 0
BITMAP
7BC000
39E000
1CE000
0E6000
000000
000000
FFFC00
FFFF00
E00F80
E00780
E00380
E00380
E00380
E00380
E00380
E00700
FFFE00
FFFC00
FFFE00
E00700
E00380
E00380
E00380
E00380
E00380
E00380
E00380
E003C0
E003C0
ENDCHAR
STARTCHAR char529
ENCODING 529
SWIDTH 2 0
DWIDTH 11 0
BBX 10 23 0 0
BITMAP
E780
7380
3180
19C0
0000
0000
31C0
33C0
37C0
3C00
3800
3800
3800
3800
3800
3800
3800
3800
3800
3800
3800
3800
3800
ENDCHAR
STARTCHAR char530
ENCODING 530
SWIDTH 7 0
DWIDTH 23 0
BBX 18 29 3 0
BITMAP
03C000
07F000
0E7800
0C1800
181800
000000
FFFC00
FFFF00
E00F80
E00780
E00380
E00380
E00380
E00380
E00380
E00700
FFFE00
FFFC00
FFFE00
E00700
E00380
E00380
E00380
E00380
E00380
E00380
E00380
E003C0
E003C0
ENDCHAR
STARTCHAR char531
ENCODING 531
SWIDTH 2 0
DWIDTH 11 0
BBX 9 23 2 0
BITMAP
3E00
7F00
E780
C180
0000
0000
C700
CF00
DF00
F000
E000
E000
E000
E000
E000
E000
E000
E000
E000
E000
E000
E000
E000
ENDCHAR
STARTCHAR char532
ENCODING 532
SWIDTH 7 0
DWIDTH 23 0
BBX 17 30 3 -1
BITMAP
3DE000
1CE000
0E7000
067000
000000
000000
E00380
E00380
E00380
E00380
E00380
E00380
E00380
E00380
E00380
E00380
E00380
E00380
E00380
E00380
E00380
E00380
E00380
E00380
E00380
F00780
780F00
3FFE00
1FFC00
03E000
ENDCHAR
STARTCHAR char533
ENCODING 533
SWIDTH 19 0
DWIDTH 17 0
BBX 13 24 2 -1
BITMAP
79C0
39C0
1CE0
0C60
0000
0000
E018
E018
E018
E018
E018
E018
E018
E018
E018
E018
E018
E038
E038
E038
E078
7FD8
7F98
0E00
ENDCHAR
STARTCHAR char534
ENCODING 534
SWIDTH 7 0
DWIDTH 23 0
BBX 17 30 3 -1
BITMAP
01E000
07F000
0F7800
0C1800
0C0C00
000000
E00380
E00380
E00380
E00380
E00380
E00380
E00380
E00380
E00380
E00380
E00380
E00380
E00380
E00380
E00380
E00380
E00380
E00380
E00380
F00780
780F00
3FFE00
1FFC00
03E000
ENDCHAR
STARTCHAR char535
ENCODING 535
SWIDTH 19 0
DWIDTH 17 0
BBX 13 24 2 -1
BITMAP
0780
1FC0
3CE0
3060
0000
0000
E018
E018
E018
E018
E018
E018
E018
E018
E018
E018
E018
E038
E038
E038
E078
7FD8
7F98
0E00
ENDCHAR
STARTCHAR char536
ENCODING 536
SWIDTH 2 0
DWIDTH 21 0
BBX 18 34 2 -10
BITMAP
01C000
1FFC00
3FFE00
780F00
700700
E00380
E00380
E00380
F00000
780000
7F0000
3FF000
0FFE00
00FF00
000F80
0003C0
0001C0
C001C0
E001C0
E001C0
F00380
780F80
3FFF00
1FFC00
03F000
000000
01C000
01C000
01C000
01C000
004000
004000
01C000
010000
ENDCHAR
STARTCHAR char537
ENCODING 537
SWIDTH 16 0
DWIDTH 16 0
BBX 14 27 1 -10
BITMAP
1FE0
3FF0
7870
7038
E038
6000
7800
7F00
3FE0
07F8
0078
001C
E01C
E01C
7038
7FF8
3FF0
0780
0000
0700
0700
0700
0700
0100
0100
0700
0400
ENDCHAR
STARTCHAR char538
ENCODING 538
SWIDTH 27 0
DWIDTH 20 0
BBX 18 33 1 -10
BITMAP
FFFFC0
FFFFC0
00E000
00E000
00E000
00E000
00E000
00E000
00E000
00E000
00E000
00E000
00E000
00E000
00E000
00E000
00E000
00E000
00E000
00E000
00E000
00E000
00E000
000000
000000
01C000
01C000
01C000
01C000
004000
004000
01C000
010000
ENDCHAR
STARTCHAR char539
ENCODING 539
SWIDTH 25 0
DWIDTH 9 0
BBX 7 31 1 -10
BITMAP
38
38
38
38
FE
FE
38
38
38
38
38
38
38
38
38
38
38
38
38
3E
3E
1E
00
38
38
38
38
08
18
30
20
ENDCHAR
STARTCHAR char540
ENCODING 540
SWIDTH 19 0
DWIDTH 17 0
BBX 15 26 1 -3
BITMAP
0780
1FF0
3FF8
783C
701C
E01C
E01C
E01C
001C
0038
00F8
03F0
0FFC
0F1C
0C0E
000E
000E
000E
001E
003C
00F8
03F8
1FE0
FF80
7C00
6000
ENDCHAR
STARTCHAR char541
ENCODING 541
SWIDTH 8 0
DWIDTH 13 0
BBX 11 19 1 -3
BITMAP
3F80
7FC0
F1C0
E0E0
C0E0
00E0
01C0
03C0
0FC0
1FE0
18E0
00E0
00E0
00E0
01E0
07C0
1F80
FE00
F000
ENDCHAR
STARTCHAR char542
ENCODING 542
SWIDTH 7 0
DWIDTH 23 0
BBX 18 29 3 0
BITMAP
063800
077000
03E000
01C000
000000
000000
E001C0
E001C0
E001C0
E001C0
E001C0
E001C0
E001C0
E001C0
E001C0
E001C0
FFFFC0
FFFFC0
E001C0
E001C0
E001C0
E001C0
E001C0
E001C0
E001C0
E001C0
E001C0
E001C0
E001C0
ENDCHAR
STARTCHAR char543
ENCODING 543
SWIDTH 19 0
DWIDTH 17 0
BBX 13 29 2 0
BITMAP
1830
0C60
0EE0
07C0
0380
0000
E000
E000
E000
E000
E000
E000
E7E0
FFF0
F878
F038
E038
E018
E018
E018
E018
E018
E018
E018
E018
E018
E018
E018
E018
ENDCHAR
STARTCHAR char544
ENCODING 544
SWIDTH 7 0
DWIDTH 23 0
BBX 17 31 3 -7
BITMAP
01E000
FFFC00
FFFE00
F80F00
F00780
E00380
E00380
E00380
E00380
E00380
E00380
E00380
E00380
E00380
E00380
E00380
E00380
E00380
E00380
E00380
E00380
E00380
E00380
E00380
000380
000380
000380
000380
000380
000380
000380
ENDCHAR
STARTCHAR char548
ENCODING 548
SWIDTH 27 0
DWIDTH 20 0
BBX 18 30 1 -7
BITMAP
7FFFC0
7FFFC0
0003C0
000780
000F00
001E00
001C00
003C00
007800
00F000
00E000
01E000
03C000
078000
0F0000
0E0000
1E0000
3C0000
780000
700000
FFFFC0
FFFFC0
FFFFC0
0001C0
0001C0
0001C0
0001C0
0007C0
000F80
000F00
ENDCHAR
STARTCHAR char549
ENCODING 549
SWIDTH 16 0
DWIDTH 16 0
BBX 14 24 1 -7
BITMAP
7FF8
7FF8
7FF8
0070
00F0
00E0
01C0
0380
0700
0E00
1E00
1C00
3800
7000
E000
FFFC
FFFC
001C
001C
001C
001C
0078
00F8
00F0
ENDCHAR
STARTCHAR char550
ENCODING 550
SWIDTH 2 0
DWIDTH 21 0
BBX 20 29 1 0
BITMAP
00E000
00E000
00E000
00E000
000000
000000
01F000
01F000
01F800
03B800
03B800
039C00
071C00
071C00
070E00
0E0E00
0E0E00
0E0700
1C0700
1FFF80
3FFF80
3FFF80
3803C0
7801C0
7001C0
7001E0
F000E0
E000E0
E000F0
ENDCHAR
STARTCHAR char551
ENCODING 551
SWIDTH 19 0
DWIDTH 17 0
BBX 16 24 1 -1
BITMAP
0380
0380
0380
0000
0000
0000
1FE0
3FF8
7878
701C
701C
001C
001C
01FC
3FFC
7F1C
F01C
E01C
E01C
E03C
E07C
7FFF
3FDF
0E06
ENDCHAR
STARTCHAR char552
ENCODING 552
SWIDTH 27 0
DWIDTH 20 0
BBX 16 30 3 -7
BITMAP
FFFF
FFFF
E000
E000
E000
E000
E000
E000
E000
E000
FFFE
FFFE
E000
E000
E000
E000
E000
E000
E000
E000
FFFF
FFFF
FFFF
0100
0100
03E0
0060
0860
1FE0
0300
ENDCHAR
STARTCHAR char553
ENCODING 553
SWIDTH 19 0
DWIDTH 17 0
BBX 15 24 1 -7
BITMAP
0FE0
1FF8
3C78
701C
700E
E00E
E00E
FFFE
FFFE
FFFE
E000
E000
E00E
701C
783C
3FF8
1FF0
03C0
0100
03C0
03E0
00E0
18E0
0FC0
ENDCHAR
STARTCHAR char554
ENCODING 554
SWIDTH 13 0
DWIDTH 25 0
BBX 23 32 1 -1
BITMAP
01FF00
01FF00
000000
01C700
01C700
01C700
01C700
007C00
03FF80
07FFC0
0F01F0
1E00F0
3C0078
78003C
70001C
70001C
70001E
E0000E
E0000E
E0000E
E0000E
E0000E
70001E
70001C
70001C
78003C
3C0038
1E00F0
1F01F0
07FFC0
03FF80
007C00
ENDCHAR
STARTCHAR char555
ENCODING 555
SWIDTH 19 0
DWIDTH 17 0
BBX 15 27 1 -1
BITMAP
1FF0
1FF0
1FF0
0000
1E70
1E70
1E70
1E70
0000
0FE0
1FF8
3C78
701C
701C
E00E
E00E
E00E
E00E
E00E
E00E
E00E
E00E
701C
783C
3FF8
1FF0
0380
ENDCHAR
STARTCHAR char556
ENCODING 556
SWIDTH 13 0
DWIDTH 25 0
BBX 23 33 1 -1
BITMAP
01FF00
01FF00
000000
000000
00F300
01FF00
019E00
000000
007C00
03FF80
07FFC0
0F01F0
1E00F0
3C0078
78003C
70001C
70001C
70001E
E0000E
E0000E
E0000E
E0000E
E0000E
70001E
70001C
70001C
78003C
3C0038
1E00F0
1F01F0
07FFC0
03FF80
007C00
ENDCHAR
STARTCHAR char557
ENCODING 557
SWIDTH 19 0
DWIDTH 17 0
BBX 15 27 1 -1
BITMAP
0FF0
0FF0
0FF0
0000
0618
1FF0
1BF0
1860
0000
0FE0
1FF8
3C78
701C
701C
E00E
E00E
E00E
E00E
E00E
E00E
E00E
E00E
701C
783C
3FF8
1FF0
0380
ENDCHAR
STARTCHAR char558
ENCODING 558
SWIDTH 13 0
DWIDTH 25 0
BBX 23 30 1 -1
BITMAP
003800
003800
003800
003800
000000
007C00
03FF80
07FFC0
0F01F0
1E00F0
3C0078
78003C
70001C
70001C
70001E
E0000E
E0000E
E0000E
E0000E
E0000E
70001E
70001C
70001C
78003C
3C0038
1E00F0
1F01F0
07FFC0
03FF80
007C00
ENDCHAR
STARTCHAR char559
ENCODING 559
SWIDTH 19 0
DWIDTH 17 0
BBX 15 23 1 -1
BITMAP
0380
0380
0380
0000
0000
0FE0
1FF8
3C78
701C
701C
E00E
E00E
E00E
E00E
E00E
E00E
E00E
E00E
701C
783C
3FF8
1FF0
0380
ENDCHAR
STARTCHAR char560
ENCODING 560
SWIDTH 13 0
DWIDTH 25 0
BBX 23 33 1 -1
BITMAP
01FF00
01FF00
01FF00
000000
003800
003800
003800
000000
007C00
03FF80
07FFC0
0F01F0
1E00F0
3C0078
78003C
70001C
70001C
70001E
E0000E
E0000E
E0000E
E0000E
E0000E
70001E
70001C
70001C
78003C
3C0038
1E00F0
1F01F0
07FFC0
03FF80
007C00
ENDCHAR
STARTCHAR char561
ENCODING 561
SWIDTH 19 0
DWIDTH 17 0
BBX 15 27 1 -1
BITMAP
1FF0
1FF0
1FF0
0000
0380
0380
0380
0000
0000
0FE0
1FF8
3C78
701C
701C
E00E
E00E
E00E
E00E
E00E
E00E
E00E
E00E
701C
783C
3FF8
1FF0
0380
ENDCHAR
STARTCHAR char562
ENCODING 562
SWIDTH 4 0
DWIDTH 22 0
BBX 20 27 1 0
BITMAP
07FC00
07FC00
000000
000000
F000F0
7000E0
7801C0
3803C0
1C0380
1E0780
0E0700
0F0E00
079E00
039C00
03FC00
01F800
00F000
00F000
00E000
00E000
00E000
00E000
00E000
00E000
00E000
00E000
00E000
ENDCHAR
STARTCHAR char563
ENCODING 563
SWIDTH 13 0
DWIDTH 15 0
BBX 15 28 0 -7
BITMAP
0FF0
0FF0
0000
0000
E00E
700E
701C
701C
3818
3838
3838
1C70
1C70
1C70
0EE0
0EE0
0EC0
07C0
07C0
0780
0380
0380
0700
0700
0700
7E00
7C00
7800
ENDCHAR
STARTCHAR char567
ENCODING 567
SWIDTH 19 0
DWIDTH 7 0
BBX 6 24 -1 -7
BITMAP
1C
1C
1C
1C
1C
1C
1C
1C
1C
1C
1C
1C
1C
1C
1C
1C
1C
1C
1C
1C
1C
3C
F8
F0
ENDCHAR
STARTCHAR char568
ENCODING 568
SWIDTH 24 0
DWIDTH 29 0
BBX 27 24 1 -1
BITMAP
000E0000
000E0000
000E0000
000E0000
000E0000
000E0000
0FCE7E00
1FFEFF80
3C7FE7C0
781F81C0
701F01E0
E00E00E0
E00E00E0
E00E00E0
E00E0060
E00E00E0
E00E00E0
E00E00E0
F00F00E0
701F01C0
783F83C0
3FF7FF80
1FE6FF00
07803C00
ENDCHAR
STARTCHAR char569
ENCODING 569
SWIDTH 24 0
DWIDTH 29 0
BBX 27 24 1 -7
BITMAP
0FC67E00
1FF6FF80
3E7FE7C0
781F81C0
701F01E0
E00E00E0
E00E00E0
E00E00E0
E00E00E0
E00E00E0
E00E00E0
E00E00E0
F00F00E0
701F01C0
783F83C0
3FFFFF80
1FEEFF00
078E3C00
000E0000
000E0000
000E0000
000E0000
000E0000
000E0000
ENDCHAR
STARTCHAR char592
ENCODING 592
SWIDTH 19 0
DWIDTH 17 0
BBX 15 18 1 -1
BITMAP
F1F8
F7FC
7E1E
380E
3806
3006
300E
303E
37FC
3FE0
3C00
3000
300E
300E
381C
3FFC
1FF8
03E0
ENDCHAR
STARTCHAR char593
ENCODING 593
SWIDTH 22 0
DWIDTH 18 0
BBX 17 18 1 -1
BITMAP
0FCE00
3FEE00
387E00
703E00
701E00
E01E00
E00E00
E00E00
E00E00
E00E00
E00E00
E01E00
701E00
701E00
3C3E00
1FFF80
0FCF80
000380
ENDCHAR
STARTCHAR char594
ENCODING 594
SWIDTH 22 0
DWIDTH 18 0
BBX 16 18 1 0
BITMAP
4000
F3F0
F7FC
3E3C
3C0E
380F
3807
3807
3807
3003
3007
3807
3807
3807
3C0E
3E1E
37FC
33F8
ENDCHAR
STARTCHAR char595
ENCODING 595
SWIDTH 22 0
DWIDTH 18 0
BBX 15 24 2 -1
BITMAP
7800
F800
E000
E000
E000
E000
E7E0
FFF0
FCF8
F03C
F01C
E00E
E00E
E00E
E00E
E00E
E00E
E00E
E01C
F01C
F838
DFF8
CFF0
0380
ENDCHAR
STARTCHAR char596
ENCODING 596
SWIDTH 16 0
DWIDTH 16 0
BBX 14 18 1 -1
BITMAP
1FC0
3FF0
78F8
7038
E01C
E01C
001C
001C
001C
001C
001C
001C
E01C
E038
7078
7FF0
1FE0
0780
ENDCHAR
STARTCHAR char597
ENCODING 597
SWIDTH 16 0
DWIDTH 16 0
BBX 15 18 0 -1
BITMAP
07F0
0FF8
1E3C
381E
380E
700E
7000
7000
7000
7000
70F8
73FC
778E
3F0E
3C0E
3FFC
FFF8
61E0
ENDCHAR
STARTCHAR char598
ENCODING 598
SWIDTH 24 0
DWIDTH 19 0
BBX 18 30 1 -7
BITMAP
000E00
000E00
000E00
000E00
000E00
000E00
0FCE00
1FFE00
3C7E00
781E00
701E00
E00E00
E00E00
E00E00
E00E00
E00E00
E00E00
E00E00
F00E00
701E00
783E00
3FF600
1FE600
078600
000600
000600
000600
000700
0007C0
0003C0
ENDCHAR
STARTCHAR char599
ENCODING 599
SWIDTH 24 0
DWIDTH 19 0
BBX 18 24 1 -1
BITMAP
0007C0
0007C0
000E00
000E00
000E00
000E00
0FCE00
1FFE00
3C7E00
781E00
701E00
E00E00
E00E00
E00E00
E00E00
E00E00
E00E00
E00E00
F00E00
701E00
783E00
3FF600
1FE600
078000
ENDCHAR
STARTCHAR char600
ENCODING 600
SWIDTH 19 0
DWIDTH 17 0
BBX 15 18 1 -1
BITMAP
0FE0
1FF0
3C78
701C
701C
E00E
E00E
FFFE
FFFE
FFFE
000E
000E
E00E
701C
783C
3FF8
1FF0
0380
ENDCHAR
STARTCHAR char601
ENCODING 601
SWIDTH 19 0
DWIDTH 17 0
BBX 15 18 1 -1
BITMAP
0FE0
3FF0
3C78
701C
601C
E00E
000E
000E
FFFE
FFFE
E00E
E00E
E00E
701C
783C
3FF8
1FF0
07C0
ENDCHAR
STARTCHAR char602
ENCODING 602
SWIDTH 13 0
DWIDTH 25 0
BBX 23 19 1 -1
BITMAP
0001C0
0FE3C0
3FF7E0
3C7EE0
701C60
601C70
E00E72
000E32
000E3E
FFFE1E
FFFE08
E00E00
E00E00
E00E00
701C00
783C00
3FF800
1FF000
03C000
ENDCHAR
STARTCHAR char603
ENCODING 603
SWIDTH 16 0
DWIDTH 16 0
BBX 14 18 1 -1
BITMAP
1FE0
3FF0
7878
7038
6038
7000
7000
3F80
1F80
7F80
F000
E000
E01C
E038
F038
7FF8
3FF0
0780
ENDCHAR
STARTCHAR char604
ENCODING 604
SWIDTH 16 0
DWIDTH 16 0
BBX 14 18 1 -1
BITMAP
1FC0
3FF0
78F0
7038
E038
0038
0078
07F0
07E0
07F0
0078
0038
E01C
E038
F038
7FF8
3FE0
0780
ENDCHAR
STARTCHAR char605
ENCODING 605
SWIDTH 10 0
DWIDTH 24 0
BBX 22 19 1 -1
BITMAP
000700
1FCF80
3FFD80
78F980
7039C0
E038C0
0038C4
0078EC
07F07C
07E078
07F000
007800
003800
E01C00
E03800
F03800
7FF800
3FE000
078000
ENDCHAR
STARTCHAR char606
ENCODING 606
SWIDTH 16 0
DWIDTH 16 0
BBX 14 18 1 -1
BITMAP
1FE0
3FF0
7C78
7038
E01C
E01C
E038
E3F8
E3F0
E3F8
E03C
E01C
E01C
701C
783C
3FF8
1FF0
0780
ENDCHAR
STARTCHAR char607
ENCODING 607
SWIDTH 25 0
DWIDTH 9 0
BBX 8 24 1 -7
BITMAP
38
38
38
38
38
38
38
FF
FF
38
38
38
38
38
38
38
38
38
38
38
38
78
F8
E0
ENDCHAR
STARTCHAR char608
ENCODING 608
SWIDTH 24 0
DWIDTH 19 0
BBX 17 28 1 -7
BITMAP
000380
000780
000F80
000E00
0FCE00
1FEE00
3C7E00
703E00
701E00
E01E00
E00E00
E00E00
E00E00
E00E00
E00E00
E00E00
E01E00
701E00
783E00
3FEE00
1FCE00
070E00
000C00
601C00
701C00
7C7800
3FF000
0FC000
ENDCHAR
STARTCHAR char609
ENCODING 609
SWIDTH 22 0
DWIDTH 18 0
BBX 16 24 1 -7
BITMAP
0FC7
1FEF
3C7F
703E
701E
E01E
E00E
E00E
E00E
E00E
E00E
E00E
E01E
701E
783E
3FEE
1FCE
070E
000C
601C
701C
7C78
3FF0
0FC0
ENDCHAR
STARTCHAR char610
ENCODING 610
SWIDTH 22 0
DWIDTH 18 0
BBX 16 18 1 -1
BITMAP
07F0
1FF8
3E3C
780E
700E
E000
E000
E000
E0FF
E0FF
E007
E007
600F
700F
381F
3FFB
0FF3
03C0
ENDCHAR
STARTCHAR char611
ENCODING 611
SWIDTH 13 0
DWIDTH 15 0
BBX 15 24 0 -7
BITMAP
E00E
700E
701C
381C
3838
1C38
1C70
0E70
0E70
0EE0
07E0
07C0
03C0
0380
03C0
07C0
07E0
0EE0
0E70
0C70
0C70
0E70
0FE0
07C0
ENDCHAR
STARTCHAR char612
ENCODING 612
SWIDTH 22 0
DWIDTH 18 0
BBX 17 18 0 -1
BITMAP
1E3C00
3FFE00
7BF700
71C380
61E380
E3E180
037000
073000
063800
0E1800
0E1800
0E1C00
0E1C00
0E1800
0E3800
07F800
03F000
00E000
ENDCHAR
STARTCHAR char613
ENCODING 613
SWIDTH 19 0
DWIDTH 17 0
BBX 13 24 2 -7
BITMAP
E018
E018
E018
E018
E018
E018
E018
E018
E018
E018
E038
E038
E038
E078
F0F8
7FD8
3F98
0018
0018
0018
0018
0018
0018
0018
ENDCHAR
STARTCHAR char614
ENCODING 614
SWIDTH 19 0
DWIDTH 17 0
BBX 13 23 2 0
BITMAP
7800
F800
E000
E000
E000
E000
E7E0
FFF0
F878
F038
E038
E018
E018
E018
E018
E018
E018
E018
E018
E018
E018
E018
E018
ENDCHAR
STARTCHAR char615
ENCODING 615
SWIDTH 19 0
DWIDTH 17 0
BBX 13 30 2 -7
BITMAP
7800
F800
E000
E000
E000
E000
E7E0
FFF0
F878
F038
E038
E018
E018
E018
E018
E018
E018
E018
E018
E018
E018
E018
E018
0018
0018
0018
0038
0078
00F8
00E0
ENDCHAR
STARTCHAR char616
ENCODING 616
SWIDTH 25 0
DWIDTH 9 0
BBX 8 23 0 0
BITMAP
1C
1C
1C
00
00
00
1C
1C
1C
1C
1C
1C
1C
FF
FF
1C
1C
1C
1C
1C
1C
1C
1C
ENDCHAR
STARTCHAR char617
ENCODING 617
SWIDTH 22 0
DWIDTH 8 0
BBX 6 18 2 -1
BITMAP
E0
E0
E0
E0
E0
E0
E0
E0
E0
E0
E0
E0
E0
E0
E0
FC
FC
3C
ENDCHAR
STARTCHAR char618
ENCODING 618
SWIDTH 25 0
DWIDTH 9 0
BBX 7 17 1 0
BITMAP
FE
FE
FE
38
38
38
38
38
38
38
38
38
38
38
38
FE
FE
ENDCHAR
STARTCHAR char619
ENCODING 619
SWIDTH 13 0
DWIDTH 15 0
BBX 13 23 1 0
BITMAP
0600
0600
0600
0600
0600
0600
0600
0600
0600
7E00
FE08
CF08
C7F8
87F0
0600
0600
0600
0600
0600
0600
0600
0600
0600
ENDCHAR
STARTCHAR char620
ENCODING 620
SWIDTH 10 0
DWIDTH 14 0
BBX 12 23 1 0
BITMAP
0E00
0E00
0E00
0E00
0E00
0E00
0E00
7E00
FE00
EE00
CE00
FE00
FFF0
7FF0
0E00
0E00
0E00
0E00
0E00
0E00
0E00
0E00
0E00
ENDCHAR
STARTCHAR char621
ENCODING 621
SWIDTH 22 0
DWIDTH 8 0
BBX 6 30 2 -7
BITMAP
E0
E0
E0
E0
E0
E0
E0
E0
E0
E0
E0
E0
E0
E0
E0
E0
E0
E0
E0
E0
E0
E0
E0
E0
E0
E0
E0
F8
7C
3C
ENDCHAR
STARTCHAR char622
ENCODING 622
SWIDTH 24 0
DWIDTH 19 0
BBX 17 28 2 -5
BITMAP
E00000
E00000
E00000
E00000
E00000
E00000
FFFE00
FFFE00
FFFE00
E01C00
E03C00
E07800
E07000
E0E000
E1F000
E1FC00
E03E00
E00F00
E00700
E00300
E00380
E00300
E00700
080700
3C1E00
1FFE00
0FF800
008000
ENDCHAR
STARTCHAR char623
ENCODING 623
SWIDTH 16 0
DWIDTH 26 0
BBX 22 17 2 0
BITMAP
E0301C
E0301C
E0301C
E0301C
E0301C
E0301C
E0301C
E0301C
E0301C
E0301C
E0301C
E0301C
E0701C
E0781C
F0F87C
7FBFEC
7F1FCC
ENDCHAR
STARTCHAR char624
ENCODING 624
SWIDTH 16 0
DWIDTH 26 0
BBX 22 23 2 -6
BITMAP
E0301C
E0301C
E0301C
E0301C
E0301C
E0301C
E0301C
E0301C
E0301C
E0301C
E0301C
E0301C
E0701C
E0783C
F0F87C
7FBFEC
7F1FCC
00000C
00000C
00000C
00000C
00000C
00000C
ENDCHAR
STARTCHAR char625
ENCODING 625
SWIDTH 16 0
DWIDTH 26 0
BBX 22 24 2 -7
BITMAP
C7C3F0
DFE7F8
F8FE3C
F0781C
E0381C
E0301C
E0301C
E0301C
E0301C
E0301C
E0301C
E0301C
E0301C
E0301C
E0301C
E0301C
E0301C
00001C
00001C
00001C
00001C
00003C
00007C
000070
ENDCHAR
STARTCHAR char626
ENCODING 626
SWIDTH 22 0
DWIDTH 18 0
BBX 16 24 0 -7
BITMAP
1CFC
1DFF
1F0F
1E07
1E03
1C03
1C03
1C03
1C03
1C03
1C03
1C03
1C03
1C03
1C03
1C03
1C03
1C00
1C00
1C00
1C00
7C00
F800
F000
ENDCHAR
STARTCHAR char627
ENCODING 627
SWIDTH 22 0
DWIDTH 18 0
BBX 16 24 2 -7
BITMAP
C7E0
CFF0
D878
F038
E018
E018
E018
E018
E018
E018
E018
E018
E018
E018
E018
E018
E018
0018
0018
0018
0018
001E
001F
000F
ENDCHAR
STARTCHAR char628
ENCODING 628
SWIDTH 22 0
DWIDTH 18 0
BBX 14 17 2 0
BITMAP
F01C
F01C
F81C
F81C
FC1C
EC1C
EE1C
E71C
E71C
E39C
E39C
E1DC
E0DC
E0FC
E07C
E07C
E03C
ENDCHAR
STARTCHAR char629
ENCODING 629
SWIDTH 19 0
DWIDTH 17 0
BBX 15 18 1 -1
BITMAP
0FE0
1FF8
3C78
701C
701C
E00E
E00E
E00E
FFFE
FFFE
E00E
E00E
E00E
701C
783C
3FF8
1FF0
0380
ENDCHAR
STARTCHAR char630
ENCODING 630
SWIDTH 10 0
DWIDTH 24 0
BBX 22 18 1 -1
BITMAP
0FEFFC
1FFFFC
3C7FFC
701C00
701C00
E00C00
E00C00
E00FF8
E00FF8
E00FF8
E00C00
E00C00
E00C00
701C00
783C00
3FFFFC
1FFFFC
038000
ENDCHAR
STARTCHAR char631
ENCODING 631
SWIDTH 7 0
DWIDTH 23 0
BBX 21 17 1 0
BITMAP
03FF00
0FFFC0
3F03E0
3800F0
700070
607038
E07038
E07038
E07018
E07018
E07018
E07038
E07038
707038
70F870
3FDFE0
1F8FC0
ENDCHAR
STARTCHAR char632
ENCODING 632
SWIDTH 4 0
DWIDTH 22 0
BBX 20 29 1 -6
BITMAP
006000
006000
006000
006000
006000
006000
07FE00
1FFF80
3FFFC0
7861E0
7060E0
E06070
E06070
E06070
C06030
C06070
E06070
E06070
706070
7860E0
3E67C0
1FFFC0
0FFF00
006000
006000
006000
006000
006000
006000
ENDCHAR
STARTCHAR char633
ENCODING 633
SWIDTH 2 0
DWIDTH 11 0
BBX 8 17 1 0
BITMAP
07
07
07
07
07
07
07
07
07
07
07
07
0F
0F
7F
F7
E7
ENDCHAR
STARTCHAR char634
ENCODING 634
SWIDTH 2 0
DWIDTH 11 0
BBX 8 23 1 0
BITMAP
07
07
07
07
07
07
07
07
07
07
07
07
07
07
07
07
07
07
0F
0F
7F
F7
E7
ENDCHAR
STARTCHAR char635
ENCODING 635
SWIDTH 5 0
DWIDTH 12 0
BBX 11 24 1 -7
BITMAP
0700
0700
0700
0700
0700
0700
0700
0700
0700
0700
0700
0700
0F00
0F00
7F00
F700
E700
0700
0700
0700
0700
0780
03E0
01E0
ENDCHAR
STARTCHAR char636
ENCODING 636
SWIDTH 2 0
DWIDTH 11 0
BBX 8 23 2 -6
BITMAP
C7
CF
DF
F0
E0
E0
E0
E0
E0
E0
E0
E0
E0
E0
E0
E0
E0
E0
E0
E0
E0
E0
E0
ENDCHAR
STARTCHAR char637
ENCODING 637
SWIDTH 2 0
DWIDTH 11 0
BBX 8 24 2 -7
BITMAP
C7
CF
DF
F0
E0
E0
E0
E0
E0
E0
E0
E0
E0
E0
E0
E0
E0
E0
E0
E0
E0
F0
F8
38
ENDCHAR
STARTCHAR char638
ENCODING 638
SWIDTH 5 0
DWIDTH 12 0
BBX 9 17 2 0
BITMAP
7F00
FF80
E380
E380
E000
E000
E000
E000
E000
E000
E000
E000
E000
E000
E000
E000
E000
ENDCHAR
STARTCHAR char639
ENCODING 639
SWIDTH 5 0
DWIDTH 12 0
BBX 9 23 1 -6
BITMAP
7F00
FF00
E380
C380
0380
0380
0380
0380
0380
0380
0380
0380
0380
0380
0380
0380
0380
0380
0380
0380
0380
0380
0380
ENDCHAR
STARTCHAR char640
ENCODING 640
SWIDTH 19 0
DWIDTH 17 0
BBX 14 17 2 0
BITMAP
FF80
FFE0
FFF0
E078
E038
E038
E038
E0F0
FFF0
FFC0
E780
E3C0
E1C0
E0E0
E070
E038
E01C
ENDCHAR
STARTCHAR char641
ENCODING 641
SWIDTH 19 0
DWIDTH 17 0
BBX 15 17 2 0
BITMAP
E01E
E03C
E078
E0F0
E1E0
E1C0
E380
FF80
FFE0
FFF0
E038
E038
E038
E038
E0F0
FFF0
FFC0
ENDCHAR
STARTCHAR char642
ENCODING 642
SWIDTH 16 0
DWIDTH 16 0
BBX 14 24 1 -7
BITMAP
1FE0
3FF0
7870
7038
E038
6000
7800
7F00
3FE0
07F8
0078
001C
E01C
E01C
F038
FFF8
FFF0
EF80
E000
E000
E000
F800
7C00
3C00
ENDCHAR
STARTCHAR char643
ENCODING 643
SWIDTH 28 0
DWIDTH 10 0
BBX 8 30 1 -7
BITMAP
0F
1F
18
38
38
38
38
38
38
38
38
38
38
38
38
38
38
38
38
38
38
38
38
38
38
38
38
78
F8
E0
ENDCHAR
STARTCHAR char644
ENCODING 644
SWIDTH 28 0
DWIDTH 10 0
BBX 8 30 1 -7
BITMAP
0F
1F
18
38
38
38
38
38
38
38
38
38
38
FF
FF
38
38
38
38
38
38
38
38
38
38
38
38
78
F8
E0
ENDCHAR
STARTCHAR char645
ENCODING 645
SWIDTH 28 0
DWIDTH 10 0
BBX 8 24 1 -7
BITMAP
F0
F8
38
18
18
18
18
18
18
18
18
18
18
18
18
18
18
18
18
18
1C
1E
1F
07
ENDCHAR
STARTCHAR char646
ENCODING 646
SWIDTH 13 0
DWIDTH 15 0
BBX 14 30 0 -7
BITMAP
0078
00F8
00E0
00E0
00E0
00E0
00E0
00E0
00E0
00E0
00E0
00E0
00E0
00E0
00E0
00E0
00E0
00E0
00E0
00E0
00E0
00E0
00E0
3FE0
7FF8
60FC
E0FC
79E0
7FC0
1F80
ENDCHAR
STARTCHAR char647
ENCODING 647
SWIDTH 25 0
DWIDTH 9 0
BBX 7 22 1 0
BITMAP
F0
F8
38
38
38
38
38
38
38
38
38
38
38
38
38
FE
FE
38
38
38
38
38
ENDCHAR
STARTCHAR char648
ENCODING 648
SWIDTH 25 0
DWIDTH 9 0
BBX 7 28 1 -7
BITMAP
38
38
38
38
FE
FE
38
38
38
38
38
38
38
38
38
38
38
38
38
38
38
38
38
38
38
38
3E
1E
ENDCHAR
STARTCHAR char649
ENCODING 649
SWIDTH 24 0
DWIDTH 19 0
BBX 19 18 0 -1
BITMAP
180700
180700
180700
180700
180700
180700
180700
FFFFE0
FFFFE0
180700
180700
180700
180700
1C0F00
1C0F00
1FFB00
0FF300
03C000
ENDCHAR
STARTCHAR char650
ENCODING 650
SWIDTH 24 0
DWIDTH 19 0
BBX 17 18 1 -1
BITMAP
FE1F80
FE1F80
1C1E00
380E00
700700
700380
E00380
E00380
E00180
E00180
E00380
E00380
700380
780700
3C0E00
1FFE00
0FF800
03E000
ENDCHAR
STARTCHAR char651
ENCODING 651
SWIDTH 19 0
DWIDTH 17 0
BBX 14 18 2 -1
BITMAP
E000
E000
E1E0
E070
E070
E038
E038
E01C
E01C
E01C
E018
E038
E038
E070
E0F0
FFE0
FF80
7E00
ENDCHAR
STARTCHAR char652
ENCODING 652
SWIDTH 16 0
DWIDTH 16 0
BBX 14 17 1 0
BITMAP
0380
0780
0780
0FC0
0FC0
0CE0
1CE0
1CE0
1870
3870
3870
7038
7038
7038
E01C
E01C
E01C
ENDCHAR
STARTCHAR char653
ENCODING 653
SWIDTH 7 0
DWIDTH 23 0
BBX 23 17 0 0
BITMAP
0701C0
0781C0
0783E0
0F83E0
0F8360
0DC360
1DC770
1CC770
1CC630
18E638
38EE38
386E38
306C18
707C1C
707C1C
703C1C
E0380E
ENDCHAR
STARTCHAR char654
ENCODING 654
SWIDTH 13 0
DWIDTH 15 0
BBX 14 24 1 0
BITMAP
0038
00F8
01F8
01C0
0380
0380
0380
0700
0780
0780
0F80
0FC0
0DC0
1CC0
1CE0
38E0
3860
3870
7070
7030
6038
E038
E018
C01C
ENDCHAR
STARTCHAR char655
ENCODING 655
SWIDTH 16 0
DWIDTH 16 0
BBX 16 17 0 0
BITMAP
F007
700E
381C
381C
1C38
0E38
0E70
0760
03E0
03C0
01C0
01C0
01C0
01C0
01C0
01C0
01C0
ENDCHAR
STARTCHAR char656
ENCODING 656
SWIDTH 22 0
DWIDTH 18 0
BBX 16 24 1 -7
BITMAP
7FF8
7FF8
7FF8
0070
00F0
00E0
01C0
0380
0700
0E00
1E00
1C00
3800
7000
E000
FFFC
FFFC
001C
001C
001C
001C
001E
001F
0007
ENDCHAR
STARTCHAR char657
ENCODING 657
SWIDTH 16 0
DWIDTH 16 0
BBX 14 20 1 -3
BITMAP
7FF8
7FF8
7FF8
0070
00F0
00E0
01C0
0380
0700
0E00
1E70
1CFC
39FC
718C
E19C
FFFC
FFF0
0180
0180
0180
ENDCHAR
STARTCHAR char658
ENCODING 658
SWIDTH 19 0
DWIDTH 17 0
BBX 15 22 1 -5
BITMAP
7FF8
7FF8
7FF8
0078
0070
00E0
01C0
0380
03C0
03F8
00FC
001C
000E
000E
C00E
E00E
E00E
E01C
783C
3FF8
1FF0
0100
ENDCHAR
STARTCHAR char659
ENCODING 659
SWIDTH 19 0
DWIDTH 17 0
BBX 15 21 1 -4
BITMAP
FFF0
FFF0
FFF0
00F0
00E0
01C0
0380
0700
07C0
07F0
01F8
0038
001C
001C
1F9C
3FFC
3FFE
703E
307E
3FF0
1FC0
ENDCHAR
STARTCHAR char660
ENCODING 660
SWIDTH 16 0
DWIDTH 16 0
BBX 14 23 1 0
BITMAP
0300
1FF0
7FF8
7038
F01C
E01C
E01C
E01C
001C
0038
03F8
03E0
0300
0300
0300
0300
0300
0300
0300
0300
0300
0300
0300
ENDCHAR
STARTCHAR char661
ENCODING 661
SWIDTH 16 0
DWIDTH 16 0
BBX 14 23 1 0
BITMAP
0300
3FE0
7FF0
7038
E038
E01C
E01C
E01C
E000
7000
7F00
3F00
0300
0300
0300
0300
0300
0300
0300
0300
0300
0300
0300
ENDCHAR
STARTCHAR char662
ENCODING 662
SWIDTH 16 0
DWIDTH 16 0
BBX 14 23 1 0
BITMAP
0300
0300
0300
0300
0300
0300
0300
0300
0300
0300
0300
1F00
3F00
7800
E000
E000
E01C
E01C
E01C
F038
7FF8
3FF0
0FC0
ENDCHAR
STARTCHAR char663
ENCODING 663
SWIDTH 4 0
DWIDTH 22 0
BBX 20 31 1 -7
BITMAP
007800
03FF00
0FFF80
1F03C0
3C01E0
3800E0
7800F0
700070
700000
700000
E00000
E00000
E00000
E00000
E00000
E00000
E00000
E00000
E00000
E00000
E00000
E00000
700070
700070
780070
3800E0
3C01E0
1F03C0
0FFF80
07FF00
00F800
ENDCHAR
STARTCHAR char664
ENCODING 664
SWIDTH 13 0
DWIDTH 25 0
BBX 23 25 1 -1
BITMAP
007C00
03FF80
07FFC0
0F01F0
1E00F0
3C0078
78003C
70001C
70001C
70001E
E0000E
E0380E
E0380E
E0380E
E0000E
70001E
70001C
70001C
78003C
3C0038
1E00F0
1F01F0
07FFC0
03FF80
007C00
ENDCHAR
STARTCHAR char665
ENCODING 665
SWIDTH 16 0
DWIDTH 16 0
BBX 13 17 2 0
BITMAP
FF80
FFE0
FFE0
E0F0
E070
E070
E0E0
FFE0
FFC0
FFF0
E070
E038
E038
E078
E0F0
FFE0
FFC0
ENDCHAR
STARTCHAR char666
ENCODING 666
SWIDTH 16 0
DWIDTH 16 0
BBX 14 18 1 -1
BITMAP
1FE0
3FF0
7878
703C
601C
701C
701C
3F1C
1F1C
7F1C
F01C
E01C
E01C
E03C
F078
7FF8
3FF0
0780
ENDCHAR
STARTCHAR char667
ENCODING 667
SWIDTH 27 0
DWIDTH 20 0
BBX 18 18 1 -1
BITMAP
07F3C0
1FFFC0
3E3F00
780F00
700E00
E00000
E00000
E00000
E0FF00
E0FF00
E00700
E00700
600F00
700F00
381F00
3FFB00
0FF300
03C000
ENDCHAR
STARTCHAR char668
ENCODING 668
SWIDTH 19 0
DWIDTH 17 0
BBX 13 17 2 0
BITMAP
E018
E018
E018
E018
E018
E018
E018
FFF8
FFF8
FFF8
E018
E018
E018
E018
E018
E018
E018
ENDCHAR
STARTCHAR char669
ENCODING 669
SWIDTH 13 0
DWIDTH 15 0
BBX 14 30 0 -7
BITMAP
00E0
00E0
00E0
0000
0000
0000
00E0
00E0
00E0
00E0
00E0
00E0
00E0
00E0
00E0
00E0
00E0
00E0
00E0
00E0
00E0
00E0
00E0
3FE0
7FF8
E0FC
E0FC
79C0
7FC0
1F80
ENDCHAR
STARTCHAR char670
ENCODING 670
SWIDTH 16 0
DWIDTH 16 0
BBX 14 23 1 -6
BITMAP
E01C
E01C
701C
781C
381C
1C1C
1E1C
0E3C
077C
07FC
03DC
039C
071C
0E1C
1C1C
381C
701C
001C
001C
001C
001C
001C
001C
ENDCHAR
STARTCHAR char671
ENCODING 671
SWIDTH 5 0
DWIDTH 12 0
BBX 10 17 2 0
BITMAP
E000
E000
E000
E000
E000
E000
E000
E000
E000
E000
E000
E000
E000
E000
E000
FFC0
FFC0
ENDCHAR
STARTCHAR char672
ENCODING 672
SWIDTH 24 0
DWIDTH 19 0
BBX 18 28 1 -7
BITMAP
0001C0
0007C0
0007C0
000E00
0FCE00
1FFE00
3E7E00
781E00
701E00
E00E00
E00E00
E00E00
E00E00
E00E00
E00E00
E00E00
F00E00
701E00
783E00
3FFE00
1FEE00
078E00
000E00
000E00
000E00
000E00
000E00
000E00
ENDCHAR
STARTCHAR char673
ENCODING 673
SWIDTH 16 0
DWIDTH 16 0
BBX 14 23 1 0
BITMAP
0300
1FF0
7FF8
7038
F01C
E01C
E01C
E01C
001C
0038
03F8
03E0
0300
3FF0
3FF0
0300
0300
0300
0300
0300
0300
0300
0300
ENDCHAR
STARTCHAR char674
ENCODING 674
SWIDTH 16 0
DWIDTH 16 0
BBX 14 23 1 0
BITMAP
0300
3FE0
7FF0
7038
E038
E01C
E01C
E01C
E000
7000
7F00
3F00
0300
3FF0
3FF0
0300
0300
0300
0300
0300
0300
0300
0300
ENDCHAR
STARTCHAR char675
ENCODING 675
SWIDTH 24 0
DWIDTH 29 0
BBX 28 24 1 -1
BITMAP
000E0000
000E0000
000E0000
000E0000
000E0000
000E0000
0FCFFFE0
1FFFFFE0
3C7FFFE0
781E01E0
701E01C0
E00E0380
E00E0700
E00E0E00
E00E1E00
E00E3C00
E00E3800
E00E7000
F00EE000
701FC000
783FC000
3FF7FFF0
1FE7FFF0
07800000
ENDCHAR
STARTCHAR char676
ENCODING 676
SWIDTH 1 0
DWIDTH 31 0
BBX 29 28 1 -5
BITMAP
000E0000
000E0000
000E0000
000E0000
000E0000
000E0000
0FCFFFE0
1FFFFFE0
3C7FFFE0
781E01E0
701E01C0
E00E0380
E00E0700
E00E0E00
E00E0F00
E00E0FE0
E00E03F0
E00E0070
F00E0078
701E0038
783E0038
3FF60038
1FE60038
07808070
0001E0F0
0001FFE0
00007FC0
00001E00
ENDCHAR
STARTCHAR char677
ENCODING 677
SWIDTH 27 0
DWIDTH 30 0
BBX 29 26 1 -3
BITMAP
000E0000
000E0000
000E0000
000E0000
000E0000
000E0000
0FCFFFE0
1FFFFFE0
3C7FFFE0
781E01E0
701E01C0
E00E0380
E00E0700
E00E0E00
E00E1E00
E00E3C00
E00E38C0
E00E73F0
F00EE7F0
701FC738
783FC638
3FF7FFF0
1FE7FFE0
07800600
00000600
00000600
ENDCHAR
STARTCHAR char678
ENCODING 678
SWIDTH 7 0
DWIDTH 23 0
BBX 21 22 1 -1
BITMAP
380000
380000
380000
380000
FE3F80
FE7FE0
38F1E0
38E070
39C070
39C000
38E000
38FE00
387FC0
380FF0
3800F0
380078
380038
380030
380070
3FFFF0
3FFFC0
0FFF00
ENDCHAR
STARTCHAR char679
ENCODING 679
SWIDTH 19 0
DWIDTH 17 0
BBX 15 30 1 -7
BITMAP
001E
003E
3838
3830
3830
3830
FFF0
FFF0
3830
3830
3830
3830
3830
3830
3830
3830
3830
3830
3830
3830
3830
3FF0
3FF0
1F30
0030
0030
0030
00F0
01F0
01C0
ENDCHAR
STARTCHAR char680
ENCODING 680
SWIDTH 13 0
DWIDTH 25 0
BBX 23 25 1 -4
BITMAP
380000
380000
380000
380000
FE0FE0
FE1FF0
383C78
38703C
38701C
38E01C
38E000
38E000
38E000
38E000
38E000
38E078
3860FE
3870CE
3878C6
3FFFFE
3FDFFC
1C01E0
0000C0
0000C0
0000C0
ENDCHAR
STARTCHAR char681
ENCODING 681
SWIDTH 16 0
DWIDTH 26 0
BBX 23 29 1 -6
BITMAP
1E0000
3E0000
380000
380000
380000
380000
FFF3F0
FFF7FC
387E3C
38781E
38780E
38700E
38700E
38700E
38700E
38700E
38700E
38700E
38700E
38700E
38700E
38700E
38700E
00000E
00000E
00000E
00001E
00007C
000078
ENDCHAR
STARTCHAR char682
ENCODING 682
SWIDTH 2 0
DWIDTH 21 0
BBX 18 24 2 -1
BITMAP
E00000
E00000
E00000
E00000
E00000
E00000
E0FE00
E3FF00
E78780
E70380
E70180
E70000
E78000
E3F000
E1FE00
E07F80
E007C0
E001C0
E001C0
F001C0
FE03C0
FFFF80
E7FF00
00FC00
ENDCHAR
STARTCHAR char683
ENCODING 683
SWIDTH 22 0
DWIDTH 18 0
BBX 16 23 2 0
BITMAP
E000
E000
E000
E000
E000
E000
FFFE
FFFE
FFFE
E01C
E03C
E078
E070
E0E0
E1C0
E380
E780
E700
EE00
FC00
F800
FFFF
FFFF
ENDCHAR
STARTCHAR char684
ENCODING 684
SWIDTH 19 0
DWIDTH 17 0
BBX 14 23 2 0
BITMAP
C30C
C70C
C708
4798
6598
6C98
6CD0
2CF0
38F0
3860
1860
0000
C30C
C70C
C708
4798
6598
6C98
6CD0
2CF0
38F0
3860
1860
ENDCHAR
STARTCHAR char685
ENCODING 685
SWIDTH 16 0
DWIDTH 16 0
BBX 14 16 1 4
BITMAP
FFFC
FFFC
FFFC
C01C
C01C
0000
0000
0000
0000
0000
0000
0000
FFFC
FFFC
C01C
C01C
ENDCHAR
STARTCHAR char686
ENCODING 686
SWIDTH 22 0
DWIDTH 18 0
BBX 16 29 0 -6
BITMAP
F800
F800
1C00
1C00
1C00
1C00
1C03
1C03
1C03
1C03
1C03
1C03
1C03
1C03
1C03
1C03
1C03
1C03
1C07
1C07
1E0F
0FFB
0FF3
03C3
0003
0003
0003
0003
0003
ENDCHAR
STARTCHAR char687
ENCODING 687
SWIDTH 27 0
DWIDTH 20 0
BBX 19 30 0 -7
BITMAP
F80000
F80000
1C0000
1C0000
1C0000
1C0000
1C0000
1C0300
1C0300
1C0300
1C0300
1C0300
1C0300
1C0300
1C0300
1C0300
1C0300
1C0300
1C0700
1C0700
1E0F00
0FFB00
0FF300
03C300
000300
000300
000380
0003C0
0003E0
0000E0
ENDCHAR
STARTCHAR char688
ENCODING 688
SWIDTH 2 0
DWIDTH 11 0
BBX 8 15 1 12
BITMAP
C0
C0
C0
C0
DE
F7
C1
C1
C1
C1
C1
C1
C1
C1
C1
ENDCHAR
STARTCHAR char689
ENCODING 689
SWIDTH 2 0
DWIDTH 11 0
BBX 8 15 1 12
BITMAP
E0
C0
C0
C0
DE
F7
C1
C1
C1
C1
C1
C1
C1
C1
C1
ENDCHAR
STARTCHAR char690
ENCODING 690
SWIDTH 14 0
DWIDTH 5 0
BBX 3 20 1 8
BITMAP
20
20
00
00
20
20
20
20
20
20
20
20
20
20
20
20
20
60
E0
80
ENDCHAR
STARTCHAR char691
ENCODING 691
SWIDTH 22 0
DWIDTH 8 0
BBX 5 11 1 12
BITMAP
D8
F8
E0
C0
C0
C0
C0
C0
C0
C0
C0
ENDCHAR
STARTCHAR char692
ENCODING 692
SWIDTH 22 0
DWIDTH 8 0
BBX 5 11 1 12
BITMAP
08
08
08
08
08
08
08
18
18
E8
E8
ENDCHAR
STARTCHAR char693
ENCODING 693
SWIDTH 25 0
DWIDTH 9 0
BBX 7 15 1 8
BITMAP
18
18
18
18
18
18
18
18
38
F8
D8
18
18
0C
0E
ENDCHAR
STARTCHAR char694
ENCODING 694
SWIDTH 2 0
DWIDTH 11 0
BBX 9 11 1 12
BITMAP
C180
C300
C600
CC00
FE00
FF00
C180
C180
C380
FF00
FC00
ENDCHAR
STARTCHAR char695
ENCODING 695
SWIDTH 16 0
DWIDTH 16 0
BBX 14 11 1 13
BITMAP
C30C
C30C
C78C
6788
6698
6498
2CD8
3CD0
3C70
1870
1860
ENDCHAR
STARTCHAR char696
ENCODING 696
SWIDTH 2 0
DWIDTH 11 0
BBX 10 16 0 7
BITMAP
C0C0
6180
6180
6180
3300
3300
3300
1E00
1E00
1C00
0C00
0C00
1800
1800
7000
2000
ENDCHAR
STARTCHAR char697
ENCODING 697
SWIDTH 25 0
DWIDTH 9 0
BBX 5 9 2 14
BITMAP
20
38
78
70
70
E0
C0
C0
80
ENDCHAR
STARTCHAR char698
ENCODING 698
SWIDTH 13 0
DWIDTH 15 0
BBX 12 9 2 14
BITMAP
2040
38F0
78E0
70E0
71C0
E1C0
C180
C300
8300
ENDCHAR
STARTCHAR char699
ENCODING 699
SWIDTH 22 0
DWIDTH 8 0
BBX 3 8 3 16
BITMAP
60
C0
80
80
80
E0
E0
E0
ENDCHAR
STARTCHAR char700
ENCODING 700
SWIDTH 22 0
DWIDTH 8 0
BBX 3 8 3 15
BITMAP
E0
E0
E0
E0
60
60
60
C0
ENDCHAR
STARTCHAR char701
ENCODING 701
SWIDTH 22 0
DWIDTH 8 0
BBX 3 8 3 15
BITMAP
E0
E0
E0
E0
80
80
C0
60
ENDCHAR
STARTCHAR char702
ENCODING 702
SWIDTH 22 0
DWIDTH 8 0
BBX 3 5 3 19
BITMAP
C0
60
60
C0
C0
ENDCHAR
STARTCHAR char703
ENCODING 703
SWIDTH 22 0
DWIDTH 8 0
BBX 2 5 3 19
BITMAP
40
C0
80
80
C0
ENDCHAR
STARTCHAR char704
ENCODING 704
SWIDTH 2 0
DWIDTH 11 0
BBX 9 11 1 13
BITMAP
7F00
E300
C180
C180
0180
0300
1F00
1800
1800
1800
1800
ENDCHAR
STARTCHAR char705
ENCODING 705
SWIDTH 2 0
DWIDTH 11 0
BBX 9 11 1 13
BITMAP
7E00
E300
C180
C180
C000
E000
7800
0800
0800
0800
0800
ENDCHAR
STARTCHAR char706
ENCODING 706
SWIDTH 2 0
DWIDTH 11 0
BBX 9 6 1 17
BITMAP
0180
0E00
7000
C000
3C00
0780
ENDCHAR
STARTCHAR char707
ENCODING 707
SWIDTH 2 0
DWIDTH 11 0
BBX 9 6 1 18
BITMAP
E000
1C00
0380
0F00
7800
8000
ENDCHAR
STARTCHAR char708
ENCODING 708
SWIDTH 2 0
DWIDTH 11 0
BBX 7 6 2 18
BITMAP
30
28
68
44
84
82
ENDCHAR
STARTCHAR char709
ENCODING 709
SWIDTH 2 0
DWIDTH 11 0
BBX 7 6 2 18
BITMAP
82
84
44
68
28
10
ENDCHAR
STARTCHAR char710
ENCODING 710
SWIDTH 2 0
DWIDTH 11 0
BBX 8 5 1 19
BITMAP
1C
3E
76
67
C3
ENDCHAR
STARTCHAR char711
ENCODING 711
SWIDTH 2 0
DWIDTH 11 0
BBX 9 5 1 19
BITMAP
C180
E300
6600
3E00
3C00
ENDCHAR
STARTCHAR char712
ENCODING 712
SWIDTH 22 0
DWIDTH 8 0
BBX 2 6 3 19
BITMAP
C0
C0
C0
C0
C0
C0
ENDCHAR
STARTCHAR char713
ENCODING 713
SWIDTH 2 0
DWIDTH 11 0
BBX 9 2 1 20
BITMAP
FF80
FF80
ENDCHAR
STARTCHAR char714
ENCODING 714
SWIDTH 2 0
DWIDTH 11 0
BBX 6 5 3 19
BITMAP
1C
38
30
60
C0
ENDCHAR
STARTCHAR char715
ENCODING 715
SWIDTH 2 0
DWIDTH 11 0
BBX 6 5 1 19
BITMAP
E0
70
38
18
0C
ENDCHAR
STARTCHAR char716
ENCODING 716
SWIDTH 22 0
DWIDTH 8 0
BBX 2 6 3 -8
BITMAP
C0
C0
C0
C0
C0
C0
ENDCHAR
STARTCHAR char717
ENCODING 717
SWIDTH 2 0
DWIDTH 11 0
BBX 9 2 1 -5
BITMAP
FF80
FF80
ENDCHAR
STARTCHAR char718
ENCODING 718
SWIDTH 2 0
DWIDTH 11 0
BBX 6 4 3 -6
BITMAP
F0
70
38
1C
ENDCHAR
STARTCHAR char719
ENCODING 719
SWIDTH 2 0
DWIDTH 11 0
BBX 7 5 1 -6
BITMAP
1E
3C
38
70
E0
ENDCHAR
STARTCHAR char720
ENCODING 720
SWIDTH 2 0
DWIDTH 11 0
BBX 3 17 4 0
BITMAP
E0
C0
40
00
00
00
00
00
00
00
00
00
00
00
40
C0
E0
ENDCHAR
STARTCHAR char721
ENCODING 721
SWIDTH 2 0
DWIDTH 11 0
BBX 3 3 4 14
BITMAP
E0
C0
40
ENDCHAR
STARTCHAR char722
ENCODING 722
SWIDTH 22 0
DWIDTH 8 0
BBX 3 5 3 0
BITMAP
C0
60
60
C0
C0
ENDCHAR
STARTCHAR char723
ENCODING 723
SWIDTH 22 0
DWIDTH 8 0
BBX 2 5 3 1
BITMAP
40
C0
80
80
C0
ENDCHAR
STARTCHAR char724
ENCODING 724
SWIDTH 2 0
DWIDTH 11 0
BBX 10 8 0 5
BITMAP
0C00
0C00
0C00
0C00
0C00
0C00
FFC0
FFC0
ENDCHAR
STARTCHAR char725
ENCODING 725
SWIDTH 2 0
DWIDTH 11 0
BBX 10 8 0 5
BITMAP
FFC0
FFC0
0C00
0C00
0C00
0C00
0C00
0C00
ENDCHAR
STARTCHAR char726
ENCODING 726
SWIDTH 2 0
DWIDTH 11 0
BBX 10 10 0 4
BITMAP
0C00
0C00
0C00
0C00
FFC0
FFC0
FFC0
0C00
0C00
0C00
ENDCHAR
STARTCHAR char727
ENCODING 727
SWIDTH 2 0
DWIDTH 11 0
BBX 10 3 0 7
BITMAP
FFC0
FFC0
FFC0
ENDCHAR
STARTCHAR char728
ENCODING 728
SWIDTH 2 0
DWIDTH 11 0
BBX 9 4 1 19
BITMAP
C180
E380
7F00
3E00
ENDCHAR
STARTCHAR char729
ENCODING 729
SWIDTH 2 0
DWIDTH 11 0
BBX 3 3 4 20
BITMAP
E0
E0
E0
ENDCHAR
STARTCHAR char730
ENCODING 730
SWIDTH 2 0
DWIDTH 11 0
BBX 7 7 2 18
BITMAP
30
7C
EE
C6
CE
FC
38
ENDCHAR
STARTCHAR char731
ENCODING 731
SWIDTH 2 0
DWIDTH 11 0
BBX 6 7 2 -7
BITMAP
30
60
C0
C0
E0
7C
08
ENDCHAR
STARTCHAR char732
ENCODING 732
SWIDTH 2 0
DWIDTH 11 0
BBX 10 3 0 20
BITMAP
38C0
7FC0
CF80
ENDCHAR
STARTCHAR char733
ENCODING 733
SWIDTH 2 0
DWIDTH 11 0
BBX 11 5 0 19
BITMAP
39E0
73C0
7380
6700
C600
ENDCHAR
STARTCHAR char734
ENCODING 734
SWIDTH 2 0
DWIDTH 11 0
BBX 10 11 0 7
BITMAP
3800
7800
F800
DC00
8C00
0C00
0E40
0640
07C0
03C0
0100
ENDCHAR
STARTCHAR char735
ENCODING 735
SWIDTH 2 0
DWIDTH 11 0
BBX 9 6 1 20
BITMAP
8100
E380
3E00
1C00
7600
C380
ENDCHAR
STARTCHAR char736
ENCODING 736
SWIDTH 2 0
DWIDTH 11 0
BBX 10 16 0 7
BITMAP
C0C0
6180
6180
3100
3300
1B00
1E00
0E00
0C00
0E00
1E00
1A00
1300
1300
1E00
0C00
ENDCHAR
STARTCHAR char737
ENCODING 737
SWIDTH 16 0
DWIDTH 6 0
BBX 1 15 2 12
BITMAP
80
80
80
80
80
80
80
80
80
80
80
80
80
80
80
ENDCHAR
STARTCHAR char738
ENCODING 738
SWIDTH 2 0
DWIDTH 11 0
BBX 9 11 1 13
BITMAP
3E00
7700
C300
C000
F000
7E00
0700
0180
C180
E300
7F00
ENDCHAR
STARTCHAR char739
ENCODING 739
SWIDTH 2 0
DWIDTH 11 0
BBX 9 11 1 13
BITMAP
C180
6300
6600
3400
1C00
1800
1C00
3600
6600
C300
C180
ENDCHAR
STARTCHAR char740
ENCODING 740
SWIDTH 2 0
DWIDTH 11 0
BBX 10 15 0 12
BITMAP
1E00
7F00
6180
C180
C0C0
6000
7000
3C00
0C00
0C00
0C00
0C00
0C00
0C00
0C00
ENDCHAR
STARTCHAR char741
ENCODING 741
SWIDTH 19 0
DWIDTH 17 0
BBX 14 26 1 0
BITMAP
FFFC
FFFC
FFFC
001C
001C
001C
001C
001C
001C
001C
001C
001C
001C
001C
001C
001C
001C
001C
001C
001C
001C
001C
001C
001C
001C
001C
ENDCHAR
STARTCHAR char742
ENCODING 742
SWIDTH 19 0
DWIDTH 17 0
BBX 14 26 1 0
BITMAP
001C
001C
001C
001C
001C
001C
FFFC
FFFC
001C
001C
001C
001C
001C
001C
001C
001C
001C
001C
001C
001C
001C
001C
001C
001C
001C
001C
ENDCHAR
STARTCHAR char743
ENCODING 743
SWIDTH 19 0
DWIDTH 17 0
BBX 14 26 1 0
BITMAP
001C
001C
001C
001C
001C
001C
001C
001C
001C
001C
001C
001C
FFFC
FFFC
001C
001C
001C
001C
001C
001C
001C
001C
001C
001C
001C
001C
ENDCHAR
STARTCHAR char744
ENCODING 744
SWIDTH 19 0
DWIDTH 17 0
BBX 14 26 1 0
BITMAP
001C
001C
001C
001C
001C
001C
001C
001C
001C
001C
001C
001C
001C
001C
001C
001C
001C
001C
FFFC
FFFC
FFFC
001C
001C
001C
001C
001C
ENDCHAR
STARTCHAR char745
ENCODING 745
SWIDTH 19 0
DWIDTH 17 0
BBX 14 26 1 0
BITMAP
001C
001C
001C
001C
001C
001C
001C
001C
001C
001C
001C
001C
001C
001C
001C
001C
001C
001C
001C
001C
001C
001C
001C
001C
FFFC
FFFC
ENDCHAR
STARTCHAR char746
ENCODING 746
SWIDTH 19 0
DWIDTH 17 0
BBX 13 19 2 0
BITMAP
E000
E000
E000
E000
E000
E000
E000
E000
E000
E000
E000
E000
E000
E000
E000
E000
E000
FFF8
FFF8
ENDCHAR
STARTCHAR char747
ENCODING 747
SWIDTH 19 0
DWIDTH 17 0
BBX 13 20 2 0
BITMAP
E000
E000
E000
E000
E000
E000
E000
E000
E000
FFF8
FFF8
E000
E000
E000
E000
E000
E000
E000
E000
E000
ENDCHAR
STARTCHAR char748
ENCODING 748
SWIDTH 2 0
DWIDTH 11 0
BBX 9 5 1 -6
BITMAP
C180
6300
7700
3E00
3C00
ENDCHAR
STARTCHAR char749
ENCODING 749
SWIDTH 2 0
DWIDTH 11 0
BBX 9 6 1 19
BITMAP
FF80
FF80
0000
0000
FF80
FF80
ENDCHAR
STARTCHAR char750
ENCODING 750
SWIDTH 8 0
DWIDTH 13 0
BBX 8 7 3 16
BITMAP
E7
E7
E7
63
43
C6
84
ENDCHAR
STARTCHAR char751
ENCODING 751
SWIDTH 2 0
DWIDTH 11 0
BBX 7 6 2 -6
BITMAP
82
84
44
68
28
10
ENDCHAR
STARTCHAR char752
ENCODING 752
SWIDTH 2 0
DWIDTH 11 0
BBX 7 6 2 -7
BITMAP
30
38
48
4C
84
82
ENDCHAR
STARTCHAR char753
ENCODING 753
SWIDTH 2 0
DWIDTH 11 0
BBX 9 7 1 -8
BITMAP
0180
0E00
7000
C000
3C00
0780
0080
ENDCHAR
STARTCHAR char754
ENCODING 754
SWIDTH 2 0
DWIDTH 11 0
BBX 9 6 1 -6
BITMAP
E000
1C00
0380
0F00
7800
8000
ENDCHAR
STARTCHAR char755
ENCODING 755
SWIDTH 2 0
DWIDTH 11 0
BBX 7 7 2 -8
BITMAP
30
7C
EC
C6
CE
FC
78
ENDCHAR
STARTCHAR char756
ENCODING 756
SWIDTH 22 0
DWIDTH 8 0
BBX 6 5 1 12
BITMAP
E0
70
38
18
0C
ENDCHAR
STARTCHAR char757
ENCODING 757
SWIDTH 2 0
DWIDTH 11 0
BBX 10 5 0 12
BITMAP
F380
7380
39C0
18C0
0CC0
ENDCHAR
STARTCHAR char758
ENCODING 758
SWIDTH 2 0
DWIDTH 11 0
BBX 11 5 0 12
BITMAP
39E0
73C0
7380
6700
C600
ENDCHAR
STARTCHAR char759
ENCODING 759
SWIDTH 2 0
DWIDTH 11 0
BBX 10 3 0 -5
BITMAP
38C0
7FC0
EF80
ENDCHAR
STARTCHAR char760
ENCODING 760
SWIDTH 22 0
DWIDTH 8 0
BBX 3 17 3 2
BITMAP
E0
E0
E0
E0
00
00
00
00
00
00
00
00
00
00
E0
E0
E0
ENDCHAR
STARTCHAR char761
ENCODING 761
SWIDTH 16 0
DWIDTH 6 0
BBX 5 8 1 16
BITMAP
F8
F8
C0
C0
C0
C0
C0
C0
ENDCHAR
STARTCHAR char762
ENCODING 762
SWIDTH 16 0
DWIDTH 6 0
BBX 5 8 1 16
BITMAP
F8
F8
38
38
38
38
38
38
ENDCHAR
STARTCHAR char763
ENCODING 763
SWIDTH 16 0
DWIDTH 6 0
BBX 5 8 1 -2
BITMAP
C0
C0
C0
C0
C0
C0
F8
F8
ENDCHAR
STARTCHAR char764
ENCODING 764
SWIDTH 16 0
DWIDTH 6 0
BBX 5 8 1 -2
BITMAP
38
38
38
38
38
38
F8
F8
ENDCHAR
STARTCHAR char765
ENCODING 765
SWIDTH 2 0
DWIDTH 11 0
BBX 10 5 0 -6
BITMAP
E0C0
E0C0
E0C0
FFC0
FFC0
ENDCHAR
STARTCHAR char766
ENCODING 766
SWIDTH 2 0
DWIDTH 11 0
BBX 10 5 0 -6
BITMAP
E000
E000
E000
FFC0
FFC0
ENDCHAR
STARTCHAR char767
ENCODING 767
SWIDTH 2 0
DWIDTH 11 0
BBX 11 6 0 -7
BITMAP
3000
6000
FFE0
4000
2000
1000
ENDCHAR
STARTCHAR char768
ENCODING 768
SWIDTH 0 0
DWIDTH 0 0
BBX 6 5 -10 19
BITMAP
F0
70
38
1C
0C
ENDCHAR
STARTCHAR char769
ENCODING 769
SWIDTH 0 0
DWIDTH 0 0
BBX 6 5 -7 19
BITMAP
3C
38
70
E0
C0
ENDCHAR
STARTCHAR char770
ENCODING 770
SWIDTH 0 0
DWIDTH 0 0
BBX 9 5 -10 19
BITMAP
1C00
3E00
3700
6300
E180
ENDCHAR
STARTCHAR char771
ENCODING 771
SWIDTH 0 0
DWIDTH 0 0
BBX 9 3 -10 20
BITMAP
7180
FF80
CF80
ENDCHAR
STARTCHAR char772
ENCODING 772
SWIDTH 0 0
DWIDTH 0 0
BBX 9 2 -10 20
BITMAP
FF80
FF80
ENDCHAR
STARTCHAR char773
ENCODING 773
SWIDTH 0 0
DWIDTH 0 0
BBX 18 2 -14 20
BITMAP
FFFFC0
FFFFC0
ENDCHAR
STARTCHAR char774
ENCODING 774
SWIDTH 0 0
DWIDTH 0 0
BBX 9 4 -10 19
BITMAP
C180
E380
7F00
3E00
ENDCHAR
STARTCHAR char775
ENCODING 775
SWIDTH 0 0
DWIDTH 0 0
BBX 3 3 -7 20
BITMAP
E0
E0
E0
ENDCHAR
STARTCHAR char776
ENCODING 776
SWIDTH 0 0
DWIDTH 0 0
BBX 9 3 -10 20
BITMAP
E380
E380
E380
ENDCHAR
STARTCHAR char777
ENCODING 777
SWIDTH 0 0
DWIDTH 0 0
BBX 5 6 -9 18
BITMAP
F0
18
18
18
70
40
ENDCHAR
STARTCHAR char778
ENCODING 778
SWIDTH 0 0
DWIDTH 0 0
BBX 7 7 -9 18
BITMAP
18
7C
6E
C6
E6
7E
3C
ENDCHAR
STARTCHAR char779
ENCODING 779
SWIDTH 0 0
DWIDTH 0 0
BBX 10 5 -10 19
BITMAP
39C0
73C0
7380
6700
C600
ENDCHAR
STARTCHAR char780
ENCODING 780
SWIDTH 0 0
DWIDTH 0 0
BBX 9 5 -10 19
BITMAP
C180
6300
7700
3E00
1C00
ENDCHAR
STARTCHAR char781
ENCODING 781
SWIDTH 0 0
DWIDTH 0 0
BBX 3 6 -7 19
BITMAP
E0
E0
E0
E0
E0
E0
ENDCHAR
STARTCHAR char782
ENCODING 782
SWIDTH 0 0
DWIDTH 0 0
BBX 7 6 -9 19
BITMAP
C6
C6
C6
C6
C6
C6
ENDCHAR
STARTCHAR char783
ENCODING 783
SWIDTH 0 0
DWIDTH 0 0
BBX 10 5 -13 19
BITMAP
E780
7380
31C0
39C0
18C0
ENDCHAR
STARTCHAR char784
ENCODING 784
SWIDTH 0 0
DWIDTH 0 0
BBX 9 7 -10 19
BITMAP
1C00
1C00
1C00
C180
E380
7F00
3E00
ENDCHAR
STARTCHAR char785
ENCODING 785
SWIDTH 0 0
DWIDTH 0 0
BBX 9 4 -10 19
BITMAP
7F00
7F80
C180
C180
ENDCHAR
STARTCHAR char786
ENCODING 786
SWIDTH 0 0
DWIDTH 0 0
BBX 3 5 -7 19
BITMAP
60
E0
C0
E0
E0
ENDCHAR
STARTCHAR char787
ENCODING 787
SWIDTH 0 0
DWIDTH 0 0
BBX 3 6 -7 18
BITMAP
E0
E0
E0
20
E0
80
ENDCHAR
STARTCHAR char788
ENCODING 788
SWIDTH 0 0
DWIDTH 0 0
BBX 3 6 -7 18
BITMAP
E0
E0
E0
C0
60
20
ENDCHAR
STARTCHAR char789
ENCODING 789
SWIDTH 0 0
DWIDTH 0 0
BBX 3 5 0 18
BITMAP
E0
E0
E0
60
C0
ENDCHAR
STARTCHAR char790
ENCODING 790
SWIDTH 0 0
DWIDTH 0 0
BBX 5 4 -9 -6
BITMAP
E0
70
30
18
ENDCHAR
STARTCHAR char791
ENCODING 791
SWIDTH 0 0
DWIDTH 0 0
BBX 6 4 -8 -6
BITMAP
3C
38
70
E0
ENDCHAR
STARTCHAR char792
ENCODING 792
SWIDTH 0 0
DWIDTH 0 0
BBX 7 7 -9 -9
BITMAP
0E
0E
FE
FE
FE
0E
0E
ENDCHAR
STARTCHAR char793
ENCODING 793
SWIDTH 0 0
DWIDTH 0 0
BBX 6 7 -8 -9
BITMAP
C0
C0
FC
FC
FC
C0
C0
ENDCHAR
STARTCHAR char794
ENCODING 794
SWIDTH 0 0
DWIDTH 0 0
BBX 9 8 -7 14
BITMAP
FF80
FF80
0180
0180
0180
0180
0180
0180
ENDCHAR
STARTCHAR char795
ENCODING 795
SWIDTH 0 0
DWIDTH 0 0
BBX 6 6 -4 15
BITMAP
1C
1C
1C
FC
F8
F0
ENDCHAR
STARTCHAR char796
ENCODING 796
SWIDTH 0 0
DWIDTH 0 0
BBX 3 5 -7 -6
BITMAP
60
C0
80
C0
60
ENDCHAR
STARTCHAR char797
ENCODING 797
SWIDTH 0 0
DWIDTH 0 0
BBX 8 5 -9 -6
BITMAP
18
18
18
FF
FF
ENDCHAR
STARTCHAR char798
ENCODING 798
SWIDTH 0 0
DWIDTH 0 0
BBX 8 5 -9 -6
BITMAP
FF
FF
FF
18
18
ENDCHAR
STARTCHAR char799
ENCODING 799
SWIDTH 0 0
DWIDTH 0 0
BBX 8 7 -9 -9
BITMAP
18
18
FF
FF
FF
18
18
ENDCHAR
STARTCHAR char800
ENCODING 800
SWIDTH 0 0
DWIDTH 0 0
BBX 10 3 -14 -5
BITMAP
FFC0
FFC0
FFC0
ENDCHAR
STARTCHAR char801
ENCODING 801
SWIDTH 0 0
DWIDTH 0 0
BBX 5 8 -5 -7
BITMAP
38
38
38
38
38
78
F0
E0
ENDCHAR
STARTCHAR char802
ENCODING 802
SWIDTH 0 0
DWIDTH 0 0
BBX 6 8 -3 -7
BITMAP
E0
E0
E0
E0
E0
F8
7C
3C
ENDCHAR
STARTCHAR char803
ENCODING 803
SWIDTH 0 0
DWIDTH 0 0
BBX 4 3 -9 -5
BITMAP
F0
F0
F0
ENDCHAR
STARTCHAR char804
ENCODING 804
SWIDTH 0 0
DWIDTH 0 0
BBX 9 3 -12 -5
BITMAP
F380
F380
F380
ENDCHAR
STARTCHAR char805
ENCODING 805
SWIDTH 0 0
DWIDTH 0 0
BBX 7 7 -11 -8
BITMAP
10
7C
EE
C6
C6
7E
3C
ENDCHAR
STARTCHAR char806
ENCODING 806
SWIDTH 0 0
DWIDTH 0 0
BBX 4 8 -9 -10
BITMAP
F0
F0
F0
F0
30
20
E0
80
ENDCHAR
STARTCHAR char807
ENCODING 807
SWIDTH 0 0
DWIDTH 0 0
BBX 8 7 -12 -7
BITMAP
08
08
1F
03
03
FF
3C
ENDCHAR
STARTCHAR char808
ENCODING 808
SWIDTH 0 0
DWIDTH 0 0
BBX 7 7 -9 -7
BITMAP
38
60
E0
E0
E0
7E
08
ENDCHAR
STARTCHAR char809
ENCODING 809
SWIDTH 0 0
DWIDTH 0 0
BBX 2 6 -8 -8
BITMAP
C0
C0
C0
C0
C0
C0
ENDCHAR
STARTCHAR char810
ENCODING 810
SWIDTH 0 0
DWIDTH 0 0
BBX 9 4 -10 -6
BITMAP
FF80
FF80
C180
C180
ENDCHAR
STARTCHAR char811
ENCODING 811
SWIDTH 0 0
DWIDTH 0 0
BBX 10 4 -10 -6
BITMAP
88C0
8C80
FF80
2200
ENDCHAR
STARTCHAR char812
ENCODING 812
SWIDTH 0 0
DWIDTH 0 0
BBX 9 4 -10 -6
BITMAP
E380
7300
3600
3E00
ENDCHAR
STARTCHAR char813
ENCODING 813
SWIDTH 0 0
DWIDTH 0 0
BBX 9 4 -10 -6
BITMAP
3E00
3600
7700
E380
ENDCHAR
STARTCHAR char814
ENCODING 814
SWIDTH 0 0
DWIDTH 0 0
BBX 9 4 -10 -6
BITMAP
C180
C180
FF80
7F00
ENDCHAR
STARTCHAR char815
ENCODING 815
SWIDTH 0 0
DWIDTH 0 0
BBX 9 4 -10 -6
BITMAP
3E00
7F00
E380
C180
ENDCHAR
STARTCHAR char816
ENCODING 816
SWIDTH 0 0
DWIDTH 0 0
BBX 9 3 -12 -6
BITMAP
7980
FF80
C700
ENDCHAR
STARTCHAR char817
ENCODING 817
SWIDTH 0 0
DWIDTH 0 0
BBX 9 2 -12 -5
BITMAP
FF80
FF80
ENDCHAR
STARTCHAR char818
ENCODING 818
SWIDTH 0 0
DWIDTH 0 0
BBX 19 2 -19 -6
BITMAP
FFFFE0
FFFFE0
ENDCHAR
STARTCHAR char819
ENCODING 819
SWIDTH 0 0
DWIDTH 0 0
BBX 19 5 -19 -9
BITMAP
FFFFE0
FFFFE0
000000
FFFFE0
FFFFE0
ENDCHAR
STARTCHAR char820
ENCODING 820
SWIDTH 0 0
DWIDTH 0 0
BBX 10 3 -14 7
BITMAP
70C0
FF80
CF80
ENDCHAR
STARTCHAR char821
ENCODING 821
SWIDTH 0 0
DWIDTH 0 0
BBX 9 3 -13 7
BITMAP
FF80
FF80
FF80
ENDCHAR
STARTCHAR char822
ENCODING 822
SWIDTH 0 0
DWIDTH 0 0
BBX 19 2 -23 7
BITMAP
FFFFE0
FFFFE0
ENDCHAR
STARTCHAR char823
ENCODING 823
SWIDTH 0 0
DWIDTH 0 0
BBX 21 20 -22 0
BITMAP
000018
000030
000060
0000C0
000180
000300
000600
000C00
001800
003000
006000
00C000
018000
030000
060000
0C0000
180000
300000
600000
C00000
ENDCHAR
STARTCHAR char824
ENCODING 824
SWIDTH 0 0
DWIDTH 0 0
BBX 21 26 -22 -2
BITMAP
000018
000030
000070
000060
0000C0
000180
000380
000700
000600
000C00
001C00
003800
003000
006000
00E000
01C000
018000
030000
070000
0E0000
0C0000
180000
380000
700000
600000
C00000
ENDCHAR
STARTCHAR char825
ENCODING 825
SWIDTH 0 0
DWIDTH 0 0
BBX 2 5 -8 -8
BITMAP
C0
40
40
C0
80
ENDCHAR
STARTCHAR char826
ENCODING 826
SWIDTH 0 0
DWIDTH 0 0
BBX 9 4 -12 -6
BITMAP
E180
E180
FF80
FF80
ENDCHAR
STARTCHAR char827
ENCODING 827
SWIDTH 0 0
DWIDTH 0 0
BBX 9 9 -12 -10
BITMAP
FF80
FF80
E180
E180
E180
E180
FF80
FF80
FF80
ENDCHAR
STARTCHAR char828
ENCODING 828
SWIDTH 0 0
DWIDTH 0 0
BBX 10 4 -12 -6
BITMAP
7700
DD80
88C0
0800
ENDCHAR
STARTCHAR char829
ENCODING 829
SWIDTH 0 0
DWIDTH 0 0
BBX 7 6 -9 18
BITMAP
82
6C
38
38
C6
82
ENDCHAR
STARTCHAR char830
ENCODING 830
SWIDTH 0 0
DWIDTH 0 0
BBX 3 8 -7 19
BITMAP
60
C0
C0
C0
60
60
60
E0
ENDCHAR
STARTCHAR char831
ENCODING 831
SWIDTH 0 0
DWIDTH 0 0
BBX 19 5 -19 19
BITMAP
FFFFE0
FFFFE0
000000
FFFFE0
FFFFE0
ENDCHAR
STARTCHAR char832
ENCODING 832
SWIDTH 0 0
DWIDTH 0 0
BBX 6 5 -10 19
BITMAP
F0
70
38
1C
0C
ENDCHAR
STARTCHAR char833
ENCODING 833
SWIDTH 0 0
DWIDTH 0 0
BBX 6 5 -7 19
BITMAP
3C
38
70
E0
C0
ENDCHAR
STARTCHAR char834
ENCODING 834
SWIDTH 0 0
DWIDTH 0 0
BBX 10 3 -11 20
BITMAP
78C0
7FC0
CF80
ENDCHAR
STARTCHAR char835
ENCODING 835
SWIDTH 0 0
DWIDTH 0 0
BBX 3 6 -7 18
BITMAP
E0
E0
E0
20
E0
80
ENDCHAR
STARTCHAR char836
ENCODING 836
SWIDTH 0 0
DWIDTH 0 0
BBX 10 5 -11 19
BITMAP
0700
0600
CFC0
CDC0
D9C0
ENDCHAR
STARTCHAR char837
ENCODING 837
SWIDTH 0 0
DWIDTH 0 0
BBX 5 5 -10 -5
BITMAP
C0
C0
C0
C8
F8
ENDCHAR
STARTCHAR char838
ENCODING 838
SWIDTH 0 0
DWIDTH 0 0
BBX 9 4 -10 19
BITMAP
FF80
FF80
C180
C180
ENDCHAR
STARTCHAR char839
ENCODING 839
SWIDTH 0 0
DWIDTH 0 0
BBX 9 5 -12 -7
BITMAP
FF80
FF80
0000
FF80
FF80
ENDCHAR
STARTCHAR char840
ENCODING 840
SWIDTH 0 0
DWIDTH 0 0
BBX 6 6 -10 -8
BITMAP
CC
CC
CC
CC
CC
CC
ENDCHAR
STARTCHAR char841
ENCODING 841
SWIDTH 0 0
DWIDTH 0 0
BBX 5 5 -9 -8
BITMAP
F8
F8
18
18
18
ENDCHAR
STARTCHAR char842
ENCODING 842
SWIDTH 0 0
DWIDTH 0 0
BBX 10 6 -12 19
BITMAP
0300
06C0
7FC0
FFC0
DB80
1800
ENDCHAR
STARTCHAR char843
ENCODING 843
SWIDTH 0 0
DWIDTH 0 0
BBX 10 11 -13 18
BITMAP
0700
0700
0700
0700
78C0
FFC0
CF80
0000
3800
3800
3800
ENDCHAR
STARTCHAR char844
ENCODING 844
SWIDTH 0 0
DWIDTH 0 0
BBX 10 8 -12 18
BITMAP
38C0
7FC0
CF80
0000
30C0
7FC0
7FC0
C300
ENDCHAR
STARTCHAR char845
ENCODING 845
SWIDTH 0 0
DWIDTH 0 0
BBX 15 6 -17 -8
BITMAP
1010
2008
C006
FFFA
200C
1010
ENDCHAR
STARTCHAR char846
ENCODING 846
SWIDTH 0 0
DWIDTH 0 0
BBX 5 8 -11 -10
BITMAP
20
70
A8
20
20
20
20
20
ENDCHAR
STARTCHAR char847
ENCODING 847
SWIDTH 0 0
DWIDTH 0 0
BBX 0 0 0 0
BITMAP
ENDCHAR
STARTCHAR char848
ENCODING 848
SWIDTH 0 0
DWIDTH 0 0
BBX 8 6 -10 18
BITMAP
E0
1C
03
0E
70
80
ENDCHAR
STARTCHAR char849
ENCODING 849
SWIDTH 0 0
DWIDTH 0 0
BBX 2 5 -6 20
BITMAP
40
C0
80
80
C0
ENDCHAR
STARTCHAR char850
ENCODING 850
SWIDTH 0 0
DWIDTH 0 0
BBX 9 8 -11 18
BITMAP
1800
7F00
FF80
C180
C180
1C00
1C00
1C00
ENDCHAR
STARTCHAR char851
ENCODING 851
SWIDTH 0 0
DWIDTH 0 0
BBX 8 6 -14 -7
BITMAP
C3
76
1C
3C
67
41
ENDCHAR
STARTCHAR char852
ENCODING 852
SWIDTH 0 0
DWIDTH 0 0
BBX 9 6 -13 -8
BITMAP
0180
0F00
7000
E000
3C00
0380
ENDCHAR
STARTCHAR char853
ENCODING 853
SWIDTH 0 0
DWIDTH 0 0
BBX 8 6 -12 -6
BITMAP
E0
1C
03
0E
70
80
ENDCHAR
STARTCHAR char854
ENCODING 854
SWIDTH 0 0
DWIDTH 0 0
BBX 15 6 -16 -7
BITMAP
8010
7038
0E28
0744
3844
C082
ENDCHAR
STARTCHAR char855
ENCODING 855
SWIDTH 0 0
DWIDTH 0 0
BBX 3 5 -6 18
BITMAP
C0
40
60
C0
80
ENDCHAR
STARTCHAR char856
ENCODING 856
SWIDTH 0 0
DWIDTH 0 0
BBX 3 4 -10 20
BITMAP
E0
E0
E0
E0
ENDCHAR
STARTCHAR char857
ENCODING 857
SWIDTH 0 0
DWIDTH 0 0
BBX 7 7 -13 -9
BITMAP
18
18
D6
7E
38
2C
64
ENDCHAR
STARTCHAR char858
ENCODING 858
SWIDTH 0 0
DWIDTH 0 0
BBX 13 5 -16 -7
BITMAP
F8F0
8D08
8208
8D08
F8F0
ENDCHAR
STARTCHAR char859
ENCODING 859
SWIDTH 0 0
DWIDTH 0 0
BBX 6 9 -10 17
BITMAP
60
60
C0
C0
FC
0C
0C
18
18
ENDCHAR
STARTCHAR char860
ENCODING 860
SWIDTH 0 0
DWIDTH 0 0
BBX 22 5 -11 -6
BITMAP
C0000C
60000C
780078
3FFFF0
0FFFC0
ENDCHAR
STARTCHAR char861
ENCODING 861
SWIDTH 0 0
DWIDTH 0 0
BBX 21 5 -10 20
BITMAP
800018
C00018
F000F0
7FFFE0
0FFF80
ENDCHAR
STARTCHAR char862
ENCODING 862
SWIDTH 0 0
DWIDTH 0 0
BBX 20 2 -10 20
BITMAP
FFFFF0
FFFFF0
ENDCHAR
STARTCHAR char863
ENCODING 863
SWIDTH 0 0
DWIDTH 0 0
BBX 20 2 -10 -4
BITMAP
FFFFF0
FFFFF0
ENDCHAR
STARTCHAR char864
ENCODING 864
SWIDTH 0 0
DWIDTH 0 0
BBX 22 6 -11 18
BITMAP
0E0000
3FC00C
7FF00C
C07F38
C01FF8
0003E0
ENDCHAR
STARTCHAR char865
ENCODING 865
SWIDTH 0 0
DWIDTH 0 0
BBX 22 5 -11 20
BITMAP
0FFFC0
3FFFF0
780078
600008
C0000C
ENDCHAR
STARTCHAR char866
ENCODING 866
SWIDTH 0 0
DWIDTH 0 0
BBX 19 7 -10 -8
BITMAP
000200
000380
0001C0
FFFFE0
0000C0
000180
000300
ENDCHAR
STARTCHAR char867
ENCODING 867
SWIDTH 0 0
DWIDTH 0 0
BBX 6 7 -11 19
BITMAP
20
D8
88
38
C8
88
FC
ENDCHAR
STARTCHAR char868
ENCODING 868
SWIDTH 0 0
DWIDTH 0 0
BBX 6 6 -12 20
BITMAP
68
C4
FC
80
44
78
ENDCHAR
STARTCHAR char869
ENCODING 869
SWIDTH 0 0
DWIDTH 0 0
BBX 1 9 -9 18
BITMAP
80
00
00
80
80
80
80
80
80
ENDCHAR
STARTCHAR char870
ENCODING 870
SWIDTH 0 0
DWIDTH 0 0
BBX 6 6 -12 20
BITMAP
68
C4
84
C4
44
78
ENDCHAR
STARTCHAR char871
ENCODING 871
SWIDTH 0 0
DWIDTH 0 0
BBX 5 6 -11 19
BITMAP
88
88
88
88
88
F8
ENDCHAR
STARTCHAR char872
ENCODING 872
SWIDTH 0 0
DWIDTH 0 0
BBX 6 7 -11 19
BITMAP
10
68
44
80
80
44
78
ENDCHAR
STARTCHAR char873
ENCODING 873
SWIDTH 0 0
DWIDTH 0 0
BBX 6 9 -11 19
BITMAP
04
04
24
5C
8C
84
84
8C
74
ENDCHAR
STARTCHAR char874
ENCODING 874
SWIDTH 0 0
DWIDTH 0 0
BBX 5 9 -11 18
BITMAP
80
80
90
E8
C8
88
88
88
88
ENDCHAR
STARTCHAR char875
ENCODING 875
SWIDTH 0 0
DWIDTH 0 0
BBX 8 7 -13 18
BITMAP
22
DD
89
89
89
89
89
ENDCHAR
STARTCHAR char876
ENCODING 876
SWIDTH 0 0
DWIDTH 0 0
BBX 3 7 -9 18
BITMAP
20
E0
80
80
80
80
80
ENDCHAR
STARTCHAR char877
ENCODING 877
SWIDTH 0 0
DWIDTH 0 0
BBX 2 8 -9 19
BITMAP
80
80
C0
80
80
80
80
C0
ENDCHAR
STARTCHAR char878
ENCODING 878
SWIDTH 0 0
DWIDTH 0 0
BBX 5 6 -11 18
BITMAP
88
90
90
50
60
60
ENDCHAR
STARTCHAR char879
ENCODING 879
SWIDTH 0 0
DWIDTH 0 0
BBX 5 6 -11 18
BITMAP
98
50
20
60
50
88
ENDCHAR
STARTCHAR char884
ENCODING 884
SWIDTH 25 0
DWIDTH 9 0
BBX 5 9 2 14
BITMAP
20
38
78
70
70
E0
C0
C0
80
ENDCHAR
STARTCHAR char885
ENCODING 885
SWIDTH 16 0
DWIDTH 6 0
BBX 3 6 1 -6
BITMAP
20
20
60
E0
C0
40
ENDCHAR
STARTCHAR char890
ENCODING 890
SWIDTH 2 0
DWIDTH 11 0
BBX 5 5 4 -6
BITMAP
E0
E0
E0
E8
F8
ENDCHAR
STARTCHAR char891
ENCODING 891
SWIDTH 13 0
DWIDTH 15 0
BBX 12 17 1 0
BITMAP
FE00
FF80
F7C0
01E0
00E0
0070
0070
0070
0070
0070
0070
0070
00F0
00E0
03E0
FFC0
FF00
ENDCHAR
STARTCHAR char892
ENCODING 892
SWIDTH 13 0
DWIDTH 15 0
BBX 12 17 1 0
BITMAP
07F0
1FF0
3EF0
7800
7000
E000
E1C0
E1C0
E1C0
E1C0
E000
E000
7000
7000
7C00
3FF0
0FF0
ENDCHAR
STARTCHAR char893
ENCODING 893
SWIDTH 13 0
DWIDTH 15 0
BBX 12 17 1 0
BITMAP
FE00
FF80
F7C0
01E0
00E0
0070
3870
3870
3870
3870
0070
0070
00F0
00E0
03E0
FFC0
FF00
ENDCHAR
STARTCHAR char894
ENCODING 894
SWIDTH 25 0
DWIDTH 9 0
BBX 3 21 3 -5
BITMAP
E0
E0
E0
00
00
00
00
00
00
00
00
00
00
E0
E0
E0
60
60
60
C0
80
ENDCHAR
STARTCHAR char900
ENCODING 900
SWIDTH 2 0
DWIDTH 11 0
BBX 6 5 4 19
BITMAP
1C
38
70
60
C0
ENDCHAR
STARTCHAR char901
ENCODING 901
SWIDTH 2 0
DWIDTH 11 0
BBX 11 5 0 20
BITMAP
0300
0700
E6E0
EEE0
ECE0
ENDCHAR
STARTCHAR char902
ENCODING 902
SWIDTH 2 0
DWIDTH 21 0
BBX 21 24 0 0
BITMAP
1E0000
3CF800
38F800
70FC00
E1DC00
01DC00
01CE00
038E00
038E00
038700
070700
070700
070380
0E0380
0FFFC0
1FFFC0
1FFFC0
1C01E0
3C00E0
3800E0
3800F0
780070
700070
700078
ENDCHAR
STARTCHAR char903
ENCODING 903
SWIDTH 25 0
DWIDTH 9 0
BBX 3 4 3 13
BITMAP
E0
E0
E0
E0
ENDCHAR
STARTCHAR char904
ENCODING 904
SWIDTH 13 0
DWIDTH 25 0
BBX 24 24 0 0
BITMAP
1C0000
39FFFF
31FFFF
61C000
C1C000
01C000
01C000
01C000
01C000
01C000
01C000
01FFFE
01FFFE
01C000
01C000
01C000
01C000
01C000
01C000
01C000
01C000
01FFFF
01FFFF
01FFFF
ENDCHAR
STARTCHAR char905
ENCODING 905
SWIDTH 21 0
DWIDTH 28 0
BBX 25 24 0 0
BITMAP
1E000000
3DC00380
39C00380
71C00380
E1C00380
01C00380
01C00380
01C00380
01C00380
01C00380
01C00380
01FFFF80
01FFFF80
01C00380
01C00380
01C00380
01C00380
01C00380
01C00380
01C00380
01C00380
01C00380
01C00380
01C00380
ENDCHAR
STARTCHAR char906
ENCODING 906
SWIDTH 8 0
DWIDTH 13 0
BBX 11 24 0 0
BITMAP
1C00
38E0
30E0
60E0
C0E0
00E0
00E0
00E0
00E0
00E0
00E0
00E0
00E0
00E0
00E0
00E0
00E0
00E0
00E0
00E0
00E0
00E0
00E0
00E0
ENDCHAR
STARTCHAR char908
ENCODING 908
SWIDTH 21 0
DWIDTH 28 0
BBX 26 25 0 -1
BITMAP
0007C000
3C3FF800
38FFFC00
71F03E00
63C00F00
83800780
07000380
070003C0
0E0001C0
0E0001C0
0E0001C0
0E0001C0
0E0001C0
0E0001C0
0E0001C0
0E0001C0
0E0001C0
070003C0
07000380
03800780
03C00F00
01F03E00
00FFFC00
003FF800
0007C000
ENDCHAR
STARTCHAR char910
ENCODING 910
SWIDTH 24 0
DWIDTH 29 0
BBX 28 24 0 0
BITMAP
1DE00070
38F000E0
307001E0
607801C0
C03803C0
001C0380
001E0700
000E0F00
000F0E00
00079E00
00039C00
0003F800
0001F800
0000F000
0000E000
0000E000
0000E000
0000E000
0000E000
0000E000
0000E000
0000E000
0000E000
0000E000
ENDCHAR
STARTCHAR char911
ENCODING 911
SWIDTH 16 0
DWIDTH 26 0
BBX 24 24 0 0
BITMAP
1E0000
3C7FC0
39FFF0
73C0F8
E7003C
0E001E
0E000E
1C000F
1C0007
1C0007
180007
180007
180007
180007
1C0007
1C0006
0C000E
0E000E
07001C
070038
038070
00E1E0
1FE1FF
1FE1FF
ENDCHAR
STARTCHAR char912
ENCODING 912
SWIDTH 25 0
DWIDTH 9 0
BBX 11 24 -1 0
BITMAP
0700
0600
E6E0
ECE0
ECE0
0000
0000
1C00
1C00
1C00
1C00
1C00
1C00
1C00
1C00
1C00
1C00
1C00
1C00
1C00
1C00
1F80
0F80
0FC0
ENDCHAR
STARTCHAR char913
ENCODING 913
SWIDTH 2 0
DWIDTH 21 0
BBX 20 23 1 0
BITMAP
01F000
01F000
01F800
03B800
03B800
039C00
071C00
071C00
070E00
0E0E00
0E0E00
0E0700
1C0700
1FFF80
3FFF80
3FFF80
3803C0
7801C0
7001C0
7001E0
F000E0
E000E0
E000F0
ENDCHAR
STARTCHAR char914
ENCODING 914
SWIDTH 2 0
DWIDTH 21 0
BBX 17 23 3 0
BITMAP
FFF800
FFFC00
E03E00
E00F00
E00700
E00700
E00700
E00700
E00E00
E03C00
FFF800
FFFC00
E01F00
E00700
E00380
E00380
E00380
E00380
E00780
E00700
FFFF00
FFFE00
FFF800
ENDCHAR
STARTCHAR char915
ENCODING 915
SWIDTH 24 0
DWIDTH 19 0
BBX 15 23 3 0
BITMAP
FFFE
FFFE
E000
E000
E000
E000
E000
E000
E000
E000
E000
E000
E000
E000
E000
E000
E000
E000
E000
E000
E000
E000
E000
ENDCHAR
STARTCHAR char916
ENCODING 916
SWIDTH 4 0
DWIDTH 22 0
BBX 21 23 1 0
BITMAP
00F000
01F000
01F800
03B800
039C00
039C00
071C00
070E00
070E00
0E0700
0E0700
0E0700
1C0380
1C0380
1C03C0
3801C0
3801C0
7801E0
7000E0
7000F0
FFFFF0
FFFFF0
FFFFF8
ENDCHAR
STARTCHAR char917
ENCODING 917
SWIDTH 27 0
DWIDTH 20 0
BBX 16 23 3 0
BITMAP
FFFF
FFFF
E000
E000
E000
E000
E000
E000
E000
E000
FFFE
FFFE
E000
E000
E000
E000
E000
E000
E000
E000
FFFF
FFFF
FFFF
ENDCHAR
STARTCHAR char918
ENCODING 918
SWIDTH 27 0
DWIDTH 20 0
BBX 18 23 1 0
BITMAP
7FFFC0
7FFFC0
0003C0
000780
000F00
001E00
001C00
003C00
007800
00F000
00E000
01E000
03C000
078000
0F0000
0E0000
1E0000
3C0000
780000
700000
FFFFC0
FFFFC0
FFFFC0
ENDCHAR
STARTCHAR char919
ENCODING 919
SWIDTH 7 0
DWIDTH 23 0
BBX 18 23 3 0
BITMAP
E001C0
E001C0
E001C0
E001C0
E001C0
E001C0
E001C0
E001C0
E001C0
E001C0
FFFFC0
FFFFC0
E001C0
E001C0
E001C0
E001C0
E001C0
E001C0
E001C0
E001C0
E001C0
E001C0
E001C0
ENDCHAR
STARTCHAR char920
ENCODING 920
SWIDTH 13 0
DWIDTH 25 0
BBX 23 25 1 -1
BITMAP
007C00
03FF80
07FFC0
0F01F0
1E00F0
3C0078
78003C
70001C
70001C
70001E
E0000E
E3FF8E
E3FF8E
E3FF8E
E0000E
70001E
70001C
70001C
78003C
3C0038
1E00F0
1F01F0
07FFC0
03FF80
007C00
ENDCHAR
STARTCHAR char921
ENCODING 921
SWIDTH 25 0
DWIDTH 9 0
BBX 3 23 3 0
BITMAP
E0
E0
E0
E0
E0
E0
E0
E0
E0
E0
E0
E0
E0
E0
E0
E0
E0
E0
E0
E0
E0
E0
E0
ENDCHAR
STARTCHAR char922
ENCODING 922
SWIDTH 4 0
DWIDTH 22 0
BBX 18 23 3 0
BITMAP
E00780
E00F00
E01E00
E03C00
E07800
E0F000
E1E000
E3C000
E78000
EF8000
FF8000
FDC000
F9E000
F0F000
E07000
E07800
E03C00
E01C00
E01E00
E00F00
E00700
E00380
E003C0
ENDCHAR
STARTCHAR char923
ENCODING 923
SWIDTH 2 0
DWIDTH 21 0
BBX 20 23 1 0
BITMAP
01F000
01F000
01F800
03B800
03B800
039C00
071C00
071C00
070E00
0E0E00
0E0E00
0E0700
1C0700
1C0780
3C0380
380380
3803C0
7801C0
7001C0
7001E0
F000E0
E000E0
E000F0
ENDCHAR
STARTCHAR char924
ENCODING 924
SWIDTH 18 0
DWIDTH 27 0
BBX 22 23 3 0
BITMAP
F0007C
F0007C
F800FC
F800FC
D800DC
DC01DC
DC01DC
CC019C
CE039C
CE039C
C6031C
C7071C
C7071C
C3061C
C38E1C
C38E1C
C18C1C
C1DC1C
C1DC1C
C0D81C
C0F81C
C0F81C
C0701C
ENDCHAR
STARTCHAR char925
ENCODING 925
SWIDTH 7 0
DWIDTH 23 0
BBX 18 23 3 0
BITMAP
E001C0
F001C0
F801C0
F801C0
DC01C0
DE01C0
CE01C0
C701C0
C701C0
C381C0
C3C1C0
C1C1C0
C0E1C0
C0F1C0
C071C0
C039C0
C03DC0
C01DC0
C00FC0
C00FC0
C007C0
C007C0
C003C0
ENDCHAR
STARTCHAR char926
ENCODING 926
SWIDTH 27 0
DWIDTH 20 0
BBX 18 23 1 0
BITMAP
7FFFC0
7FFFC0
000000
000000
000000
000000
000000
000000
000000
000000
1FFF00
1FFF00
000000
000000
000000
000000
000000
000000
000000
000000
FFFFC0
FFFFC0
FFFFC0
ENDCHAR
STARTCHAR char927
ENCODING 927
SWIDTH 13 0
DWIDTH 25 0
BBX 23 25 1 -1
BITMAP
007C00
03FF80
07FFC0
0F01F0
1E00F0
3C0078
78003C
70001C
70001C
70001E
E0000E
E0000E
E0000E
E0000E
E0000E
70001E
70001C
70001C
78003C
3C0038
1E00F0
1F01F0
07FFC0
03FF80
007C00
ENDCHAR
STARTCHAR char928
ENCODING 928
SWIDTH 7 0
DWIDTH 23 0
BBX 17 23 3 0
BITMAP
FFFF80
FFFF80
E00380
E00380
E00380
E00380
E00380
E00380
E00380
E00380
E00380
E00380
E00380
E00380
E00380
E00380
E00380
E00380
E00380
E00380
E00380
E00380
E00380
ENDCHAR
STARTCHAR char929
ENCODING 929
SWIDTH 2 0
DWIDTH 21 0
BBX 16 23 3 0
BITMAP
FFF8
FFFE
E03E
E00F
E007
E007
E007
E007
E007
E00F
FFFE
FFFC
FFF8
E000
E000
E000
E000
E000
E000
E000
E000
E000
E000
ENDCHAR
STARTCHAR char931
ENCODING 931
SWIDTH 27 0
DWIDTH 20 0
BBX 18 23 1 0
BITMAP
7FFFC0
7FFFC0
380000
3C0000
1E0000
0E0000
0F0000
078000
03C000
01C000
01E000
01E000
01C000
038000
078000
0F0000
1E0000
1C0000
380000
780000
FFFFC0
FFFFC0
FFFFC0
ENDCHAR
STARTCHAR char932
ENCODING 932
SWIDTH 27 0
DWIDTH 20 0
BBX 18 23 1 0
BITMAP
FFFFC0
FFFFC0
00E000
00E000
00E000
00E000
00E000
00E000
00E000
00E000
00E000
00E000
00E000
00E000
00E000
00E000
00E000
00E000
00E000
00E000
00E000
00E000
00E000
ENDCHAR
STARTCHAR char933
ENCODING 933
SWIDTH 4 0
DWIDTH 22 0
BBX 21 24 0 0
BITMAP
F00038
780078
3800F0
3C00E0
1E01E0
0E01C0
0F03C0
070380
038700
03CF00
01CE00
01FC00
00FC00
007800
007800
007000
007000
007000
007000
007000
007000
007000
007000
007000
ENDCHAR
STARTCHAR char934
ENCODING 934
SWIDTH 10 0
DWIDTH 24 0
BBX 21 23 1 0
BITMAP
003000
003000
01FC00
07FF80
1FFFC0
3C71E0
387070
707078
707038
E07038
E07038
E07038
E07038
707038
707038
787070
3C70F0
1F73E0
0FFF80
03FE00
007000
007000
007000
ENDCHAR
STARTCHAR char935
ENCODING 935
SWIDTH 2 0
DWIDTH 21 0
BBX 19 23 1 0
BITMAP
F001E0
7803C0
380380
1C0780
1E0F00
0E0E00
071C00
07BC00
03B800
01F000
01F000
01F000
01F000
03B800
07BC00
071C00
0E0E00
1E0F00
1C0700
380380
7803C0
7001E0
E000E0
ENDCHAR
STARTCHAR char936
ENCODING 936
SWIDTH 10 0
DWIDTH 24 0
BBX 20 23 2 0
BITMAP
E07030
E07030
E07030
E07030
E07030
E07030
E07030
E07030
E07030
E07030
E07030
E07070
E07070
F07070
7871F0
7FFFE0
1FFFC0
01F800
007000
007000
007000
007000
007000
ENDCHAR
STARTCHAR char937
ENCODING 937
SWIDTH 10 0
DWIDTH 24 0
BBX 22 23 1 0
BITMAP
03FF00
07FF80
0F03E0
1C00F0
380070
700038
700038
70001C
E0001C
E0001C
E0001C
E0001C
E0001C
60001C
700038
700038
380070
3800F0
1C00E0
0E03C0
078700
FF87FC
FF87FC
ENDCHAR
STARTCHAR char938
ENCODING 938
SWIDTH 25 0
DWIDTH 9 0
BBX 9 29 0 0
BITMAP
E380
E380
E380
E380
0000
0000
1C00
1C00
1C00
1C00
1C00
1C00
1C00
1C00
1C00
1C00
1C00
1C00
1C00
1C00
1C00
1C00
1C00
1C00
1C00
1C00
1C00
1C00
1C00
ENDCHAR
STARTCHAR char939
ENCODING 939
SWIDTH 4 0
DWIDTH 22 0
BBX 21 29 0 0
BITMAP
01CF00
01CF00
01CF00
01CF00
000000
F00038
780078
3800F0
3C00E0
1E01E0
0E01C0
0F03C0
070380
038700
03CF00
01CE00
01FC00
00FC00
007800
007800
007000
007000
007000
007000
007000
007000
007000
007000
007000
ENDCHAR
STARTCHAR char940
ENCODING 940
SWIDTH 24 0
DWIDTH 19 0
BBX 17 24 1 0
BITMAP
003C00
003800
007000
00E000
00C000
000000
000000
07C600
1FF600
3FFE00
703E00
701E00
E01E00
E00E00
E00E00
E00E00
E00E00
E00E00
E00E00
E01E00
701E00
787E00
3FFF80
1FE780
ENDCHAR
STARTCHAR char941
ENCODING 941
SWIDTH 16 0
DWIDTH 16 0
BBX 14 24 1 0
BITMAP
0038
0070
00E0
00C0
0180
0000
0000
1FC0
7FF0
F078
E01C
E01C
E000
E000
7800
1F00
7F00
E000
E000
E000
E01C
F038
7FF8
3FE0
ENDCHAR
STARTCHAR char942
ENCODING 942
SWIDTH 22 0
DWIDTH 18 0
BBX 15 30 1 -6
BITMAP
0038
0070
00E0
00C0
0180
0000
0000
E1F0
E7F8
FF7C
781C
780E
700E
700E
700E
700E
700E
700E
700E
700E
700E
700E
700E
700E
000E
000E
000E
000E
000E
0006
ENDCHAR
STARTCHAR char943
ENCODING 943
SWIDTH 28 0
DWIDTH 10 0
BBX 7 24 2 0
BITMAP
0E
1C
38
30
60
00
00
E0
E0
E0
E0
E0
E0
E0
E0
E0
E0
E0
E0
E0
E0
FC
7C
7E
ENDCHAR
STARTCHAR char944
ENCODING 944
SWIDTH 22 0
DWIDTH 18 0
BBX 14 24 2 0
BITMAP
0380
0300
7370
7670
7670
0000
0000
E01C
E01C
E01C
E01C
E01C
E01C
E01C
E01C
E01C
E01C
E01C
E01C
E01C
E03C
F078
7FF8
3FF0
ENDCHAR
STARTCHAR char945
ENCODING 945
SWIDTH 24 0
DWIDTH 19 0
BBX 17 17 1 0
BITMAP
07C600
1FF600
3FFE00
703E00
701E00
E01E00
E00E00
E00E00
E00E00
E00E00
E00E00
E00E00
E01E00
701E00
787E00
3FFF80
1FE780
ENDCHAR
STARTCHAR char946
ENCODING 946
SWIDTH 19 0
DWIDTH 17 0
BBX 14 29 2 -6
BITMAP
3FC0
7FE0
7070
E030
E038
E038
E038
E030
E070
E0E0
E7C0
E7F0
E078
E03C
E01C
E01C
E00C
E01C
E01C
E01C
F838
FFF8
EFF0
E000
E000
E000
E000
E000
E000
ENDCHAR
STARTCHAR char947
ENCODING 947
SWIDTH 19 0
DWIDTH 17 0
BBX 16 23 0 -6
BITMAP
F007
F807
3806
380E
1C0E
1C1C
0E1C
0E18
0E38
0738
0730
0370
03F0
01E0
01E0
01C0
01C0
01C0
01C0
01C0
01C0
01C0
01C0
ENDCHAR
STARTCHAR char948
ENCODING 948
SWIDTH 22 0
DWIDTH 18 0
BBX 16 24 1 -1
BITMAP
7FFC
7FFC
3C00
1E00
0F00
03C0
01E0
0FF0
1FF8
3C3C
701E
700E
E006
E007
E007
E007
E007
E00E
F00E
701E
7C3C
3FF8
0FF0
0100
ENDCHAR
STARTCHAR char949
ENCODING 949
SWIDTH 16 0
DWIDTH 16 0
BBX 14 17 1 0
BITMAP
1FC0
7FF0
F078
E01C
E01C
E000
E000
7800
1F00
7F00
E000
E000
E000
E01C
F038
7FF8
3FE0
ENDCHAR
STARTCHAR char950
ENCODING 950
SWIDTH 10 0
DWIDTH 14 0
BBX 13 29 1 -6
BITMAP
FFF0
FFF0
01E0
03C0
0700
0E00
1C00
3C00
3800
7000
7000
7000
E000
E000
E000
E000
E000
E000
F000
7800
3F00
1FF0
07F8
0038
0038
0038
0038
0030
0030
ENDCHAR
STARTCHAR char951
ENCODING 951
SWIDTH 22 0
DWIDTH 18 0
BBX 15 23 1 -6
BITMAP
E1F0
E7F8
FF7C
781C
780E
700E
700E
700E
700E
700E
700E
700E
700E
700E
700E
700E
700E
000E
000E
000E
000E
000E
0006
ENDCHAR
STARTCHAR char952
ENCODING 952
SWIDTH 16 0
DWIDTH 16 0
BBX 14 23 1 0
BITMAP
0FC0
1FF0
3870
7038
7018
601C
E01C
E01C
E01C
E01C
FFFC
FFFC
E01C
E01C
E01C
E01C
E01C
E01C
7018
7038
3878
3FF0
0FE0
ENDCHAR
STARTCHAR char953
ENCODING 953
SWIDTH 25 0
DWIDTH 9 0
BBX 7 17 2 0
BITMAP
E0
E0
E0
E0
E0
E0
E0
E0
E0
E0
E0
E0
E0
E0
FC
7C
7E
ENDCHAR
STARTCHAR char954
ENCODING 954
SWIDTH 16 0
DWIDTH 16 0
BBX 13 17 2 0
BITMAP
E078
E0F0
E1E0
E3C0
E780
EF00
FE00
FE00
FF00
F780
E380
E1C0
E1E0
E0E0
E070
E078
E038
ENDCHAR
STARTCHAR char955
ENCODING 955
SWIDTH 19 0
DWIDTH 17 0
BBX 17 23 0 0
BITMAP
3C0000
3E0000
4F0000
070000
038000
038000
018000
03C000
03C000
07C000
07E000
066000
0E7000
0E7000
0C3000
1C3800
1C3800
381C00
381C00
381C00
700E80
700F80
F00780
ENDCHAR
STARTCHAR char956
ENCODING 956
SWIDTH 19 0
DWIDTH 17 0
BBX 13 23 2 -6
BITMAP
E018
E018
E018
E018
E018
E018
E018
E018
E018
E018
E038
E038
E038
F078
F8F8
FFD8
EFD8
E000
E000
E000
E000
E000
E000
ENDCHAR
STARTCHAR char957
ENCODING 957
SWIDTH 16 0
DWIDTH 16 0
BBX 15 17 0 0
BITMAP
E00E
700E
700E
701C
381C
381C
1838
1C38
1C30
0C70
0E70
0E60
06E0
07C0
07C0
03C0
0380
ENDCHAR
STARTCHAR char958
ENCODING 958
SWIDTH 16 0
DWIDTH 16 0
BBX 14 29 1 -6
BITMAP
7FF8
7FF8
1C00
3800
3000
3000
7000
3000
3800
3C00
0FF0
0FF0
3C00
7000
6000
E000
E000
E000
E000
F000
7C00
3FF0
0FF8
001C
001C
0018
0018
0038
0038
ENDCHAR
STARTCHAR char959
ENCODING 959
SWIDTH 19 0
DWIDTH 17 0
BBX 15 17 1 0
BITMAP
07E0
1FF8
3C7C
781C
700E
E00E
E00E
E006
E006
E006
E00E
E00E
700E
701C
3C3C
3FF8
0FE0
ENDCHAR
STARTCHAR char960
ENCODING 960
SWIDTH 24 0
DWIDTH 19 0
BBX 18 17 1 0
BITMAP
FFFF80
FFFF80
380E00
380E00
380E00
380E00
380E00
380E00
380E00
380E00
380E00
380E00
380E00
380E00
380E00
380780
3807C0
ENDCHAR
STARTCHAR char961
ENCODING 961
SWIDTH 22 0
DWIDTH 18 0
BBX 15 23 2 -6
BITMAP
07E0
1FF0
3C7C
701C
700E
E00E
E00E
E00E
E006
E00E
E00E
E00E
E00E
F01C
FC3C
FFF8
EFE0
E000
E000
E000
E000
E000
E000
ENDCHAR
STARTCHAR char962
ENCODING 962
SWIDTH 19 0
DWIDTH 17 0
BBX 15 23 1 -6
BITMAP
07E0
1FF8
3E7C
781E
700E
E00E
E00E
E000
E000
E000
E000
7000
7800
3C00
1FE0
0FFC
03FE
001E
000E
000E
001E
001C
0004
ENDCHAR
STARTCHAR char963
ENCODING 963
SWIDTH 24 0
DWIDTH 19 0
BBX 18 17 1 0
BITMAP
07FFC0
1FFFC0
3EFFC0
781C00
700C00
E00E00
E00E00
E00E00
E00600
E00600
E00E00
E00E00
700E00
701C00
3C3C00
3FF800
0FE000
ENDCHAR
STARTCHAR char964
ENCODING 964
SWIDTH 16 0
DWIDTH 16 0
BBX 14 17 1 0
BITMAP
FFFC
FFFC
FFFC
0700
0700
0700
0700
0700
0700
0700
0700
0700
0700
0700
0780
07E0
03E0
ENDCHAR
STARTCHAR char965
ENCODING 965
SWIDTH 22 0
DWIDTH 18 0
BBX 14 17 2 0
BITMAP
E01C
E01C
E01C
E01C
E01C
E01C
E01C
E01C
E01C
E01C
E01C
E01C
E01C
E03C
F078
7FF8
3FF0
ENDCHAR
STARTCHAR char966
ENCODING 966
SWIDTH 7 0
DWIDTH 23 0
BBX 21 23 1 -6
BITMAP
007C00
0C7F80
3C7FC0
3871E0
7070F0
707070
E07030
E07038
E07038
E07038
E07038
E07030
707070
7870F0
3E73E0
1FFFC0
0FFF80
007000
007000
007000
007000
007000
007000
ENDCHAR
STARTCHAR char967
ENCODING 967
SWIDTH 22 0
DWIDTH 18 0
BBX 18 24 0 -7
BITMAP
F00380
F80380
3C0700
1C0700
0E0E00
0E0E00
071C00
071C00
03B800
03F800
01F000
00E000
01F000
01F000
03F800
07B800
073C00
0F1C00
1E1E00
1C0E00
3C0F00
3807C0
7003C0
0001C0
ENDCHAR
STARTCHAR char968
ENCODING 968
SWIDTH 4 0
DWIDTH 22 0
BBX 18 23 2 -6
BITMAP
E000C0
E0E0C0
E0E0C0
E0E0C0
E0E0C0
E0E0C0
E0E0C0
E0E0C0
E0E0C0
E0E0C0
E0E1C0
E0E1C0
E0E1C0
70E3C0
7CEF80
3FFF00
0FFC00
00E000
00E000
00E000
00E000
00E000
00E000
ENDCHAR
STARTCHAR char969
ENCODING 969
SWIDTH 7 0
DWIDTH 23 0
BBX 21 17 1 0
BITMAP
180040
3C00E0
3800F0
700070
700030
607038
E07038
E07038
E07018
E07018
E07018
E07038
E07038
707038
70F870
3FDFE0
1F8FC0
ENDCHAR
STARTCHAR char970
ENCODING 970
SWIDTH 25 0
DWIDTH 9 0
BBX 10 22 -1 0
BITMAP
E380
E380
E380
0000
0000
1C00
1C00
1C00
1C00
1C00
1C00
1C00
1C00
1C00
1C00
1C00
1C00
1C00
1C00
1F80
0F80
0FC0
ENDCHAR
STARTCHAR char971
ENCODING 971
SWIDTH 22 0
DWIDTH 18 0
BBX 14 22 2 0
BITMAP
38E0
38E0
38E0
0000
0000
E01C
E01C
E01C
E01C
E01C
E01C
E01C
E01C
E01C
E01C
E01C
E01C
E01C
E03C
F078
7FF8
3FF0
ENDCHAR
STARTCHAR char972
ENCODING 972
SWIDTH 19 0
DWIDTH 17 0
BBX 15 24 1 0
BITMAP
003C
0078
0070
00E0
00C0
0000
0000
07E0
1FF8
3C7C
781C
700E
E00E
E00E
E006
E006
E006
E00E
E00E
700E
701C
3C3C
3FF8
0FE0
ENDCHAR
STARTCHAR char973
ENCODING 973
SWIDTH 22 0
DWIDTH 18 0
BBX 14 24 2 0
BITMAP
00F0
01E0
01C0
0380
0300
0000
0000
E01C
E01C
E01C
E01C
E01C
E01C
E01C
E01C
E01C
E01C
E01C
E01C
E01C
E03C
F078
7FF8
3FF0
ENDCHAR
STARTCHAR char974
ENCODING 974
SWIDTH 7 0
DWIDTH 23 0
BBX 21 24 1 0
BITMAP
000780
000F00
000E00
001C00
001800
000000
000000
180040
3C00E0
3800F0
700070
700030
607038
E07038
E07038
E07018
E07018
E07018
E07038
E07038
707038
70F870
3FDFE0
1F8FC0
ENDCHAR
STARTCHAR char977
ENCODING 977
SWIDTH 22 0
DWIDTH 18 0
BBX 16 23 1 0
BITMAP
07F0
07F8
0E38
0C18
1C1C
1C1C
1C1C
1C1C
1C1C
1C1C
1FFF
1FFF
001C
001C
E01C
E01C
E01C
E018
6038
7038
7870
3FF0
1FC0
ENDCHAR
STARTCHAR char978
ENCODING 978
SWIDTH 4 0
DWIDTH 22 0
BBX 21 24 1 0
BITMAP
C001C0
F007F0
F80FF8
FC1E30
1E3C00
0E3800
077000
077000
036000
03E000
03E000
01E000
01C000
01C000
01C000
01C000
01C000
01C000
01C000
01C000
01C000
01C000
01C000
01C000
ENDCHAR
STARTCHAR char979
ENCODING 979
SWIDTH 21 0
DWIDTH 28 0
BBX 28 24 0 0
BITMAP
1F800380
3DE00FE0
39F81FF0
70F83C60
E03C3800
001E7000
000EE000
000EE000
0007E000
0007C000
0007C000
0003C000
0003C000
00038000
00038000
00038000
00038000
00038000
00038000
00038000
00038000
00038000
00038000
00038000
ENDCHAR
STARTCHAR char980
ENCODING 980
SWIDTH 4 0
DWIDTH 22 0
BBX 21 29 1 0
BITMAP
0E3800
0E3800
0E3800
0E3800
000000
C001C0
F007F0
F80FF8
FC1E30
1E3C00
0E3800
077000
077000
036000
03E000
03E000
01E000
01C000
01C000
01C000
01C000
01C000
01C000
01C000
01C000
01C000
01C000
01C000
01C000
ENDCHAR
STARTCHAR char981
ENCODING 981
SWIDTH 4 0
DWIDTH 22 0
BBX 20 29 1 -6
BITMAP
007000
007000
007000
007000
007000
007000
07FE00
1FFF80
3FFFC0
7871E0
7070F0
E07070
E07070
E07030
E07030
E07030
E07030
E07070
707070
7870E0
3E77E0
1FFFC0
07FF00
007000
007000
007000
007000
007000
007000
ENDCHAR
STARTCHAR char982
ENCODING 982
SWIDTH 7 0
DWIDTH 23 0
BBX 21 17 1 0
BITMAP
FFFFF8
FFFFF8
3800F0
700070
700030
607038
E07038
E07038
E07018
E07018
E07018
E07038
E07038
707038
70F870
3FDFE0
1F8FC0
ENDCHAR
STARTCHAR char983
ENCODING 983
SWIDTH 22 0
DWIDTH 18 0
BBX 17 24 0 -7
BITMAP
E00380
FE0700
FF0F00
078E00
019C00
01B800
01F000
01F000
03E000
03E000
07E000
07E000
0EE000
1E7000
3C7F80
383F80
700780
000180
000180
000180
000180
000780
000F80
000E00
ENDCHAR
STARTCHAR char1008
ENCODING 1008
SWIDTH 24 0
DWIDTH 19 0
BBX 18 17 0 -1
BITMAP
1F03C0
7F8780
F38700
618E00
01DC00
01F800
01F800
01F000
01F000
03E000
07E000
076000
0F6000
1E7080
1C71C0
383FC0
703F00
ENDCHAR
STARTCHAR char1009
ENCODING 1009
SWIDTH 22 0
DWIDTH 18 0
BBX 15 23 2 -6
BITMAP
07E0
1FF0
3C7C
701C
700E
E00E
E00E
E00E
E006
E00E
E00E
E00E
E00E
F01C
FC3C
FFF8
EFE0
E000
E000
F000
7FF8
3FF8
1FE0
ENDCHAR
STARTCHAR char1010
ENCODING 1010
SWIDTH 13 0
DWIDTH 15 0
BBX 12 17 1 0
BITMAP
07F0
1FF0
3EF0
7800
7000
E000
E000
E000
E000
E000
E000
E000
7000
7000
7C00
3FF0
0FF0
ENDCHAR
STARTCHAR char1011
ENCODING 1011
SWIDTH 22 0
DWIDTH 8 0
BBX 5 30 0 -7
BITMAP
18
18
18
00
00
00
18
18
18
18
18
18
18
18
18
18
18
18
18
18
18
18
18
18
18
18
18
78
F8
F0
ENDCHAR
STARTCHAR char1012
ENCODING 1012
SWIDTH 13 0
DWIDTH 25 0
BBX 23 25 1 -1
BITMAP
007C00
03FF80
07FFC0
0F01F0
1E00F0
3C0078
78003C
70001C
70001C
70001E
E0000E
E0000E
FFFFFE
FFFFFE
E0000E
70001E
70001C
70001C
78003C
3C0038
1E00F0
1F01F0
07FFC0
03FF80
007C00
ENDCHAR
STARTCHAR char1013
ENCODING 1013
SWIDTH 28 0
DWIDTH 10 0
BBX 7 17 1 0
BITMAP
06
1E
3E
70
70
E0
E0
E0
FE
FE
E0
E0
E0
70
78
3E
1E
ENDCHAR
STARTCHAR char1014
ENCODING 1014
SWIDTH 28 0
DWIDTH 10 0
BBX 7 17 2 0
BITMAP
F0
F8
3C
1C
1C
0E
0E
FE
FE
0E
0E
0C
1C
1C
F8
F0
C0
ENDCHAR
STARTCHAR char1017
ENCODING 1017
SWIDTH 27 0
DWIDTH 20 0
BBX 18 25 1 -1
BITMAP
007800
03FFC0
0FFFC0
1F0000
3C0000
380000
780000
700000
700000
700000
E00000
E00000
E00000
E00000
E00000
700000
700000
700000
780000
380000
3C0000
1F0000
0FFFC0
03FFC0
00F800
ENDCHAR
STARTCHAR char1021
ENCODING 1021
SWIDTH 27 0
DWIDTH 20 0
BBX 18 25 1 -1
BITMAP
078000
FFF000
FFFC00
003E00
000E00
000700
000700
000380
000380
000380
000380
000180
0001C0
000380
000380
000380
000380
000380
000700
000700
000E00
003E00
FFFC00
FFF000
078000
ENDCHAR
STARTCHAR char1022
ENCODING 1022
SWIDTH 27 0
DWIDTH 20 0
BBX 18 25 1 -1
BITMAP
007800
03FFC0
0FFFC0
1F0000
3C0000
380000
780000
700000
700000
700000
E03800
E03800
E03800
E03800
E00000
700000
700000
700000
780000
380000
3C0000
1F0000
0FFFC0
03FFC0
00F800
ENDCHAR
STARTCHAR char1023
ENCODING 1023
SWIDTH 27 0
DWIDTH 20 0
BBX 18 25 1 -1
BITMAP
078000
FFF000
FFFC00
003E00
000E00
000700
000700
000380
000380
000380
070380
070180
0701C0
070380
000380
000380
000380
000380
000700
000700
000E00
003E00
FFFC00
FFF000
078000
ENDCHAR
STARTCHAR char1024
ENCODING 1024
SWIDTH 2 0
DWIDTH 21 0
BBX 16 29 3 0
BITMAP
0F00
0780
0380
00C0
0000
0000
FFFF
FFFF
E000
E000
E000
E000
E000
E000
E000
E000
FFFE
FFFE
E000
E000
E000
E000
E000
E000
E000
E000
FFFF
FFFF
FFFF
ENDCHAR
STARTCHAR char1025
ENCODING 1025
SWIDTH 2 0
DWIDTH 21 0
BBX 16 29 3 0
BITMAP
0E78
0E78
0E78
0E78
0000
0000
FFFF
FFFF
E000
E000
E000
E000
E000
E000
E000
E000
FFFE
FFFE
E000
E000
E000
E000
E000
E000
E000
E000
FFFF
FFFF
FFFF
ENDCHAR
STARTCHAR char1026
ENCODING 1026
SWIDTH 13 0
DWIDTH 25 0
BBX 22 28 1 -5
BITMAP
FFFF00
FFFF00
038000
038000
038000
038000
038000
038000
03FF80
03FFF0
03FFF8
03803C
03801C
03801C
03801C
03801C
03801C
03801C
03801C
03801C
03801C
03801C
03801C
00001C
00001C
000038
0003F8
0003E0
ENDCHAR
STARTCHAR char1027
ENCODING 1027
SWIDTH 24 0
DWIDTH 19 0
BBX 15 29 3 0
BITMAP
01E0
01C0
0380
0600
0000
0000
FFFE
FFFE
E000
E000
E000
E000
E000
E000
E000
E000
E000
E000
E000
E000
E000
E000
E000
E000
E000
E000
E000
E000
E000
ENDCHAR
STARTCHAR char1028
ENCODING 1028
SWIDTH 7 0
DWIDTH 23 0
BBX 20 25 1 -1
BITMAP
007800
03FF00
0FFF80
1F03C0
3C01E0
3800E0
7800F0
700070
700000
700000
E00000
FFFE00
FFFE00
E00000
E00000
700070
700070
700070
780070
3800E0
3C01E0
1F03C0
0FFF80
03FF00
00F800
ENDCHAR
STARTCHAR char1029
ENCODING 1029
SWIDTH 2 0
DWIDTH 21 0
BBX 18 25 2 -1
BITMAP
01C000
1FFC00
3FFE00
780F00
700700
E00380
E00380
E00380
F00000
780000
7F0000
3FF000
0FFE00
00FF00
000F80
0003C0
0001C0
C001C0
E001C0
E001C0
F00380
780F80
3FFF00
1FFC00
03F000
ENDCHAR
STARTCHAR char1030
ENCODING 1030
SWIDTH 25 0
DWIDTH 9 0
BBX 3 23 3 0
BITMAP
E0
E0
E0
E0
E0
E0
E0
E0
E0
E0
E0
E0
E0
E0
E0
E0
E0
E0
E0
E0
E0
E0
E0
ENDCHAR
STARTCHAR char1031
ENCODING 1031
SWIDTH 28 0
DWIDTH 10 0
BBX 9 29 0 0
BITMAP
F380
F380
F380
F380
0000
0000
1C00
1C00
1C00
1C00
1C00
1C00
1C00
1C00
1C00
1C00
1C00
1C00
1C00
1C00
1C00
1C00
1C00
1C00
1C00
1C00
1C00
1C00
1C00
ENDCHAR
STARTCHAR char1032
ENCODING 1032
SWIDTH 19 0
DWIDTH 17 0
BBX 13 24 1 -1
BITMAP
0038
0038
0038
0038
0038
0038
0038
0038
0038
0038
0038
0038
0038
0038
0038
0038
E038
E038
E038
F038
7070
7FF0
3FE0
0700
ENDCHAR
STARTCHAR char1033
ENCODING 1033
SWIDTH 4 0
DWIDTH 32 0
BBX 30 23 1 0
BITMAP
0FFF8000
0FFF8000
0E038000
0E038000
0E038000
1E038000
1E038000
1E038000
1E038000
1E038000
1C03FFC0
1C03FFF0
1C0380F8
1C038038
1C03801C
1C03801C
1C03801C
3803801C
3803801C
78038038
F003FFF8
E003FFF0
C003FFC0
ENDCHAR
STARTCHAR char1034
ENCODING 1034
SWIDTH 4 0
DWIDTH 32 0
BBX 28 23 3 0
BITMAP
E00E0000
E00E0000
E00E0000
E00E0000
E00E0000
E00E0000
E00E0000
E00E0000
E00E0000
E00E0000
FFFFFF00
FFFFFFC0
E00E03E0
E00E00E0
E00E0070
E00E0070
E00E0070
E00E0070
E00E0070
E00E00E0
E00FFFE0
E00FFFC0
E00FFF00
ENDCHAR
STARTCHAR char1035
ENCODING 1035
SWIDTH 13 0
DWIDTH 25 0
BBX 22 23 1 0
BITMAP
FFFF00
FFFF00
038000
038000
038000
038000
038000
038000
03FF80
03FFF0
03FFF8
03803C
03801C
03801C
03801C
03801C
03801C
03801C
03801C
03801C
03801C
03801C
03801C
ENDCHAR
STARTCHAR char1036
ENCODING 1036
SWIDTH 27 0
DWIDTH 20 0
BBX 16 29 3 0
BITMAP
00F0
01E0
0380
0300
0400
0000
E01E
E03C
E078
E0F0
E1E0
E3C0
E780
EF00
FE00
FC00
F800
FC00
FE00
EF00
E780
E3C0
E1E0
E0F0
E070
E038
E03C
E01E
E00F
ENDCHAR
STARTCHAR char1037
ENCODING 1037
SWIDTH 7 0
DWIDTH 23 0
BBX 18 29 3 0
BITMAP
0F0000
038000
01C000
00E000
000000
000000
C003C0
C007C0
C007C0
C00FC0
C01FC0
C01DC0
C039C0
C039C0
C071C0
C0E1C0
C0E1C0
C1C1C0
C3C1C0
C381C0
C701C0
C701C0
CE01C0
DC01C0
DC01C0
F801C0
F801C0
F001C0
E001C0
ENDCHAR
STARTCHAR char1038
ENCODING 1038
SWIDTH 27 0
DWIDTH 20 0
BBX 18 29 1 0
BITMAP
040C00
060C00
07F800
03F800
008000
000000
F003C0
F003C0
700380
780780
380700
3C0F00
1C0E00
1E1E00
0E1C00
0F3C00
073800
07F800
03F000
03F000
01E000
01E000
01C000
038000
078000
070000
0F0000
0E0000
1E0000
ENDCHAR
STARTCHAR char1039
ENCODING 1039
SWIDTH 7 0
DWIDTH 23 0
BBX 18 27 3 -4
BITMAP
E001C0
E001C0
E001C0
E001C0
E001C0
E001C0
E001C0
E001C0
E001C0
E001C0
E001C0
E001C0
E001C0
E001C0
E001C0
E001C0
E001C0
E001C0
E001C0
E001C0
FFFFC0
FFFFC0
FFFFC0
01C000
01C000
01C000
01C000
ENDCHAR
STARTCHAR char1040
ENCODING 1040
SWIDTH 2 0
DWIDTH 21 0
BBX 20 23 1 0
BITMAP
01F000
01F000
01F800
03B800
03B800
039C00
071C00
071C00
070E00
0E0E00
0E0E00
0E0700
1C0700
1FFF80
3FFF80
3FFF80
3803C0
7801C0
7001C0
7001E0
F000E0
E000E0
E000F0
ENDCHAR
STARTCHAR char1041
ENCODING 1041
SWIDTH 2 0
DWIDTH 21 0
BBX 17 23 3 0
BITMAP
FFFE00
FFFE00
E00000
E00000
E00000
E00000
E00000
E00000
E00000
FFF000
FFFC00
FFFF00
E00700
E00780
E00380
E00380
E00380
E00380
E00780
E00700
FFFF00
FFFE00
FFF800
ENDCHAR
STARTCHAR char1042
ENCODING 1042
SWIDTH 2 0
DWIDTH 21 0
BBX 17 23 3 0
BITMAP
FFF800
FFFC00
E03E00
E00F00
E00700
E00700
E00700
E00700
E00E00
E03C00
FFF800
FFFC00
E01F00
E00700
E00380
E00380
E00380
E00380
E00780
E00700
FFFF00
FFFE00
FFF800
ENDCHAR
STARTCHAR char1043
ENCODING 1043
SWIDTH 24 0
DWIDTH 19 0
BBX 15 23 3 0
BITMAP
FFFE
FFFE
E000
E000
E000
E000
E000
E000
E000
E000
E000
E000
E000
E000
E000
E000
E000
E000
E000
E000
E000
E000
E000
ENDCHAR
STARTCHAR char1044
ENCODING 1044
SWIDTH 16 0
DWIDTH 26 0
BBX 24 27 1 -4
BITMAP
01FFF8
01FFF8
01C038
01C038
01C038
01C038
01C038
01C038
01C038
03C038
03C038
038038
038038
038038
038038
038038
038038
078038
070038
0F0038
1FFFF8
FFFFFF
FFFFFF
E00007
E00007
E00007
E00007
ENDCHAR
STARTCHAR char1045
ENCODING 1045
SWIDTH 2 0
DWIDTH 21 0
BBX 16 23 3 0
BITMAP
FFFF
FFFF
E000
E000
E000
E000
E000
E000
E000
E000
FFFE
FFFE
E000
E000
E000
E000
E000
E000
E000
E000
FFFF
FFFF
FFFF
ENDCHAR
STARTCHAR char1046
ENCODING 1046
SWIDTH 24 0
DWIDTH 29 0
BBX 27 23 1 0
BITMAP
780E03C0
3C0E0780
1E0E0700
0F0E0E00
070E1E00
078E3C00
03CE7800
01EE7000
00EEE000
007FE000
007FC000
007FC000
007FE000
00EEF000
01EE7000
03CE3800
078E3C00
0F0E1E00
1E0E0F00
1C0E0780
380E03C0
700E01E0
E00E00E0
ENDCHAR
STARTCHAR char1047
ENCODING 1047
SWIDTH 2 0
DWIDTH 21 0
BBX 19 25 1 -1
BITMAP
00E000
0FFE00
1FFF00
3C0780
380380
7001C0
7001C0
7001C0
0003C0
000780
000F80
01FE00
01FF00
01FF80
0007C0
0001C0
0001E0
E000E0
E000E0
7001C0
7801C0
3C0780
1FFF80
0FFE00
01E000
ENDCHAR
STARTCHAR char1048
ENCODING 1048
SWIDTH 7 0
DWIDTH 23 0
BBX 18 23 3 0
BITMAP
C003C0
C007C0
C007C0
C00FC0
C01FC0
C01DC0
C039C0
C039C0
C071C0
C0E1C0
C0E1C0
C1C1C0
C3C1C0
C381C0
C701C0
C701C0
CE01C0
DC01C0
DC01C0
F801C0
F801C0
F001C0
E001C0
ENDCHAR
STARTCHAR char1049
ENCODING 1049
SWIDTH 7 0
DWIDTH 23 0
BBX 18 29 3 0
BITMAP
0C1800
0C1800
0FF800
07F000
008000
000000
C003C0
C007C0
C007C0
C00FC0
C01FC0
C01DC0
C039C0
C039C0
C071C0
C0E1C0
C0E1C0
C1C1C0
C3C1C0
C381C0
C701C0
C701C0
CE01C0
DC01C0
DC01C0
F801C0
F801C0
F001C0
E001C0
ENDCHAR
STARTCHAR char1050
ENCODING 1050
SWIDTH 27 0
DWIDTH 20 0
BBX 16 23 3 0
BITMAP
E01E
E03C
E078
E0F0
E1E0
E3C0
E780
EF00
FE00
FC00
F800
FC00
FE00
EF00
E780
E3C0
E1E0
E0F0
E070
E038
E03C
E01E
E00F
ENDCHAR
STARTCHAR char1051
ENCODING 1051
SWIDTH 2 0
DWIDTH 21 0
BBX 18 23 1 0
BITMAP
0FFFC0
0FFFC0
0E01C0
0E01C0
0E01C0
1E01C0
1E01C0
1E01C0
1E01C0
1E01C0
1C01C0
1C01C0
1C01C0
1C01C0
1C01C0
1C01C0
1C01C0
3C01C0
3801C0
3801C0
F001C0
F001C0
E001C0
ENDCHAR
STARTCHAR char1052
ENCODING 1052
SWIDTH 18 0
DWIDTH 27 0
BBX 22 23 3 0
BITMAP
F0007C
F0007C
F800FC
F800FC
D800DC
DC01DC
DC01DC
CC019C
CE039C
CE039C
C6031C
C7071C
C7071C
C3061C
C38E1C
C38E1C
C18C1C
C1DC1C
C1DC1C
C0D81C
C0F81C
C0F81C
C0701C
ENDCHAR
STARTCHAR char1053
ENCODING 1053
SWIDTH 7 0
DWIDTH 23 0
BBX 18 23 3 0
BITMAP
E001C0
E001C0
E001C0
E001C0
E001C0
E001C0
E001C0
E001C0
E001C0
E001C0
FFFFC0
FFFFC0
E001C0
E001C0
E001C0
E001C0
E001C0
E001C0
E001C0
E001C0
E001C0
E001C0
E001C0
ENDCHAR
STARTCHAR char1054
ENCODING 1054
SWIDTH 13 0
DWIDTH 25 0
BBX 23 25 1 -1
BITMAP
007C00
03FF80
07FFC0
0F01F0
1E00F0
3C0078
78003C
70001C
70001C
70001E
E0000E
E0000E
E0000E
E0000E
E0000E
70001E
70001C
70001C
78003C
3C0038
1E00F0
1F01F0
07FFC0
03FF80
007C00
ENDCHAR
STARTCHAR char1055
ENCODING 1055
SWIDTH 7 0
DWIDTH 23 0
BBX 18 23 3 0
BITMAP
FFFFC0
FFFFC0
E003C0
E003C0
E003C0
E003C0
E003C0
E003C0
E003C0
E003C0
E003C0
E003C0
E003C0
E003C0
E003C0
E003C0
E003C0
E003C0
E003C0
E003C0
E003C0
E003C0
E003C0
ENDCHAR
STARTCHAR char1056
ENCODING 1056
SWIDTH 2 0
DWIDTH 21 0
BBX 16 23 3 0
BITMAP
FFF8
FFFE
E03E
E00F
E007
E007
E007
E007
E007
E00F
FFFE
FFFC
FFF8
E000
E000
E000
E000
E000
E000
E000
E000
E000
E000
ENDCHAR
STARTCHAR char1057
ENCODING 1057
SWIDTH 7 0
DWIDTH 23 0
BBX 20 25 1 -1
BITMAP
007800
03FF00
0FFF80
1F03C0
3C01E0
3800E0
7800F0
700070
700000
700000
E00000
E00000
E00000
E00000
E00000
700070
700070
700070
780070
3800E0
3C01E0
1F03C0
0FFF80
03FF00
00F800
ENDCHAR
STARTCHAR char1058
ENCODING 1058
SWIDTH 27 0
DWIDTH 20 0
BBX 18 23 1 0
BITMAP
FFFFC0
FFFFC0
00E000
00E000
00E000
00E000
00E000
00E000
00E000
00E000
00E000
00E000
00E000
00E000
00E000
00E000
00E000
00E000
00E000
00E000
00E000
00E000
00E000
ENDCHAR
STARTCHAR char1059
ENCODING 1059
SWIDTH 27 0
DWIDTH 20 0
BBX 18 23 1 0
BITMAP
F003C0
F003C0
700380
780780
380700
3C0F00
1C0E00
1E1E00
0E1C00
0F3C00
073800
07F800
03F000
03F000
01E000
01E000
01C000
038000
078000
070000
0F0000
0E0000
1E0000
ENDCHAR
STARTCHAR char1060
ENCODING 1060
SWIDTH 18 0
DWIDTH 27 0
BBX 25 23 1 0
BITMAP
001C0000
001C0000
001C0000
07FFF000
1FFFFC00
3F9CFE00
3C1C1E00
781C0F00
701C0700
F01C0780
F01C0380
E01C0380
F01C0780
F01C0780
701C0700
781C0F00
3E1C3E00
3FFFFE00
0FFFF800
03FFE000
001C0000
001C0000
001C0000
ENDCHAR
STARTCHAR char1061
ENCODING 1061
SWIDTH 2 0
DWIDTH 21 0
BBX 19 23 1 0
BITMAP
F001E0
7803C0
380380
1C0780
1E0F00
0E0E00
071C00
07BC00
03B800
01F000
01F000
01F000
01F000
03B800
07BC00
071C00
0E0E00
1E0F00
1C0700
380380
7803C0
7001E0
E000E0
ENDCHAR
STARTCHAR char1062
ENCODING 1062
SWIDTH 10 0
DWIDTH 24 0
BBX 20 27 3 -4
BITMAP
E003C0
E003C0
E003C0
E003C0
E003C0
E003C0
E003C0
E003C0
E003C0
E003C0
E003C0
E003C0
E003C0
E003C0
E003C0
E003C0
E003C0
E003C0
E003C0
E003C0
FFFFC0
FFFFF0
FFFFF0
000070
000070
000070
000070
ENDCHAR
STARTCHAR char1063
ENCODING 1063
SWIDTH 27 0
DWIDTH 20 0
BBX 15 23 2 0
BITMAP
E00E
E00E
E00E
E00E
E00E
E00E
E00E
E00E
E00E
E00E
E00E
F80E
7FFE
3FFE
000E
000E
000E
000E
000E
000E
000E
000E
000E
ENDCHAR
STARTCHAR char1064
ENCODING 1064
SWIDTH 18 0
DWIDTH 27 0
BBX 21 23 3 0
BITMAP
E07038
E07038
E07038
E07038
E07038
E07038
E07038
E07038
E07038
E07038
E07038
E07038
E07038
E07038
E07038
E07038
E07038
E07038
E07038
E07038
FFFFF8
FFFFF8
FFFFF8
ENDCHAR
STARTCHAR char1065
ENCODING 1065
SWIDTH 18 0
DWIDTH 27 0
BBX 23 27 3 -4
BITMAP
E07038
E07038
E07038
E07038
E07038
E07038
E07038
E07038
E07038
E07038
E07038
E07038
E07038
E07038
E07038
E07038
E07038
E07038
E07038
E07038
FFFFF8
FFFFFE
FFFFFE
000006
000006
000006
000006
ENDCHAR
STARTCHAR char1066
ENCODING 1066
SWIDTH 18 0
DWIDTH 27 0
BBX 25 23 1 0
BITMAP
FFC00000
FFC00000
01C00000
01C00000
01C00000
01C00000
01C00000
01C00000
01C00000
01FFF800
01FFFE00
01C01F00
01C00F00
01C00700
01C00380
01C00380
01C00380
01C00780
01C00700
01C00F00
01FFFE00
01FFFC00
01FFF000
ENDCHAR
STARTCHAR char1067
ENCODING 1067
SWIDTH 21 0
DWIDTH 28 0
BBX 22 23 3 0
BITMAP
E0001C
E0001C
E0001C
E0001C
E0001C
E0001C
E0001C
E0001C
E0001C
FFF81C
FFFE1C
E01F1C
E0071C
E0079C
E0039C
E0039C
E0039C
E0039C
E0079C
E00F1C
FFFE1C
FFFC1C
FFF81C
ENDCHAR
STARTCHAR char1068
ENCODING 1068
SWIDTH 2 0
DWIDTH 21 0
BBX 17 23 3 0
BITMAP
E00000
E00000
E00000
E00000
E00000
E00000
E00000
E00000
E00000
FFF800
FFFE00
E01F00
E00700
E00780
E00380
E00380
E00380
E00380
E00700
E00F00
FFFE00
FFFC00
FFF800
ENDCHAR
STARTCHAR char1069
ENCODING 1069
SWIDTH 7 0
DWIDTH 23 0
BBX 20 25 1 -1
BITMAP
00F000
07FE00
1FFF00
3E0780
3803C0
7801E0
7000E0
700070
000070
000070
000070
03FFF0
03FFF0
000070
000070
E00070
F00070
700070
7000E0
7801E0
3803C0
3E07C0
1FFF80
07FE00
01F000
ENDCHAR
STARTCHAR char1070
ENCODING 1070
SWIDTH 4 0
DWIDTH 32 0
BBX 28 25 3 -1
BITMAP
0001E000
E00FFC00
E03FFF00
E07C0F80
E0700380
E0E001C0
E1E001C0
E1C000E0
E1C000E0
E1C000E0
E38000E0
FF800070
FF800070
E3800070
E38000E0
E1C000E0
E1C000E0
E1C000E0
E1E001C0
E0E001C0
E0F00380
E07C0F00
E03FFE00
E00FFC00
0003E000
ENDCHAR
STARTCHAR char1071
ENCODING 1071
SWIDTH 4 0
DWIDTH 22 0
BBX 18 23 1 0
BITMAP
0FFFC0
1FFFC0
3E01C0
7801C0
7001C0
7001C0
7001C0
7001C0
7801C0
3801C0
1FFFC0
0FFFC0
07FFC0
00E1C0
01E1C0
03C1C0
0781C0
0F01C0
1E01C0
1C01C0
3801C0
7001C0
E001C0
ENDCHAR
STARTCHAR char1072
ENCODING 1072
SWIDTH 19 0
DWIDTH 17 0
BBX 16 18 1 -1
BITMAP
1FE0
3FF8
7878
701C
701C
001C
001C
01FC
3FFC
7F1C
F01C
E01C
E01C
E03C
E07C
7FFF
3FDF
0E06
ENDCHAR
STARTCHAR char1073
ENCODING 1073
SWIDTH 19 0
DWIDTH 17 0
BBX 15 26 1 -1
BITMAP
001C
001C
00FC
0FF8
1FC0
3C00
3000
6000
6FE0
7FF8
FC78
F01C
F01C
E00E
E00E
E00E
E00E
E00E
E00E
E00E
E00E
701C
783C
3FF8
1FF0
0380
ENDCHAR
STARTCHAR char1074
ENCODING 1074
SWIDTH 16 0
DWIDTH 16 0
BBX 13 17 2 0
BITMAP
FF80
FFE0
FFE0
E0F0
E070
E070
E0E0
FFE0
FFC0
FFF0
E070
E038
E038
E078
E0F0
FFE0
FFC0
ENDCHAR
STARTCHAR char1075
ENCODING 1075
SWIDTH 5 0
DWIDTH 12 0
BBX 10 17 2 0
BITMAP
FFC0
FFC0
FFC0
E000
E000
E000
E000
E000
E000
E000
E000
E000
E000
E000
E000
E000
E000
ENDCHAR
STARTCHAR char1076
ENCODING 1076
SWIDTH 24 0
DWIDTH 19 0
BBX 17 21 1 -4
BITMAP
0FFE00
0FFE00
0FFE00
0E0E00
0E0E00
0E0E00
0E0E00
0E0E00
0E0E00
0E0E00
0C0E00
1C0E00
1C0E00
1C0E00
380E00
FFFF80
FFFF80
C00180
C00180
C00180
C00180
ENDCHAR
STARTCHAR char1077
ENCODING 1077
SWIDTH 19 0
DWIDTH 17 0
BBX 15 18 1 -1
BITMAP
0FE0
1FF8
3C78
701C
700C
E00E
E00E
FFFE
FFFE
FFFE
E000
E000
E00E
701C
783C
3FF8
1FF0
0380
ENDCHAR
STARTCHAR char1078
ENCODING 1078
SWIDTH 10 0
DWIDTH 24 0
BBX 23 17 1 0
BITMAP
70383C
383878
1C3870
1E38E0
0F39C0
07BB80
03FF00
01FE00
00FE00
01FF00
03BF80
073BC0
0E39E0
1C38F0
383878
70383C
E0381E
ENDCHAR
STARTCHAR char1079
ENCODING 1079
SWIDTH 16 0
DWIDTH 16 0
BBX 14 18 1 -1
BITMAP
1FC0
3FF0
78F0
7038
E038
0038
0078
07F0
07E0
07F0
0078
0038
E01C
E038
F038
7FF8
3FE0
0780
ENDCHAR
STARTCHAR char1080
ENCODING 1080
SWIDTH 22 0
DWIDTH 18 0
BBX 14 17 2 0
BITMAP
E03C
E07C
E07C
E0FC
E0FC
E1DC
E19C
E39C
E71C
E71C
EE1C
EE1C
FC1C
F81C
F81C
F01C
F01C
ENDCHAR
STARTCHAR char1081
ENCODING 1081
SWIDTH 22 0
DWIDTH 18 0
BBX 14 22 2 0
BITMAP
3060
38E0
1FE0
0F80
0000
E03C
E07C
E07C
E0FC
E0FC
E1DC
E19C
E39C
E71C
E71C
EE1C
EE1C
FC1C
F81C
F81C
F01C
F01C
ENDCHAR
STARTCHAR char1082
ENCODING 1082
SWIDTH 13 0
DWIDTH 15 0
BBX 13 17 2 0
BITMAP
E070
E0E0
E1C0
E380
E700
EE00
FC00
F800
F800
FC00
FE00
EF00
E780
E3C0
E1E0
E0F0
E078
ENDCHAR
STARTCHAR char1083
ENCODING 1083
SWIDTH 16 0
DWIDTH 16 0
BBX 13 17 1 0
BITMAP
3FF8
3FF8
3FF8
3838
3838
3838
3838
3838
3838
3838
3838
3038
7038
7038
F038
E038
C038
ENDCHAR
STARTCHAR char1084
ENCODING 1084
SWIDTH 24 0
DWIDTH 19 0
BBX 15 17 2 0
BITMAP
E00E
F01E
F01E
F81E
F83E
F836
FC76
FC76
EEE6
EEE6
E7C6
E7C6
E7C6
E386
E386
E106
E006
ENDCHAR
STARTCHAR char1085
ENCODING 1085
SWIDTH 19 0
DWIDTH 17 0
BBX 13 17 2 0
BITMAP
E018
E018
E018
E018
E018
E018
E018
FFF8
FFF8
FFF8
E018
E018
E018
E018
E018
E018
E018
ENDCHAR
STARTCHAR char1086
ENCODING 1086
SWIDTH 19 0
DWIDTH 17 0
BBX 15 18 1 -1
BITMAP
0FE0
1FF8
3C78
701C
701C
E00E
E00E
E00E
E00E
E00E
E00E
E00E
E00E
701C
783C
3FF8
1FF0
0380
ENDCHAR
STARTCHAR char1087
ENCODING 1087
SWIDTH 19 0
DWIDTH 17 0
BBX 13 17 2 0
BITMAP
FFF8
FFF8
FFF8
E018
E018
E018
E018
E018
E018
E018
E018
E018
E018
E018
E018
E018
E018
ENDCHAR
STARTCHAR char1088
ENCODING 1088
SWIDTH 22 0
DWIDTH 18 0
BBX 15 24 2 -7
BITMAP
C7E0
DFF0
DCF8
F03C
F01C
E00E
E00E
E00E
E00E
E00E
E00E
E00E
E01C
F01C
F83C
FFF8
EFF0
E3C0
E000
E000
E000
E000
E000
E000
ENDCHAR
STARTCHAR char1089
ENCODING 1089
SWIDTH 16 0
DWIDTH 16 0
BBX 14 18 1 -1
BITMAP
0FE0
1FF0
3C78
703C
701C
E01C
E000
E000
E000
E000
E000
E01C
E01C
701C
7838
3FF8
1FF0
07C0
ENDCHAR
STARTCHAR char1090
ENCODING 1090
SWIDTH 8 0
DWIDTH 13 0
BBX 12 17 1 0
BITMAP
FFF0
FFF0
FFF0
0E00
0E00
0E00
0E00
0E00
0E00
0E00
0E00
0E00
0E00
0E00
0E00
0E00
0E00
ENDCHAR
STARTCHAR char1091
ENCODING 1091
SWIDTH 13 0
DWIDTH 15 0
BBX 15 24 0 -7
BITMAP
E00E
700E
701C
701C
3818
3838
3838
1C70
1C70
1C70
0EE0
0EE0
0EC0
07C0
07C0
0780
0380
0380
0700
0700
0700
7E00
7C00
7800
ENDCHAR
STARTCHAR char1092
ENCODING 1092
SWIDTH 18 0
DWIDTH 27 0
BBX 25 29 1 -7
BITMAP
001C0000
001C0000
001C0000
001C0000
001C0000
0F9CFC00
3FDDFE00
7CFF9F00
703E0700
703E0380
E01C0380
E01C0380
E01C0380
E01C0380
E01C0380
E01C0380
E01C0380
E01C0380
703E0700
787F0F00
3FFFFE00
1FDDFC00
0F1C7000
001C0000
001C0000
001C0000
001C0000
001C0000
001C0000
ENDCHAR
STARTCHAR char1093
ENCODING 1093
SWIDTH 13 0
DWIDTH 15 0
BBX 14 17 1 0
BITMAP
E01C
F038
7070
3860
1CE0
1DC0
0F80
0780
0700
0F80
0FC0
1DC0
38E0
3870
7070
E038
E03C
ENDCHAR
STARTCHAR char1094
ENCODING 1094
SWIDTH 22 0
DWIDTH 18 0
BBX 15 21 2 -4
BITMAP
E018
E018
E018
E018
E018
E018
E018
E018
E018
E018
E018
E018
E018
E018
E018
FFFE
FFFE
0006
0006
0006
0006
ENDCHAR
STARTCHAR char1095
ENCODING 1095
SWIDTH 16 0
DWIDTH 16 0
BBX 12 17 2 0
BITMAP
C070
C070
C070
C070
C070
C070
C070
E070
FFF0
7FF0
0FF0
0070
0070
0070
0070
0070
0070
ENDCHAR
STARTCHAR char1096
ENCODING 1096
SWIDTH 4 0
DWIDTH 22 0
BBX 18 17 2 0
BITMAP
E1C1C0
E1C1C0
E1C1C0
E1C1C0
E1C1C0
E1C1C0
E1C1C0
E1C1C0
E1C1C0
E1C1C0
E1C1C0
E1C1C0
E1C1C0
E1C1C0
E1C1C0
FFFFC0
FFFFC0
ENDCHAR
STARTCHAR char1097
ENCODING 1097
SWIDTH 4 0
DWIDTH 22 0
BBX 20 21 2 -4
BITMAP
E1C1C0
E1C1C0
E1C1C0
E1C1C0
E1C1C0
E1C1C0
E1C1C0
E1C1C0
E1C1C0
E1C1C0
E1C1C0
E1C1C0
E1C1C0
E1C1C0
E1C1C0
FFFFF0
FFFFF0
000070
000070
000070
000070
ENDCHAR
STARTCHAR char1098
ENCODING 1098
SWIDTH 2 0
DWIDTH 21 0
BBX 19 17 1 0
BITMAP
FF0000
FF0000
FF0000
070000
070000
070000
07FE00
07FF80
07FFC0
0701C0
0700E0
0700E0
0700E0
0701C0
0707C0
07FF80
07FF00
ENDCHAR
STARTCHAR char1099
ENCODING 1099
SWIDTH 4 0
DWIDTH 22 0
BBX 18 17 2 0
BITMAP
E001C0
E001C0
E001C0
E001C0
E001C0
E001C0
FF81C0
FFE1C0
FFF1C0
E079C0
E039C0
E039C0
E039C0
E039C0
E1F1C0
FFF1C0
FFC1C0
ENDCHAR
STARTCHAR char1100
ENCODING 1100
SWIDTH 16 0
DWIDTH 16 0
BBX 13 17 2 0
BITMAP
E000
E000
E000
E000
E000
E000
FF80
FFE0
FFF0
E078
E038
E038
E038
E038
E1F0
FFF0
FFC0
ENDCHAR
STARTCHAR char1101
ENCODING 1101
SWIDTH 16 0
DWIDTH 16 0
BBX 14 18 1 -1
BITMAP
1FC0
3FE0
78F0
7038
E018
E01C
001C
0FFC
0FFC
0FFC
001C
E01C
E01C
E038
7078
7FF0
1FE0
0780
ENDCHAR
STARTCHAR char1102
ENCODING 1102
SWIDTH 10 0
DWIDTH 24 0
BBX 21 18 2 -1
BITMAP
E03F80
E0FFC0
E1F3E0
E1C0F0
E38070
E38070
E38038
FF0038
FF0038
FF0038
E30038
E38038
E38070
E3C070
E1E0E0
E0FFE0
E07FC0
001E00
ENDCHAR
STARTCHAR char1103
ENCODING 1103
SWIDTH 19 0
DWIDTH 17 0
BBX 14 17 1 0
BITMAP
07FC
3FFC
3FFC
781C
701C
701C
701C
3C1C
3FFC
0FFC
079C
0F1C
1E1C
1C1C
381C
701C
E01C
ENDCHAR
STARTCHAR char1104
ENCODING 1104
SWIDTH 19 0
DWIDTH 17 0
BBX 15 25 1 -1
BITMAP
0E00
0700
0300
0180
00C0
0000
0000
0FE0
1FF8
3C78
701C
700C
E00E
E00E
FFFE
FFFE
FFFE
E000
E000
E00E
701C
783C
3FF8
1FF0
0380
ENDCHAR
STARTCHAR char1105
ENCODING 1105
SWIDTH 19 0
DWIDTH 17 0
BBX 15 24 1 -1
BITMAP
0E78
0E78
0E78
0000
0000
0000
0FE0
1FF8
3C78
701C
700C
E00E
E00E
FFFE
FFFE
FFFE
E000
E000
E00E
701C
783C
3FF8
1FF0
0380
ENDCHAR
STARTCHAR char1106
ENCODING 1106
SWIDTH 22 0
DWIDTH 18 0
BBX 16 28 1 -5
BITMAP
3800
3800
FFC0
FFC0
3800
3800
38F0
3BFC
3FFE
3E0E
3C07
3807
3807
3807
3807
3807
3807
3807
3807
3807
3807
3806
380E
000E
001C
0038
0070
01C0
ENDCHAR
STARTCHAR char1107
ENCODING 1107
SWIDTH 5 0
DWIDTH 12 0
BBX 10 24 2 0
BITMAP
0780
0F00
0E00
1C00
3800
0000
0000
FFC0
FFC0
FFC0
E000
E000
E000
E000
E000
E000
E000
E000
E000
E000
E000
E000
E000
E000
ENDCHAR
STARTCHAR char1108
ENCODING 1108
SWIDTH 16 0
DWIDTH 16 0
BBX 14 18 1 -1
BITMAP
0FE0
1FF0
3C78
703C
701C
E01C
E000
FFC0
FFC0
FFC0
E000
E01C
E01C
701C
7838
3FF8
1FF0
07C0
ENDCHAR
STARTCHAR char1109
ENCODING 1109
SWIDTH 16 0
DWIDTH 16 0
BBX 14 18 1 -1
BITMAP
1FE0
3FF0
7878
7038
6038
6000
7800
7F00
3FE0
07F8
0078
001C
E01C
E01C
7038
7FF8
3FF0
0780
ENDCHAR
STARTCHAR char1110
ENCODING 1110
SWIDTH 19 0
DWIDTH 7 0
BBX 3 23 2 0
BITMAP
E0
E0
E0
00
00
00
E0
E0
E0
E0
E0
E0
E0
E0
E0
E0
E0
E0
E0
E0
E0
E0
E0
ENDCHAR
STARTCHAR char1111
ENCODING 1111
SWIDTH 22 0
DWIDTH 8 0
BBX 9 23 0 0
BITMAP
E780
E780
E780
E780
0000
0000
1C00
1C00
1C00
1C00
1C00
1C00
1C00
1C00
1C00
1C00
1C00
1C00
1C00
1C00
1C00
1C00
1C00
ENDCHAR
STARTCHAR char1112
ENCODING 1112
SWIDTH 22 0
DWIDTH 8 0
BBX 5 30 0 -7
BITMAP
18
18
18
00
00
00
18
18
18
18
18
18
18
18
18
18
18
18
18
18
18
18
18
18
18
18
18
78
F8
F0
ENDCHAR
STARTCHAR char1113
ENCODING 1113
SWIDTH 13 0
DWIDTH 25 0
BBX 24 17 1 0
BITMAP
3FF800
3FF800
3FF800
383800
383800
383800
383800
383FF0
383FFC
383FFE
38380E
303806
303807
70380E
F0387E
E03FFC
C03FF8
ENDCHAR
STARTCHAR char1114
ENCODING 1114
SWIDTH 18 0
DWIDTH 27 0
BBX 24 17 2 0
BITMAP
E01800
E01800
E01800
E01800
E01800
E01800
E01800
FFFFF8
FFFFFE
FFFFFE
E0180F
E01807
E01807
E01807
E0183E
E01FFC
E01FF8
ENDCHAR
STARTCHAR char1115
ENCODING 1115
SWIDTH 24 0
DWIDTH 19 0
BBX 16 23 1 0
BITMAP
3800
3800
FFC0
FFC0
3800
3800
38F0
3BFC
3FFE
3E0E
3C07
3807
3807
3807
3807
3807
3807
3807
3807
3807
3807
3807
3807
ENDCHAR
STARTCHAR char1116
ENCODING 1116
SWIDTH 13 0
DWIDTH 15 0
BBX 13 24 2 0
BITMAP
03C0
0380
0700
0600
0C00
0000
0000
E070
E0E0
E1C0
E380
E700
EE00
FC00
F800
F800
FC00
FE00
EF00
E780
E3C0
E1E0
E0F0
E078
ENDCHAR
STARTCHAR char1117
ENCODING 1117
SWIDTH 22 0
DWIDTH 18 0
BBX 14 24 2 0
BITMAP
3C00
1E00
0E00
0700
0380
0000
0000
E03C
E07C
E07C
E0FC
E0FC
E1DC
E19C
E39C
E71C
E71C
EE1C
EE1C
FC1C
F81C
F81C
F01C
F01C
ENDCHAR
STARTCHAR char1118
ENCODING 1118
SWIDTH 13 0
DWIDTH 15 0
BBX 15 29 0 -7
BITMAP
1830
1C70
0FE0
07C0
0000
E00E
700E
701C
701C
3818
3838
3838
1C70
1C70
1C70
0EE0
0EE0
0EC0
07C0
07C0
0780
0380
0380
0700
0700
0700
7E00
7C00
7800
ENDCHAR
STARTCHAR char1119
ENCODING 1119
SWIDTH 19 0
DWIDTH 17 0
BBX 13 21 2 -4
BITMAP
E018
E018
E018
E018
E018
E018
E018
E018
E018
E018
E018
E018
E018
E018
E018
FFF8
FFF8
0700
0700
0700
0700
ENDCHAR
STARTCHAR char1120
ENCODING 1120
SWIDTH 27 0
DWIDTH 30 0
BBX 29 23 0 0
BITMAP
F0000038
70078038
70078038
70078038
70078038
70078038
70078038
70078038
70078070
780F8070
380FC070
380FC0F0
381DC0E0
3C1DE0E0
1C3CE1E0
1E38E1C0
1E78F3C0
0E787380
0FF07F80
07F03F00
07E03F00
03E03F00
03C01E00
ENDCHAR
STARTCHAR char1121
ENCODING 1121
SWIDTH 4 0
DWIDTH 22 0
BBX 21 17 0 0
BITMAP
E00018
E03018
E07018
E07018
607038
607838
707838
707838
70F830
38FC70
38FC70
39DE70
1DCEE0
1DCEE0
1F87C0
0F87C0
070380
ENDCHAR
STARTCHAR char1122
ENCODING 1122
SWIDTH 16 0
DWIDTH 26 0
BBX 24 23 1 0
BITMAP
038000
038000
038000
FFFF00
FFFF00
FFFF00
038000
038000
038000
03FFF0
03FFFC
03803E
03800E
03800F
038007
038007
038007
038007
03800E
03801E
03FFFC
03FFF8
03FFE0
ENDCHAR
STARTCHAR char1123
ENCODING 1123
SWIDTH 27 0
DWIDTH 20 0
BBX 18 21 1 0
BITMAP
070000
070000
070000
070000
FFFC00
FFFC00
FFFC00
070000
070000
070000
07FE00
07FF80
07FFC0
0701C0
0701C0
0701C0
0701C0
0701C0
070FC0
07FF80
07FE00
ENDCHAR
STARTCHAR char1124
ENCODING 1124
SWIDTH 27 0
DWIDTH 30 0
BBX 26 25 3 -1
BITMAP
0003C000
E01FFC00
E03FFE00
E0781F00
E0F00700
E0E00380
E1C00380
E1C00380
E3800000
E3800000
E3800000
FFFFF800
FFFFF800
E3800000
E3800000
E38001C0
E38001C0
E1C003C0
E1C00380
E1E00380
E0F00780
E0780F00
E03FFE00
E01FFC00
0003E000
ENDCHAR
STARTCHAR char1125
ENCODING 1125
SWIDTH 4 0
DWIDTH 22 0
BBX 19 18 2 -1
BITMAP
E07F00
E0FFC0
E1E3C0
E3C0E0
E380E0
E30060
E70000
FFFE00
FFFE00
FFFE00
E70000
E70060
E380E0
E380E0
E1C1E0
E1FFC0
E0FF80
001C00
ENDCHAR
STARTCHAR char1126
ENCODING 1126
SWIDTH 13 0
DWIDTH 25 0
BBX 23 23 1 0
BITMAP
007800
007C00
007C00
00FE00
00EE00
01CF00
01C700
03C780
038380
078380
0701C0
0701C0
0E00E0
0FFFE0
1FFFF0
1FFFF0
3C3878
383838
78383C
70381C
70381C
E0380E
E0380E
ENDCHAR
STARTCHAR char1127
ENCODING 1127
SWIDTH 22 0
DWIDTH 18 0
BBX 16 17 1 0
BITMAP
01C0
03C0
03E0
07E0
07E0
0E70
0E70
0C38
1C38
1C38
3C7C
3E7C
7EEE
77EE
E7CE
E3C7
E387
ENDCHAR
STARTCHAR char1128
ENCODING 1128
SWIDTH 7 0
DWIDTH 33 0
BBX 29 23 3 0
BITMAP
E001E000
E001F000
E003F000
E003F000
E0073800
E0073800
E00F1C00
E00E1C00
E00E1E00
E01C0E00
E01C0F00
E0380700
E0380780
FFFFFF80
FFFFFF80
FFFFFFC0
E0E0E1C0
E0E0E0E0
E1C0E0E0
E1C0E070
E380E070
E380E078
E780E038
ENDCHAR
STARTCHAR char1129
ENCODING 1129
SWIDTH 10 0
DWIDTH 24 0
BBX 21 17 2 0
BITMAP
E00E00
E01E00
E01F00
E03F00
E03B00
E07380
E07380
E061C0
E0E1C0
FFE1C0
FFF3E0
E1F3E0
E3F770
E3BF70
E73E38
E71E38
E71C38
ENDCHAR
STARTCHAR char1130
ENCODING 1130
SWIDTH 24 0
DWIDTH 29 0
BBX 27 23 1 0
BITMAP
07FFFC00
03FFFC00
01C07800
01E0F000
00F0E000
0071C000
003BC000
003F8000
001F0000
001F0000
003F8000
007FC000
007FE000
00EEF000
01EE7000
03CE3800
078E3C00
0F0E1E00
1E0E0F00
1C0E0780
380E03C0
700E01E0
E00E00E0
ENDCHAR
STARTCHAR char1131
ENCODING 1131
SWIDTH 10 0
DWIDTH 24 0
BBX 23 17 1 0
BITMAP
1FFFF0
0FFFE0
07FFC0
078380
03C700
01EE00
00FC00
007C00
00FE00
01FF00
03BF80
073BC0
0E39E0
1C38F0
383878
70383C
E0381E
ENDCHAR
ENDFONT
